<svg xmlns="http://www.w3.org/2000/svg" width="247" height="90" viewBox="0 0 247 90" fill="none"><g clip-path="url(#clip0_785_123)"><path d="M73.8425 75.4539H76.2567V75.8971H73.8425V77.5073H76.5246V77.9437H73.3677V73.3809H76.5246V73.8172H73.8425V75.4547V75.4539Z" fill="#13231B"></path><path d="M84.6582 77.9427H84.2503L81.2808 74.2458V77.9427H80.8059V73.3799H81.1943L84.1842 77.1236V73.3799H84.659V77.9427H84.6582Z" fill="#13231B"></path><path d="M92.8519 77.9427H92.377V75.9029H89.6279V77.9427H89.1531V73.3799H89.6279V75.4665H92.377V73.3799H92.8519V77.9427Z" fill="#13231B"></path><path d="M98.0092 76.614L97.4208 77.9427H96.9128L98.9725 73.3467H99.427L101.487 77.9427H100.979L100.39 76.614H98.0092ZM99.1998 73.9234L98.2034 76.1776H100.197L99.2006 73.9234H99.1998Z" fill="#13231B"></path><path d="M109.4 77.9427H108.992L106.022 74.2458V77.9427H105.548V73.3799H105.936L108.926 77.1236V73.3799H109.401V77.9427H109.4Z" fill="#13231B"></path><path d="M117.727 76.3395H118.216C118.109 76.849 117.861 77.259 117.467 77.5737C117.073 77.8825 116.604 78.0365 116.056 78.0365C115.394 78.0365 114.838 77.8153 114.377 77.3517C113.916 76.889 113.695 76.325 113.695 75.6606C113.695 74.9963 113.922 74.4332 114.377 73.9764C114.838 73.5136 115.394 73.2856 116.056 73.2856C116.605 73.2856 117.073 73.4396 117.467 73.7552C117.861 74.064 118.109 74.4731 118.216 74.9835H117.727C117.533 74.2256 116.905 73.7424 116.055 73.7424C115.527 73.7424 115.078 73.9236 114.711 74.2928C114.35 74.662 114.169 75.1179 114.169 75.6615C114.169 76.2051 114.35 76.661 114.711 77.0302C115.079 77.3994 115.527 77.5806 116.055 77.5806C116.905 77.5806 117.533 77.0974 117.727 76.3395Z" fill="#13231B"></path><path d="M122.985 75.4539H125.399V75.8971H122.985V77.5073H125.667V77.9437H122.51V73.3809H125.667V73.8172H122.985V75.4547V75.4539Z" fill="#13231B"></path><path d="M136.336 76.3121V77.9427H135.861V76.3121L133.975 73.3799H134.503L136.095 75.8689L137.687 73.3799H138.215L136.336 76.3121Z" fill="#13231B"></path><path d="M144.048 73.2866C144.704 73.2866 145.259 73.5214 145.72 73.9842C146.182 74.4469 146.416 75.0041 146.416 75.6616C146.416 76.3192 146.182 76.8832 145.72 77.3459C145.259 77.8087 144.704 78.0366 144.048 78.0366C143.393 78.0366 142.83 77.8087 142.369 77.3459C141.908 76.8832 141.681 76.3192 141.681 75.6616C141.681 75.0041 141.908 74.4469 142.369 73.9842C142.83 73.5214 143.393 73.2866 144.048 73.2866ZM145.385 77.0303C145.753 76.6475 145.934 76.1916 145.934 75.6616C145.934 75.1317 145.753 74.6757 145.385 74.2997C145.017 73.917 144.576 73.7298 144.048 73.7298C143.52 73.7298 143.071 73.9178 142.704 74.2997C142.336 74.6757 142.156 75.1317 142.156 75.6616C142.156 76.1916 142.336 76.6484 142.704 77.0303C143.072 77.4063 143.52 77.5943 144.048 77.5943C144.576 77.5943 145.018 77.4063 145.385 77.0303Z" fill="#13231B"></path><path d="M154.476 76.0042C154.476 76.6082 154.296 77.0982 153.941 77.4801C153.587 77.8561 153.125 78.0441 152.543 78.0441C151.96 78.0441 151.493 77.8561 151.139 77.4801C150.784 77.0973 150.61 76.6082 150.61 76.0042V73.3809H151.085V76.0042C151.085 76.467 151.219 76.8498 151.486 77.1518C151.76 77.4537 152.109 77.6009 152.543 77.6009C152.977 77.6009 153.326 77.4529 153.599 77.1518C153.873 76.8498 154.007 76.467 154.007 76.0042V73.3809H154.475V76.0042H154.476Z" fill="#13231B"></path><path d="M159.379 76.2857V77.9427H158.904V73.3799H160.597C161.112 73.3799 161.526 73.5143 161.848 73.7754C162.169 74.0374 162.329 74.393 162.329 74.8353C162.329 75.5669 161.841 76.09 161.065 76.244L162.523 77.9419H161.928L160.51 76.2848H159.38L159.379 76.2857ZM160.583 75.8493C161.339 75.8493 161.854 75.4538 161.854 74.8362C161.854 74.2186 161.34 73.8163 160.583 73.8163H159.379V75.8493H160.583Z" fill="#13231B"></path><path d="M172.121 75.4539H174.535V75.8971H172.121V77.5073H174.803V77.9437H171.646V73.3809H174.803V73.8172H172.121V75.4547V75.4539Z" fill="#13231B"></path><path d="M180.656 76.0373L179.165 77.9427H178.609L180.341 75.6749L178.663 73.3799H179.244L180.655 75.2989L182.059 73.3799H182.641L180.962 75.6749L182.695 77.9427H182.139L180.654 76.0373H180.656Z" fill="#13231B"></path><path d="M188.301 73.3799C188.823 73.3799 189.244 73.5211 189.559 73.7958C189.88 74.0706 190.04 74.4398 190.04 74.8898C190.04 75.3398 189.873 75.7285 189.545 76.0169C189.217 76.2984 188.783 76.4397 188.241 76.4397H187.191V77.9427H186.716V73.3799H188.301ZM188.281 76.0033C188.668 76.0033 188.983 75.9029 189.217 75.6945C189.451 75.4861 189.571 75.2181 189.571 74.8889C189.571 74.245 189.057 73.8154 188.281 73.8154H187.19V76.0024H188.281V76.0033Z" fill="#13231B"></path><path d="M194.602 75.4539H197.016V75.8971H194.602V77.5073H197.284V77.9437H194.127V73.3809H197.284V73.8172H194.602V75.4547V75.4539Z" fill="#13231B"></path><path d="M202.04 76.2857V77.9427H201.565V73.3799H203.257C203.772 73.3799 204.187 73.5143 204.508 73.7754C204.83 74.0374 204.99 74.393 204.99 74.8353C204.99 75.5669 204.501 76.09 203.726 76.244L205.184 77.9419H204.589L203.171 76.2848H202.041L202.04 76.2857ZM203.244 75.8493C203.999 75.8493 204.515 75.4538 204.515 74.8362C204.515 74.2186 204 73.8163 203.244 73.8163H202.04V75.8493H203.244Z" fill="#13231B"></path><path d="M209.693 77.9427H209.218V73.3799H209.693V77.9427Z" fill="#13231B"></path><path d="M214.656 75.4539H217.07V75.8971H214.656V77.5073H217.338V77.9437H214.181V73.3809H217.338V73.8172H214.656V75.4547V75.4539Z" fill="#13231B"></path><path d="M225.471 77.9427H225.064L222.094 74.2458V77.9427H221.619V73.3799H222.007L224.997 77.1236V73.3799H225.472V77.9427H225.471Z" fill="#13231B"></path><path d="M233.798 76.3395H234.287C234.18 76.849 233.932 77.259 233.538 77.5737C233.144 77.8825 232.675 78.0365 232.127 78.0365C231.465 78.0365 230.909 77.8153 230.448 77.3517C229.987 76.889 229.765 76.325 229.765 75.6606C229.765 74.9963 229.993 74.4332 230.448 73.9764C230.909 73.5136 231.465 73.2856 232.127 73.2856C232.676 73.2856 233.144 73.4396 233.538 73.7552C233.932 74.064 234.18 74.4731 234.287 74.9835H233.798C233.604 74.2256 232.976 73.7424 232.126 73.7424C231.598 73.7424 231.149 73.9236 230.782 74.2928C230.421 74.662 230.24 75.1179 230.24 75.6615C230.24 76.2051 230.421 76.661 230.782 77.0302C231.15 77.3994 231.598 77.5806 232.126 77.5806C232.976 77.5806 233.604 77.0974 233.798 76.3395Z" fill="#13231B"></path><path d="M239.056 75.4539H241.471V75.8971H239.056V77.5073H241.738V77.9437H238.582V73.3809H241.738V73.8172H239.056V75.4547V75.4539Z" fill="#13231B"></path><path d="M5.89494 41.2868C5.44552 40.3434 5.4964 40.4787 4.73493 40.6718C2.51838 41.525 4.87739 41.4969 5.89494 41.2868Z" fill="#2C4733"></path><path d="M0 75.5832C0.281521 76.0077 0.771639 75.3416 1.11252 75.1936C1.38047 74.2009 0.275585 75.3297 0 75.5832Z" fill="#2C4733"></path><path d="M5.54981 29.3456C5.60493 29.2733 5.37004 28.9765 5.21656 28.6855C4.57975 29.8203 4.58738 30.4311 5.54981 29.3456Z" fill="#576C3B"></path><path d="M56.8656 70.3018C56.0906 70.6395 56.0465 70.1138 55.8998 69.4894C56.713 69.7744 56.997 69.6348 57.1387 69.3065C56.9699 69.3099 56.802 69.3124 56.6341 69.3124C53.6154 69.3124 50.7239 68.7714 47.5983 67.6273C44.3532 66.4398 41.6609 64.7785 39.1247 62.3984C36.6325 60.06 34.7501 57.3388 33.2009 53.8341C31.8051 50.6765 30.9962 46.4743 30.9826 42.3045C30.9674 37.8888 31.7814 33.4594 33.2153 30.1513C34.773 26.5582 36.647 23.8812 39.2917 21.4721C41.7864 19.2001 44.4439 17.6536 47.9087 16.4593C50.9664 15.4053 54.1852 14.8839 57.7492 14.8669C60.1743 14.8558 62.6478 15.1246 65.1315 15.6665C65.8302 15.282 66.4322 14.8269 66.2898 13.8095C66.2381 13.1511 66.0142 12.3668 65.3231 12.3115C64.3115 12.2316 64.2089 11.3256 63.673 10.8416C61.2139 8.67249 63.9443 7.70615 61.3521 7.4433C61.9678 5.9249 61.7965 4.28656 60.076 3.6205C59.652 3.73534 58.9516 4.11728 58.4377 3.78468C57.0581 2.82175 57.0734 3.56521 56.0227 3.25558C55.2257 2.51381 54.8856 3.56861 54.2615 3.82296C53.3966 4.05008 52.4512 4.27805 51.8423 4.90328C50.8875 4.92454 49.8301 5.25629 49.1 4.26869C49.7258 3.60944 49.7572 3.28195 49.1908 2.99698C48.1783 2.33688 46.5655 2.53083 46.2212 1.10174C45.6726 0.463757 43.4323 -0.364771 42.6776 0.174538C44.2497 0.598159 43.5459 2.08849 42.5835 2.07913C41.5422 1.98216 41.4472 1.81203 41.2369 3.05482C41.1454 3.6894 40.545 4.35206 41.4031 4.9356C41.9696 5.42557 42.4775 6.67262 41.4184 6.94057C41.8933 5.10063 40.0235 4.73995 40.11 2.7622C39.8531 1.63425 38.6227 3.44102 38.1996 2.93829C38.1512 3.07524 38.1029 3.21219 38.0546 3.34915C37.9299 2.7622 37.2287 3.27174 36.9412 3.49716C35.8677 3.98118 37.2338 4.64723 37.0752 5.05214C36.6919 4.9373 36.1212 4.18108 35.8295 4.54005C35.8635 4.36567 35.8974 4.19044 35.9304 4.02201C35.2555 3.68912 34.7849 3.88165 34.5186 4.5996C33.9878 5.12359 33.044 5.16442 32.358 5.47916C31.0267 4.92114 30.6943 5.58379 30.4891 6.77895C29.5691 6.67347 29.4376 7.07072 30.3755 7.20087C30.2135 7.87713 29.8286 8.11446 29.1476 7.76144C28.744 9.15565 28.7288 9.53674 27.595 8.47429C26.7785 9.91103 27.3508 9.83702 28.6677 9.85318C28.4684 10.9267 29.0891 11.5187 29.8252 12.2656C28.8068 12.5234 28.0122 12.7241 27.0362 12.9708C27.5382 13.3332 27.8299 13.5433 28.2166 13.8214C26.7717 14.1506 25.1148 14.154 24.6153 15.7771C23.29 15.7949 24.5237 16.6881 24.2363 16.9374C25.2945 17.9071 26.7412 18.5961 28.114 17.9488C28.6694 18.9542 29.1536 17.7872 29.7048 17.999C27.2033 20.317 29.8421 18.6565 30.8961 17.6357C30.8639 17.9888 30.8419 18.2295 30.8071 18.6055C33.7088 16.8855 32.2876 18.6063 31.2548 20.1171C31.343 20.6019 31.2777 20.9898 30.7622 21.1106C29.2664 21.9868 28.4956 20.6759 28.2929 22.2888C27.5281 22.982 26.0645 23.2823 25.7652 24.3218C25.9042 25.1291 26.4825 24.8339 27.0235 24.5651C27.3118 24.97 26.569 25.7007 26.4995 26.1005C25.7914 25.9891 25.1792 25.8896 24.5645 25.8019C23.9853 26.3702 23.5647 26.4314 23.0712 25.893C22.3089 25.1503 21.4567 25.4583 20.6393 25.4234C20.4849 26.0171 20.3747 26.4059 20.1118 26.9112C19.3156 28.3096 18.7203 26.2604 18.5999 25.5918C18.036 25.2329 17.4408 24.9249 16.8565 24.6C16.8472 25.3443 11.7154 24.7157 11.009 24.3669C10.7606 24.2299 10.1636 24.6536 9.78035 24.902C9.70743 24.9487 9.8855 25.386 9.96945 25.7288C9.13082 26.4518 8.54234 25.7441 7.95979 25.0074C7.46035 25.7296 5.64996 26.5718 6.83032 27.123C6.73789 28.0902 6.17824 28.8983 6.07479 29.783C7.00245 31.0964 7.21359 29.623 7.20596 28.7137C7.97336 27.2574 9.52342 29.6656 8.01321 29.8442C8.37868 31.6969 9.19357 30.2159 9.4081 32.2388C8.61781 31.6739 7.90383 31.4825 7.01178 31.6595C5.77292 32.6879 5.92809 31.2095 4.18554 33.0384C9.07994 33.3829 5.38625 32.7041 8.62035 35.6371C10.1848 35.1463 11.6492 34.5959 13.2977 34.9991C13.2705 35.7681 12.1996 36.5907 13.6343 37.0117C12.1453 37.4753 10.859 37.2023 9.4717 37.5732C8.67462 37.9891 8.92901 39.5628 9.11132 40.3097C10.1891 41.675 7.875 41.2284 7.10336 41.0787C8.02848 42.6396 4.39245 41.5219 5.40236 43.0301C5.82295 44.0534 6.43517 43.7165 6.90833 44.7994C5.79157 44.124 4.80116 46.0677 6.25625 46.0422C7.56634 45.4714 7.61892 47.1982 9.3038 46.7474C8.5364 49.1428 11.5449 49.2125 12.1419 47.154C12.3717 47.4194 12.5235 47.5955 12.8839 48.0123C11.7552 47.7724 11.6764 48.401 11.567 49.0101C10.8946 48.7064 11.1973 49.529 11.1354 49.9288C12.1021 50.0904 13.0068 50.1627 13.8251 49.552C14.0566 50.2563 14.6061 50.1474 15.164 50.0504C17.2839 49.8106 19.4013 49.2177 21.5322 49.227C21.1353 50.2495 20.278 49.8829 21.7136 50.9343C21.0073 51.2847 19.163 51.0108 19.6141 52.1388C18.2362 51.5944 17.6112 50.8713 17.2678 52.6245C15.9908 53.772 15.7796 55.2632 14.7884 56.6923C15.4566 56.6336 15.9814 56.5876 16.7599 56.5196C15.3209 57.6084 14.9215 59.097 14.5145 60.5755C12.7041 60.1969 12.8245 61.6668 11.8027 62.5013C10.7996 63.5919 9.58617 63.9704 8.50757 65.0277C9.74474 65.2421 10.8437 64.7811 11.9291 64.4059C12.3386 63.4847 13.474 63.9466 14.0006 63.2771C14.9037 63.6863 15.7779 64.0903 16.7879 63.671C16.9066 63.6216 17.0363 63.6021 17.1643 63.6063C17.1728 63.6063 17.1822 63.6063 17.1915 63.6063C17.919 63.625 19.146 63.5076 19.6658 62.9956C20.5918 62.0828 20.9165 60.8902 21.8306 60.3254C22.024 61.0161 22.5183 61.4891 21.7662 61.9016C21.8595 62.6978 23.6724 61.5886 23.7911 62.241C23.0932 62.7233 21.8383 62.0199 21.5635 63.215C20.9301 63.3401 17.9267 63.8003 16.876 63.9891C16.3512 64.8321 14.1821 64.6271 13.3307 64.4085C11.4992 64.4425 12.8686 66.627 10.9115 67.1637C10.1713 67.515 9.24784 67.4631 8.59067 68.0475C9.85412 69.6212 10.8267 67.7668 9.47339 70.9346C11.4771 72.5483 6.82269 72.5483 8.03526 70.1716C7.62655 70.266 7.37725 70.3239 7.11184 70.386C7.83345 71.6262 5.82973 72.3467 5.92894 70.8232C4.92496 70.7254 2.88987 71.9826 2.81525 72.7244C1.62302 72.3348 1.52636 73.6167 1.55858 74.4784C1.54416 75.1811 1.69595 75.2976 2.38703 75.1708C3.46224 74.8986 4.56288 74.8978 5.65251 74.8961C6.73026 74.8544 8.06833 73.6439 8.64749 75.0501C7.9581 75.5519 8.23199 76.3643 7.20681 76.3192C5.33028 76.4119 4.20081 77.9465 2.79575 78.9307C2.32259 79.1638 2.11145 79.4343 2.04531 79.937C3.20616 80.0876 2.18607 80.6337 2.20811 81.0114C2.58376 80.9374 2.90852 80.8744 3.25788 80.8055C2.85595 83.0521 4.04478 81.6332 4.9292 80.8166C5.68134 80.8727 5.42186 81.9173 4.80625 82.0738C6.78453 83.9597 9.06383 81.3576 11.3991 80.8438C10.424 82.819 6.37836 82.9168 8.42617 83.9937C7.4188 84.1732 5.85347 84.1162 6.96175 85.1906C6.2376 85.7112 5.00637 85.3531 4.66888 86.5295C6.74043 85.843 9.21731 86.4564 10.9599 85.0919C11.9121 84.1673 13.3409 84.5662 14.3949 83.36C15.0182 85.2655 10.8064 85.45 9.76933 87.3734C11.1218 87.347 12.063 86.5976 13.1188 86.1995C12.9771 87.4303 9.2648 87.7204 10.424 89.3851C11.0981 89.2286 11.9604 89.4761 12.1682 88.4009C13.4054 88.2878 14.757 88.292 15.8805 87.4763C14.6383 88.6833 16.157 88.6859 14.3245 89.5646C14.2465 89.8989 14.5272 90.1941 14.8223 89.8419C15.4812 88.9334 16.6895 89.1121 17.4832 88.4775C18.7271 89.2652 21.6373 85.3454 22.1249 87.6702C22.5489 87.3393 22.9406 87.0144 23.206 86.6061C24.054 85.3267 25.5091 87.9237 25.8644 85.9009C25.6787 85.0656 26.5766 85.3352 27.1066 85.1863C27.5917 85.7937 28.0741 86.3262 27.8893 85.1872C27.9529 83.497 30.9275 84.2481 31.0759 82.5698C31.0038 81.4333 32.1689 82.0662 32.7667 81.993C33.3535 81.6043 35.5344 81.5881 34.7153 80.5461C35.5149 80.3224 36.2213 80.1242 36.9921 79.9089C35.994 79.0651 37.5611 78.3352 38.3912 78.7087C38.5549 78.7606 38.9466 78.6262 38.9449 78.5896C39.1052 77.1733 40.5925 78.798 41.281 75.9543C40.7502 75.9254 40.476 75.7172 40.4585 75.3299C41.3251 75.7714 42.0815 74.4861 42.8794 74.4963C43.8817 74.2088 45.2902 74.6936 46.2187 74.2717C46.8224 73.3955 46.8945 74.1041 47.0344 74.4929C48.5302 74.5422 49.2908 73.7154 49.0407 72.2106C50.0608 72.9158 49.535 73.7681 49.4129 74.6222C51.2581 72.8979 51.6269 71.8329 54.0555 73.4951C57.0801 72.6614 57.0089 74.515 57.6746 72.237C57.7712 71.0809 56.6214 71.8942 56.8698 70.3034L56.8656 70.3018ZM48.7447 4.45754C48.944 5.47746 47.9646 8.63931 46.5485 7.6985C43.6138 7.43054 47.282 4.88286 48.7447 4.45754ZM41.387 6.96949C41.287 7.41268 41.4074 7.93923 41.153 8.32372C40.74 7.68914 40.3262 7.21703 41.387 6.96949Z" fill="#2C4733"></path><path d="M14.9962 53.7394C14.3865 53.3149 14.0414 53.2571 13.8667 53.8474C13.9744 54.3893 14.501 53.8287 14.9962 53.7394Z" fill="#2C4733"></path><path d="M12.9297 53.2335L12.9246 53.2522C13.9388 51.1043 6.44623 50.7956 12.9297 53.2335Z" fill="#2C4733"></path><path d="M8.24219 36.1362C7.55082 36.6461 7.21786 37.0121 7.2433 37.2344C8.07005 37.4028 9.52854 36.9358 8.24219 36.1362Z" fill="#2C4733"></path><path d="M7.02865 39.07C6.8828 38.4167 6.45289 38.8403 6.05096 39.0555C6.02722 39.7267 6.64368 39.2036 7.02865 39.07Z" fill="#2C4733"></path><path d="M13.3655 53.6009C14.4958 52.854 13.619 52.2254 12.9246 53.2521C13.0441 53.2751 13.3358 53.6596 13.3655 53.6009Z" fill="#2C4733"></path><path d="M113.513 63.9785C113.28 63.4571 113.109 62.7834 112.999 61.9591C112.89 61.1348 112.828 60.2144 112.815 59.1979C112.8 58.1822 112.794 57.1785 112.794 56.1892V48.689C112.794 47.755 112.616 46.952 112.26 46.2783C111.904 45.6054 111.418 45.0491 110.801 44.6093C110.185 44.1704 109.473 43.8472 108.665 43.6413C107.857 43.4354 107.015 43.3325 106.139 43.3325C104.605 43.3325 103.079 43.6209 101.559 44.1976C100.039 44.7744 98.8267 45.585 97.9227 46.6288L100.346 49.0599C100.784 47.3016 101.531 45.9627 102.585 45.0423C103.639 44.1219 104.7 43.6617 105.768 43.6617C106.754 43.6617 107.617 44.0675 108.356 44.8773C109.095 45.688 109.465 46.9588 109.465 48.689V52.8512C108.041 52.9338 106.555 53.0784 105.008 53.2842C103.461 53.4901 102.051 53.8473 100.777 54.356C99.5033 54.8647 98.4561 55.5512 97.6344 56.4163C96.8128 57.2814 96.4023 58.4153 96.4023 59.8163C96.4023 60.7231 96.5668 61.4998 96.895 62.1445C97.224 62.7902 97.6548 63.3329 98.189 63.7727C98.7232 64.2125 99.3388 64.5349 100.038 64.7407C100.736 64.9466 101.468 65.0495 102.235 65.0495C103.003 65.0495 103.721 64.9525 104.474 64.7611C105.227 64.5689 105.933 64.2873 106.59 63.9164C107.247 63.5456 107.829 63.0922 108.336 62.5563C108.842 62.0204 109.219 61.4096 109.465 60.7223C109.519 62.398 109.855 63.4903 110.472 63.9981C111.088 64.5068 111.861 64.7603 112.792 64.7603H114.518C114.08 64.7603 113.744 64.4991 113.512 63.9768L113.513 63.9785ZM109.467 58.7037C109.467 59.5552 109.296 60.3182 108.953 60.9911C108.61 61.6648 108.158 62.2415 107.597 62.7221C107.036 63.2027 106.412 63.5736 105.728 63.8348C105.043 64.0959 104.359 64.2261 103.674 64.2261C102.633 64.2261 101.716 63.8901 100.922 63.2164C100.127 62.5435 99.7306 61.4513 99.7306 59.9405C99.7306 58.924 99.8807 58.0181 100.183 57.221C100.484 56.4248 101.004 55.7443 101.744 55.1812C102.483 54.618 103.475 54.1783 104.722 53.8627C105.967 53.5471 107.549 53.3472 109.467 53.2655V58.7054V58.7037Z" fill="#13231B"></path><path d="M139.024 63.9994C138.791 63.4916 138.619 62.8247 138.51 62.0004C138.401 61.1761 138.339 60.2557 138.325 59.2392C138.311 58.2227 138.305 57.2198 138.305 56.2305V50.5439C138.305 49.6924 138.325 48.8545 138.367 48.0302C138.407 47.206 138.476 46.4787 138.572 45.8458C138.668 45.2137 138.784 44.6991 138.921 44.3002C139.058 43.9021 139.236 43.7021 139.456 43.7021H133.786C134.059 43.7021 134.272 43.9846 134.423 44.5468C134.573 45.11 134.69 45.8245 134.772 46.6896C134.855 47.5547 134.909 48.5168 134.937 49.5742C134.964 50.6324 134.977 51.6548 134.977 52.6441V56.683C134.949 57.919 134.738 59.0112 134.341 59.9588C133.943 60.9065 133.444 61.7035 132.841 62.3492C132.239 62.9948 131.561 63.4822 130.808 63.8123C130.054 64.1423 129.309 64.3065 128.569 64.3065C127.255 64.3065 126.091 63.7986 125.078 62.7821C124.064 61.7656 123.558 60.186 123.558 58.0432V54.2927C123.558 53.3034 123.565 52.1907 123.578 50.9548C123.592 49.7188 123.633 48.5644 123.701 47.4935C123.769 46.4217 123.886 45.5225 124.051 44.7944C124.215 44.0671 124.448 43.7021 124.749 43.7021H119.039C119.368 43.7021 119.614 44.0671 119.779 44.7944C119.943 45.5225 120.059 46.4293 120.128 47.5139C120.196 48.5993 120.237 49.7596 120.251 50.9964C120.265 52.2324 120.271 53.3451 120.271 54.3344V58.2907C120.271 59.4723 120.463 60.5092 120.846 61.4024C121.23 62.2956 121.743 63.0441 122.387 63.6481C123.03 64.2529 123.763 64.6986 124.585 64.987C125.407 65.2754 126.255 65.42 127.132 65.42C127.954 65.42 128.776 65.2966 129.597 65.0491C130.419 64.8016 131.185 64.4247 131.898 63.916C132.61 63.4082 133.233 62.783 133.767 62.0412C134.301 61.2995 134.704 60.4343 134.978 59.445V60.5169C134.978 61.3964 135.061 62.111 135.225 62.6596C135.39 63.2092 135.622 63.6421 135.924 63.9577C136.225 64.2742 136.581 64.4868 136.992 64.5966C137.403 64.7063 137.841 64.7616 138.307 64.7616H140.032C139.594 64.7616 139.258 64.5081 139.026 63.9994H139.024Z" fill="#13231B"></path><path d="M150.033 36.4707C150.376 35.8523 150.917 35.5435 151.656 35.5435C152.204 35.5435 152.71 35.6949 153.176 35.9969C153.642 36.2997 154.23 36.794 154.943 37.4804L156.257 35.0076C155.518 34.8154 154.737 34.7192 153.916 34.7192C152.93 34.7192 151.978 34.8911 151.061 35.2347C150.143 35.5784 149.328 36.1075 148.616 36.8212C147.904 37.5349 147.322 38.4629 146.87 39.6028C146.418 40.7435 146.151 42.1105 146.069 43.7029H143.728V44.033H146.028V54.5418C146.028 55.5311 146.021 56.6225 146.008 57.8177C145.993 59.0128 145.946 60.1255 145.864 61.1556C145.781 62.1857 145.658 63.0449 145.494 63.7314C145.329 64.4187 145.096 64.7615 144.795 64.7615H150.505C150.203 64.7615 149.971 64.3974 149.807 63.6693C149.642 62.942 149.525 62.0352 149.457 60.9497C149.388 59.8652 149.348 58.704 149.334 57.4672C149.32 56.2312 149.314 55.1186 149.314 54.1293V44.033H153.298V43.7029H149.314V43.167C149.314 42.6728 149.294 41.9999 149.252 41.1476C149.211 40.2961 149.245 39.4582 149.355 38.6339C149.464 37.8096 149.69 37.0883 150.032 36.4707H150.033Z" fill="#13231B"></path><path d="M161.268 43.167C161.268 42.6728 161.247 41.9999 161.206 41.1476C161.165 40.2961 161.199 39.4582 161.308 38.6339C161.418 37.8096 161.643 37.0883 161.986 36.4707C162.328 35.8523 162.869 35.5435 163.609 35.5435C164.157 35.5435 164.663 35.6949 165.129 35.9969C165.595 36.2997 166.183 36.794 166.895 37.4804L168.21 35.0076C167.47 34.8154 166.69 34.7192 165.869 34.7192C164.882 34.7192 163.931 34.8911 163.014 35.2347C162.096 35.5784 161.281 36.1075 160.569 36.8212C159.857 37.5349 159.275 38.4629 158.823 39.6028C158.371 40.7435 158.104 42.1105 158.022 43.7029H155.68V44.033H157.981V54.5418C157.981 55.5311 157.974 56.6225 157.961 57.8177C157.946 59.0128 157.899 60.1255 157.816 61.1556C157.734 62.1857 157.611 63.0449 157.447 63.7314C157.282 64.4187 157.049 64.7615 156.748 64.7615H162.458C162.156 64.7615 161.924 64.3974 161.759 63.6693C161.595 62.942 161.478 62.0352 161.41 60.9497C161.341 59.8652 161.301 58.704 161.287 57.4672C161.273 56.2312 161.267 55.1186 161.267 54.1293V44.033H165.251V43.7029H161.267V43.167H161.268Z" fill="#13231B"></path><path d="M183.142 62.3504C181.786 63.1067 180.41 63.4835 179.013 63.4835C178.054 63.4835 177.117 63.3125 176.2 62.968C175.282 62.6252 174.447 62.1301 173.694 61.4845C172.94 60.8397 172.277 60.0358 171.702 59.0738C171.127 58.1125 170.715 57.0135 170.469 55.7767L184.765 51.4086C185.066 51.3261 185.292 51.23 185.443 51.1202C185.593 51.0105 185.668 50.7902 185.668 50.461C185.668 49.692 185.469 48.8813 185.073 48.0298C184.675 47.1783 184.108 46.3889 183.368 45.6599C182.628 44.9326 181.731 44.3278 180.677 43.8463C179.622 43.3657 178.439 43.125 177.123 43.125C175.808 43.125 174.576 43.3589 173.344 43.8259C172.112 44.2938 171.009 44.9871 170.037 45.9075C169.064 46.8279 168.284 47.9541 167.696 49.2871C167.107 50.62 166.812 52.1512 166.812 53.8823C166.812 55.6133 167.1 57.2619 167.675 58.6629C168.25 60.0639 169.016 61.2454 169.975 62.2067C170.933 63.1688 172.036 63.8961 173.282 64.3911C174.528 64.8854 175.808 65.1329 177.123 65.1329C178.958 65.1329 180.752 64.6387 182.505 63.6494C184.257 62.6601 185.709 61.094 186.859 58.9513L186.612 58.7862C185.653 60.4076 184.496 61.5959 183.14 62.3513L183.142 62.3504ZM170.223 54.129C170.195 53.7172 170.182 53.2775 170.182 52.8105C170.182 49.8987 170.784 47.6181 171.99 45.9696C173.195 44.321 174.907 43.4967 177.125 43.4967C178.604 43.4967 179.871 44.0394 180.925 45.1249C181.979 46.2103 182.506 48.0035 182.506 50.5026C182.506 50.9705 182.397 51.3201 182.177 51.5532C181.958 51.7871 181.478 52.0134 180.739 52.2329L170.387 55.3233C170.305 54.9388 170.25 54.5407 170.223 54.1281V54.129Z" fill="#13231B"></path><path d="M209.761 63.9994C209.528 63.4916 209.357 62.8247 209.247 62.0004C209.138 61.1761 209.076 60.2557 209.062 59.2392C209.048 58.2227 209.042 57.2198 209.042 56.2305V50.5439C209.042 49.6924 209.062 48.8545 209.104 48.0302C209.145 47.206 209.213 46.4787 209.309 45.8458C209.405 45.2137 209.521 44.6991 209.659 44.3002C209.795 43.9021 209.973 43.7021 210.193 43.7021H204.523C204.796 43.7021 205.009 43.9846 205.16 44.5468C205.31 45.11 205.427 45.8245 205.51 46.6896C205.592 47.5547 205.646 48.5168 205.674 49.5742C205.701 50.6324 205.715 51.6548 205.715 52.6441V56.683C205.687 57.919 205.475 59.0112 205.078 59.9588C204.68 60.9065 204.181 61.7035 203.579 62.3492C202.976 62.9948 202.298 63.4822 201.545 63.8123C200.792 64.1423 200.046 64.3065 199.307 64.3065C197.992 64.3065 196.828 63.7986 195.815 62.7821C194.802 61.7656 194.295 60.186 194.295 58.0432V54.2927C194.295 53.3034 194.302 52.1907 194.316 50.9548C194.329 49.7188 194.37 48.5644 194.439 47.4935C194.507 46.4217 194.624 45.5225 194.788 44.7944C194.953 44.0671 195.185 43.7021 195.487 43.7021H189.777C190.106 43.7021 190.352 44.0671 190.516 44.7944C190.681 45.5225 190.797 46.4293 190.865 47.5139C190.933 48.5993 190.975 49.7596 190.988 50.9964C191.002 52.2324 191.009 53.3451 191.009 54.3344V58.2907C191.009 59.4723 191.2 60.5092 191.584 61.4024C191.967 62.2956 192.481 63.0441 193.124 63.6481C193.767 64.2529 194.501 64.6986 195.322 64.987C196.144 65.2754 196.993 65.42 197.869 65.42C198.691 65.42 199.513 65.2966 200.335 65.0491C201.156 64.8016 201.923 64.4247 202.635 63.916C203.347 63.4082 203.971 62.783 204.504 62.0412C205.038 61.2995 205.442 60.4343 205.716 59.445V60.5169C205.716 61.3964 205.798 62.111 205.962 62.6596C206.127 63.2092 206.359 63.6421 206.661 63.9577C206.962 64.2742 207.318 64.4868 207.73 64.5966C208.14 64.7063 208.578 64.7616 209.044 64.7616H210.769C210.331 64.7616 209.995 64.5081 209.763 63.9994H209.761Z" fill="#13231B"></path><path d="M223.173 45.4541C222.379 46.1278 221.688 46.9521 221.099 47.9269C220.51 48.9026 220.078 49.9948 219.805 51.2027V45.6803L216.519 43.2075V54.1281C216.519 55.1174 216.512 56.2301 216.498 57.466C216.484 58.702 216.443 59.8632 216.375 60.9486C216.307 62.034 216.19 62.9408 216.026 63.6681C215.861 64.3962 215.628 64.7603 215.327 64.7603H220.997C220.695 64.7603 220.462 64.4175 220.298 63.7302C220.133 63.0437 220.016 62.1922 219.949 61.1749C219.88 60.1583 219.839 59.0593 219.826 57.8778C219.811 56.6971 219.805 55.598 219.805 54.5807C219.805 53.1243 219.962 51.8747 220.278 50.8302C220.592 49.7864 221.024 48.9136 221.571 48.2136C222.119 47.5126 222.756 46.998 223.482 46.6679C224.207 46.3379 224.981 46.1737 225.803 46.1737C226.487 46.1737 227.199 46.2971 227.939 46.5446L228.678 43.3717C227.692 43.3717 226.727 43.5503 225.782 43.9076C224.838 44.2649 223.968 44.7804 223.174 45.4532L223.173 45.4541Z" fill="#13231B"></path><path d="M246.157 56.2098C245.596 55.4 244.883 54.6719 244.021 54.0254C243.159 53.3806 242.227 52.7894 241.228 52.2535C240.228 51.7176 239.297 51.1893 238.435 50.667C237.572 50.1456 236.846 49.5892 236.257 48.998C235.668 48.4077 235.346 47.7408 235.292 46.999C235.237 45.8456 235.477 45 236.011 44.465C236.545 43.9299 237.25 43.6611 238.127 43.6611C239.004 43.6611 239.961 43.929 241.002 44.465C242.043 45.0009 243.015 45.7775 243.919 46.7932L245.028 44.7737C244.207 44.2523 243.303 43.867 242.317 43.6194C241.331 43.3719 240.346 43.2485 239.36 43.2485C238.483 43.2485 237.648 43.3515 236.854 43.5573C236.06 43.7632 235.355 44.066 234.738 44.4641C234.122 44.8631 233.629 45.3573 233.26 45.9476C232.89 46.5388 232.705 47.2321 232.705 48.0283C232.705 49.0176 232.993 49.8895 233.567 50.6449C234.142 51.4011 234.868 52.0944 235.745 52.7256C236.621 53.3576 237.559 53.9616 238.559 54.5392C239.558 55.1159 240.496 55.7275 241.373 56.3731C242.249 57.0188 242.975 57.7197 243.55 58.4751C244.125 59.2313 244.413 60.1168 244.413 61.1334C244.413 62.3693 244.008 63.2838 243.201 63.8741C242.393 64.4653 241.414 64.7605 240.264 64.7605C239.032 64.7605 237.744 64.4041 236.402 63.6887C235.06 62.975 233.979 61.9032 233.157 60.4741L231.596 62.9878C232.664 63.7023 233.882 64.2518 235.252 64.6363C236.622 65.0208 237.99 65.2131 239.361 65.2131C240.374 65.2131 241.339 65.0957 242.256 64.8626C243.174 64.6295 243.982 64.2654 244.68 63.7704C245.379 63.2761 245.939 62.6373 246.364 61.8539C246.788 61.0704 247.001 60.1432 247.001 59.0722C247.001 58.0013 246.719 57.0188 246.159 56.2081L246.157 56.2098Z" fill="#13231B"></path><path d="M82.267 33.7961C82.256 34.719 82.2254 35.579 82.1737 36.3769C82.122 37.1748 82.0338 37.8443 81.91 38.3828C81.7862 38.9221 81.5997 39.1917 81.3521 39.1917H85.6919C85.4443 39.1917 85.2577 38.917 85.1339 38.3674C85.0101 37.8179 84.9219 37.134 84.8702 36.3148C84.8185 35.4957 84.7871 34.6204 84.7769 33.6872C84.7659 32.754 84.7617 31.9144 84.7617 31.1684V25.4461C84.7617 24.7001 84.7668 23.8597 84.7769 22.9274C84.7871 21.9942 84.8185 21.1189 84.8702 20.2997C84.9219 19.4806 85.0101 18.7966 85.1339 18.2471C85.2577 17.6976 85.4443 17.4229 85.6919 17.4229H81.3521C81.5997 17.4229 81.7862 17.6925 81.91 18.231C82.0338 18.7703 82.122 19.4389 82.1737 20.2368C82.2254 21.0355 82.256 21.8955 82.267 22.8176C82.2772 23.7406 82.2823 24.5751 82.2823 25.3211V31.2918C82.2823 32.0378 82.2772 32.8731 82.267 33.7952V33.7961Z" fill="#13231B"></path><path d="M98.6503 25.446L99.2082 23.0514C98.4646 23.0514 97.7353 23.1867 97.023 23.4555C96.3099 23.7252 95.6536 24.1139 95.0541 24.6217C94.4546 25.1304 93.9331 25.7522 93.4888 26.488C93.0444 27.2239 92.7188 28.0481 92.5119 28.9609V24.7936L90.0316 22.9272V31.1683C90.0316 31.9143 90.0266 32.7548 90.0164 33.6871C90.0054 34.6202 89.9748 35.4964 89.9231 36.3147C89.8714 37.1339 89.784 37.8178 89.6594 38.3673C89.5356 38.9168 89.3592 39.1916 89.1328 39.1916H93.4107C93.1826 39.1916 93.008 38.933 92.8833 38.4141C92.7595 37.8961 92.6713 37.253 92.6196 36.4857C92.5679 35.7193 92.5365 34.889 92.5263 33.9975C92.5153 33.1061 92.5111 32.2767 92.5111 31.5094C92.5111 30.4104 92.6298 29.4679 92.8672 28.6793C93.1046 27.8916 93.4302 27.2332 93.844 26.705C94.257 26.1767 94.7378 25.7871 95.2856 25.5387C95.8333 25.2903 96.4167 25.1653 97.0374 25.1653C97.5539 25.1653 98.0915 25.2589 98.6494 25.4452L98.6503 25.446Z" fill="#13231B"></path><path d="M102.898 22.5224L102.836 22.3982C103.083 22.2536 103.285 22.0044 103.44 21.6522C103.595 21.3 103.678 20.9215 103.688 20.5175C103.699 20.1134 103.641 19.7298 103.517 19.3665C103.394 19.0042 103.197 18.7396 102.928 18.5737H105.687C105.687 19.6932 105.419 20.5847 104.881 21.2482C104.343 21.9117 103.683 22.337 102.897 22.5233L102.898 22.5224Z" fill="#13231B"></path><path d="M102.587 38.3677C102.711 37.8182 102.799 37.1342 102.851 36.3151C102.903 35.4959 102.934 34.6206 102.944 33.6874C102.955 32.7543 102.96 31.9147 102.96 31.1687V24.7931L105.44 22.9268V31.1678C105.44 31.9138 105.44 32.7543 105.44 33.6866C105.44 34.6189 105.466 35.4959 105.517 36.3142C105.569 37.1334 105.657 37.8173 105.781 38.3668C105.904 38.9163 106.091 39.1911 106.339 39.1911H102.029C102.277 39.1911 102.463 38.9163 102.587 38.3668V38.3677Z" fill="#13231B"></path><path d="M120.273 36.9996C120.594 36.4084 120.754 35.7092 120.754 34.9002C120.754 34.0913 120.542 33.3503 120.119 32.7387C119.695 32.1271 119.158 31.5776 118.507 31.0902C117.856 30.6036 117.153 30.157 116.399 29.753C115.644 29.3489 114.942 28.95 114.291 28.5553C113.64 28.1614 113.092 27.742 112.648 27.2954C112.203 26.8497 111.96 26.347 111.919 25.7873C111.878 24.9162 112.059 24.2791 112.462 23.875C112.865 23.4709 113.396 23.2685 114.059 23.2685C114.721 23.2685 115.443 23.4709 116.228 23.875C117.014 24.2791 117.747 24.8652 118.43 25.6324L119.267 24.1089C118.647 23.7151 117.964 23.425 117.221 23.2379C116.477 23.0516 115.732 22.958 114.989 22.958C114.327 22.958 113.696 23.0354 113.098 23.1911C112.498 23.3468 111.967 23.5747 111.501 23.875C111.036 24.1761 110.664 24.5487 110.385 24.9945C110.106 25.4402 109.966 25.9642 109.966 26.5647C109.966 27.3108 110.183 27.9692 110.618 28.5399C111.052 29.1107 111.599 29.6339 112.261 30.1102C112.922 30.5874 113.629 31.0434 114.384 31.4789C115.138 31.9145 115.846 32.3755 116.507 32.8629C117.169 33.3503 117.717 33.8786 118.151 34.4494C118.585 35.0202 118.802 35.6888 118.802 36.4552C118.802 37.3884 118.497 38.0774 117.887 38.5231C117.277 38.9689 116.539 39.1917 115.671 39.1917C114.74 39.1917 113.769 38.9221 112.756 38.3828C111.744 37.8443 110.927 37.0353 110.307 35.9567L109.129 37.8537C109.936 38.393 110.855 38.8072 111.889 39.0973C112.921 39.3874 113.955 39.5328 114.989 39.5328C115.753 39.5328 116.482 39.4444 117.174 39.2683C117.866 39.0922 118.476 38.8174 119.003 38.444C119.53 38.0706 119.954 37.5891 120.274 36.9979L120.273 36.9996Z" fill="#13231B"></path><path d="M127.356 38.3675C127.232 37.818 127.144 37.1341 127.092 36.3149C127.041 35.4957 127.009 34.6204 126.999 33.6872C126.988 32.7541 126.984 31.9145 126.984 31.1685V29.2094C127.025 28.2975 127.196 27.4988 127.495 26.8149C127.794 26.131 128.172 25.5508 128.626 25.0736C129.081 24.5972 129.587 24.2391 130.145 24.0009C130.703 23.7628 131.261 23.6437 131.819 23.6437C132.811 23.6437 133.689 24.0273 134.454 24.7946C135.218 25.5619 135.602 26.7536 135.602 28.3707V36.0214C135.602 36.6849 135.664 37.2293 135.787 37.6538C135.911 38.0791 136.087 38.4109 136.314 38.6491C136.541 38.8872 136.805 39.0489 137.104 39.1314C137.404 39.2139 137.729 39.2556 138.081 39.2556H139.383C139.072 39.2556 138.83 39.0693 138.654 38.6958C138.479 38.3224 138.349 37.8409 138.267 37.2497C138.184 36.6585 138.132 35.9899 138.112 35.2439C138.09 34.4979 138.08 33.751 138.08 33.005V28.1844C138.08 27.2725 137.935 26.4797 137.646 25.8052C137.356 25.1314 136.969 24.5717 136.483 24.126C135.998 23.6802 135.44 23.3485 134.81 23.1307C134.179 22.913 133.533 22.8041 132.872 22.8041C132.252 22.8041 131.632 22.8976 131.012 23.0839C130.392 23.2702 129.818 23.5501 129.291 23.9235C128.765 24.297 128.299 24.7631 127.896 25.3228C127.493 25.8826 127.188 26.5359 126.982 27.2819V16.0865L124.471 14.2202L124.503 31.5113C124.503 32.1748 124.498 32.9472 124.487 33.8284C124.476 34.7097 124.441 35.5493 124.379 36.3472C124.317 37.146 124.224 37.8197 124.1 38.3683C123.976 38.9179 123.79 39.1926 123.542 39.1926H127.882C127.654 39.1926 127.479 38.9179 127.354 38.3683L127.356 38.3675Z" fill="#13231B"></path><path d="M92.1524 64.1021C91.9192 63.6079 91.7479 62.9691 91.6386 62.1856C91.5292 61.4022 91.4605 60.5166 91.4334 59.5273C91.4054 58.538 91.3927 57.5496 91.3927 56.5603V50.1728C91.3927 48.964 91.201 47.9135 90.8177 47.0203C90.4336 46.128 89.9206 45.3862 89.277 44.795C88.6334 44.2047 87.894 43.7649 87.0588 43.4765C86.2227 43.1881 85.3671 43.0435 84.4912 43.0435C83.6695 43.0435 82.8478 43.1669 82.0261 43.4144C81.2045 43.662 80.4447 44.0328 79.746 44.5271C79.0473 45.0213 78.4317 45.6397 77.8975 46.3815C77.3632 47.1232 76.9588 47.9883 76.6857 48.9776V34.1424L73.3584 31.6696L73.3991 54.5825C73.3991 55.4077 73.3931 56.3612 73.3812 57.4399C72.3891 58.4836 71.308 59.4261 70.1175 60.1823C67.5583 61.8079 64.013 63.0915 61.0613 63.2251C58.2028 63.3544 55.67 62.8593 52.9947 61.7229C50.3186 60.5864 48.0689 59.0952 45.9185 56.8078C43.7681 54.5204 42.1561 51.9192 40.8851 48.6297C39.614 45.3394 38.9899 41.15 39.0357 37.391C39.0654 34.9641 39.4808 32.1587 40.4187 29.9512C41.3565 27.7438 42.8608 25.7805 44.4567 24.1549C46.0534 22.5294 48.2775 21.1181 50.3601 20.2701C52.4427 19.422 54.3726 18.9779 56.7308 19.006C59.6189 19.0409 62.2145 19.712 65.0425 21.1003C67.8704 22.4885 71.1367 25.2123 73.1752 27.7753C74.1037 26.4474 74.5726 24.8754 75.4613 23.5187C72.9225 21.8148 70.1548 20.4563 67.2302 19.5895C64.3056 18.7227 61.2716 18.2481 58.2588 18.2625C55.246 18.277 52.3698 18.6921 49.5461 19.6661C46.7224 20.6401 44.3608 21.9203 42.0747 24.0035C39.7878 26.0868 38.1614 28.4184 36.8055 31.5462C35.4497 34.674 34.8408 38.661 34.8527 42.2882C34.8637 45.6423 35.4675 49.4514 36.7852 52.4304C38.1021 55.4094 39.7217 57.8201 41.9399 59.9025C44.1582 61.9849 46.496 63.4156 49.29 64.4381C52.084 65.4606 54.7763 65.9974 57.8433 65.9055C61.6167 65.7923 65.1061 64.8422 68.5021 62.7317C70.315 61.6046 71.9312 60.1049 73.3643 58.4249C73.3414 59.313 73.299 60.1687 73.2354 60.9905C73.1531 62.0487 73.0302 62.9418 72.8657 63.6691C72.7012 64.3973 72.4553 64.7614 72.1263 64.7614H77.8771C77.5752 64.7614 77.3429 64.3973 77.1784 63.6691C77.0139 62.9418 76.8969 62.035 76.829 60.9496C76.7603 59.8651 76.7196 58.7039 76.7061 57.4671C76.6917 56.2311 76.6857 55.1184 76.6857 54.1291V53.7761C76.6934 53.7642 76.7001 53.7523 76.7078 53.7404C76.7018 53.7276 76.6942 53.7157 76.6857 53.7047V51.533C76.74 50.3242 76.9664 49.266 77.3632 48.3601C77.7601 47.4533 78.2595 46.6843 78.8624 46.0523C79.4645 45.4202 80.1361 44.9464 80.8755 44.6308C81.6149 44.3152 82.3543 44.157 83.0937 44.157C84.4081 44.157 85.5723 44.6657 86.5856 45.6822C87.5981 46.6988 88.1051 48.2784 88.1051 50.4212V60.5592C88.1051 61.4387 88.1874 62.1601 88.3519 62.7224C88.5164 63.2855 88.7487 63.7253 89.0506 64.0409C89.3516 64.3573 89.701 64.57 90.0978 64.6797C90.4947 64.7894 90.9254 64.8447 91.3918 64.8447H93.1174C92.707 64.8447 92.3848 64.5972 92.1524 64.103V64.1021Z" fill="#13231B"></path></g><defs><clipPath id="clip0_785_123"><rect width="247" height="90" fill="white"></rect></clipPath></defs></svg>