<svg xmlns="http://www.w3.org/2000/svg" width="189" height="37" viewBox="0 0 189 37" fill="none"><g clip-path="url(#clip0_2091_3906)"><path d="M22.33 24.7613L17.238 17.0648C20.7752 15.5877 22.5633 12.6335 22.5633 9.60162C22.5244 3.73211 17.7433 0.894531 10.7854 0.894531H1.18426C0.640069 0.894531 0.329102 1.12776 0.329102 1.51647V1.67195C0.329102 2.64372 1.8062 2.99356 1.8062 4.62614V24.7613C1.8062 26.3939 0.329102 26.7437 0.329102 27.7155V27.8321C0.329102 28.2597 0.640069 28.4929 1.18426 28.4929H8.49199C9.03619 28.4929 9.4249 28.2597 9.4249 27.8321V27.7155C9.4249 26.7437 7.75345 26.3939 7.75345 24.7613V18.0755L12.0292 17.9977L16.1107 24.7613C17.0825 26.5105 15.2555 26.7437 15.2555 27.7155V27.8321C15.2555 28.2597 15.5665 28.4929 16.1107 28.4929H24.2347C24.7789 28.4929 25.1287 28.2597 25.1287 27.8321V27.7155C25.1287 26.7437 23.535 26.6271 22.33 24.7613ZM9.93022 15.7043C8.49199 15.7043 7.75345 15.0047 7.75345 13.1V5.01485C7.75345 3.96533 8.2199 3.26566 9.07506 3.26566H10.3967C13.3897 3.26566 16.4994 5.75339 16.4994 10.2624C16.4994 13.9552 14.4004 15.7043 11.6017 15.7043H9.93022Z" fill="#233441"></path><path d="M35.633 28.8808C41.3082 28.8808 45.5062 24.7605 45.5062 19.2408C45.5062 13.7211 41.0361 9.44531 35.0499 9.44531C29.608 9.44531 24.9824 13.4102 24.9824 19.0464C24.9824 24.4495 29.3748 28.8808 35.633 28.8808ZM36.3327 27.1705C32.7954 27.1705 30.6964 20.7956 30.6964 16.8308C30.6964 13.1381 31.9403 11.1557 34.2725 11.1557C37.5765 11.1557 39.6756 17.2973 39.6756 21.5342C39.6756 25.1103 38.4317 27.1705 36.3327 27.1705Z" fill="#233441"></path><path d="M58.181 28.8808C63.8561 28.8808 68.0542 24.7605 68.0542 19.2408C68.0542 13.7211 63.584 9.44531 57.5979 9.44531C52.156 9.44531 47.5303 13.4102 47.5303 19.0464C47.5303 24.4495 51.9227 28.8808 58.181 28.8808ZM58.8806 27.1705C55.3434 27.1705 53.2444 20.7956 53.2444 16.8308C53.2444 13.1381 54.4882 11.1557 56.8205 11.1557C60.1245 11.1557 62.2235 17.2973 62.2235 21.5342C62.2235 25.1103 60.9797 27.1705 58.8806 27.1705Z" fill="#233441"></path><path d="M79.807 0C74.7149 0 72.3437 3.26516 72.3437 7.38547V9.83434H69.5839C69.1175 9.83434 68.7676 10.1842 68.7676 10.6118V11.3503C68.7676 11.7779 69.1175 12.0889 69.5839 12.0889H72.3437V24.7219C72.3437 26.3934 70.7889 26.7043 70.7889 27.6761V27.8316C70.7889 28.2203 71.0999 28.4924 71.6052 28.4924H79.185C79.6126 28.4924 79.9236 28.2203 79.9236 27.8316V27.6761C79.9236 26.7043 77.98 26.3934 77.98 24.7219V12.0889H82.1274C82.555 12.0889 82.9048 11.7779 82.9048 11.3503V10.6118C82.9048 10.1842 82.555 9.83434 82.1274 9.83434H77.8245C76.8139 6.84128 75.881 1.63258 78.6797 1.63258C81.7116 1.67145 79.2628 6.56919 83.4997 6.56919C84.9768 6.56919 85.6765 5.4808 85.6765 4.5479C85.6765 2.09903 83.0332 0 79.807 0Z" fill="#233441"></path><path d="M92.3176 28.8826C96.2047 28.8826 98.3036 26.0061 98.3036 23.2074C98.3036 22.4689 97.3708 22.3134 96.9044 22.9742C96.5934 23.8682 95.8159 24.7234 94.2611 24.7234C93.1338 24.7234 92.2786 23.7905 92.2786 22.2357V12.0904H96.7488C97.1764 12.0904 97.5263 11.7794 97.5263 11.3129V10.6521C97.5263 10.1857 97.1764 9.83581 96.7488 9.83581H92.2786L92.2399 5.98759C92.2399 5.40453 91.9289 5.05469 91.3847 5.05469H90.6072C90.1796 5.05469 89.4437 5.6816 89.4437 5.6816L84.558 9.74601C84.558 9.74601 83.8438 10.2545 83.8438 10.6521V11.3129C83.8438 11.7794 84.1546 12.0904 84.6211 12.0904H86.4481V22.1579C86.4481 26.5892 88.7804 28.8826 92.3176 28.8826Z" fill="#233441"></path><path d="M110.034 28.8808C115.709 28.8808 119.907 24.7605 119.907 19.2408C119.907 13.7211 115.437 9.44531 109.451 9.44531C104.009 9.44531 99.3838 13.4102 99.3838 19.0464C99.3838 24.4495 103.776 28.8808 110.034 28.8808ZM110.734 27.1705C107.196 27.1705 105.097 20.7956 105.097 16.8308C105.097 13.1381 106.341 11.1557 108.674 11.1557C111.978 11.1557 114.077 17.2973 114.077 21.5342C114.077 25.1103 112.833 27.1705 110.734 27.1705Z" fill="#233441"></path><path d="M133.632 9.44531C131.222 9.44531 129.278 10.3782 128.229 12.0108L128.268 10.3782C128.268 9.63967 127.879 9.13434 126.79 9.67854L122.437 11.8165C121.97 12.0497 121.659 12.3607 121.659 12.7494V12.9437C121.659 13.9544 123.448 14.071 123.448 15.6647V33.1566C123.448 34.828 121.932 35.139 121.932 36.1108V36.2663C121.932 36.6938 122.281 36.9271 122.826 36.9271H129.861C130.405 36.9271 130.755 36.6938 130.755 36.2663V36.1108C130.755 35.139 129.123 34.828 129.123 33.1566V27.3648C130.289 28.3366 131.766 28.8808 133.671 28.8808C138.529 28.8808 142.728 24.8771 142.728 18.8521C142.728 12.7105 138.141 9.44531 133.632 9.44531ZM133.088 27.2093C131.027 27.2093 129.123 24.7605 129.123 21.6897V14.2653C129.356 12.3995 130.639 11.1168 132.271 11.1168C135.342 11.1168 137.013 16.2866 137.013 21.1843C137.013 25.0714 135.575 27.2093 133.088 27.2093Z" fill="#233441"></path><path d="M154.87 12.8025V11.3789H153.563V12.8025H152.688V13.7832H153.563V15.9029C153.563 16.6938 153.816 17.2738 154.333 17.6534C154.775 18.0014 155.408 18.1701 156.22 18.149V17.1683C155.777 17.1472 155.44 17.0312 155.218 16.8203C154.986 16.6094 154.87 16.3036 154.87 15.9029V13.7832H156.146V12.8025H154.87Z" fill="#233441"></path><path d="M163.437 18.0735L165.335 12.8008H164.006L162.783 16.4812L161.676 12.8008H160.547L159.44 16.4812L158.206 12.8008H156.888L158.786 18.0735H160.105L161.106 14.8361L162.119 18.0735H163.437Z" fill="#233441"></path><path d="M170.223 16.7768C169.674 17.0932 169.116 17.2408 168.546 17.2092C168.124 17.1987 167.787 17.0721 167.513 16.8401C167.239 16.6081 167.08 16.2812 167.017 15.8699H171.13C171.161 15.6801 171.182 15.4692 171.182 15.2478C171.182 14.731 171.077 14.2776 170.877 13.8979C170.676 13.5183 170.37 13.2125 169.97 12.991C169.569 12.7801 169.084 12.6641 168.515 12.6641C167.629 12.6641 166.943 12.9278 166.458 13.455C165.963 13.9823 165.72 14.6361 165.72 15.427C165.72 16.2285 165.963 16.8928 166.469 17.4096C166.964 17.9368 167.66 18.1899 168.546 18.1899C169.474 18.1899 170.212 17.9368 170.771 17.4307L170.223 16.7768ZM167.028 15.1212V15.0474C167.049 14.6361 167.196 14.2987 167.46 14.0456C167.724 13.7925 168.093 13.6554 168.557 13.6554C169.432 13.6554 169.906 14.0245 169.97 14.7627C169.97 14.8259 169.98 14.8998 169.98 14.963V15.1212H167.028Z" fill="#233441"></path><path d="M173.362 12.8012H172.213V18.0739H173.52V14.4252C173.795 14.151 174.027 13.9718 174.227 13.8663C174.427 13.7714 174.649 13.7187 174.891 13.7187C175.239 13.7187 175.535 13.8241 175.777 14.0245C176.02 14.2354 176.146 14.5412 176.146 14.9419V18.0739H177.454V14.6783C177.454 14.3409 177.38 14.0456 177.254 13.7819C177.127 13.5183 176.948 13.3074 176.737 13.1492C176.526 12.991 176.283 12.875 176.03 12.7907C175.777 12.7063 175.514 12.6641 175.239 12.6641C174.881 12.6641 174.575 12.738 174.301 12.875C174.027 13.0121 173.731 13.2125 173.426 13.4867L173.362 12.8012Z" fill="#233441"></path><path d="M180.462 12.8025V11.3789H179.154V12.8025H178.279V13.7832H179.154V15.9029C179.154 16.6938 179.407 17.2738 179.924 17.6534C180.367 18.0014 180.999 18.1701 181.811 18.149V17.1683C181.368 17.1472 181.031 17.0312 180.81 16.8203C180.578 16.6094 180.462 16.3036 180.462 15.9029V13.7832H181.738V12.8025H180.462Z" fill="#233441"></path><path d="M188.227 12.8008H186.898L185.422 16.6815L183.945 12.8008H182.616L184.768 18.0735H184.936L184.704 18.6746C184.557 19.0437 184.346 19.3073 184.093 19.4655C183.808 19.6448 183.407 19.7292 182.891 19.7292V20.6993C183.566 20.6993 184.124 20.5939 184.557 20.383C185.052 20.1299 185.432 19.687 185.696 19.0648L188.227 12.8008Z" fill="#233441"></path><path d="M154.87 22.0291V20.6055H153.563V22.0291H152.688V23.0098H153.563V25.1295C153.563 25.9204 153.816 26.5004 154.333 26.88C154.775 27.228 155.408 27.3967 156.22 27.3756V26.3949C155.777 26.3738 155.44 26.2578 155.218 26.0469C154.986 25.836 154.87 25.5302 154.87 25.1295V23.0098H156.146V22.0291H154.87Z" fill="#233441"></path><path d="M163.437 27.3L165.335 22.0273H164.006L162.783 25.7077L161.676 22.0273H160.547L159.44 25.7077L158.206 22.0273H156.888L158.786 27.3H160.105L161.106 24.0626L162.119 27.3H163.437Z" fill="#233441"></path><path d="M168.631 21.9023C167.724 21.9023 167.007 22.1659 166.49 22.6932C165.973 23.2204 165.72 23.8743 165.72 24.6652C165.72 25.1819 165.825 25.6459 166.047 26.0571C166.258 26.479 166.595 26.8059 167.049 27.059C167.492 27.3121 168.019 27.4281 168.631 27.4281C169.558 27.4281 170.276 27.175 170.782 26.6582C171.288 26.1415 171.552 25.4772 171.552 24.6652C171.552 23.8637 171.288 23.1993 170.771 22.6826C170.244 22.1659 169.537 21.9023 168.631 21.9023ZM168.631 22.9463C169.126 22.9463 169.516 23.1044 169.812 23.3997C170.096 23.7055 170.244 24.1273 170.244 24.6652C170.244 25.2135 170.096 25.6353 169.812 25.9306C169.527 26.2364 169.137 26.3841 168.631 26.3841C168.135 26.3841 167.745 26.2364 167.46 25.9306C167.165 25.6248 167.028 25.203 167.028 24.6652C167.028 24.1379 167.165 23.7161 167.46 23.4103C167.745 23.1044 168.135 22.9463 168.631 22.9463Z" fill="#233441"></path><path fill-rule="evenodd" clip-rule="evenodd" d="M147.67 28.1795V11.5391H148.988V28.1795H147.67Z" fill="#E15047"></path></g><defs><clipPath id="clip0_2091_3906"><rect width="189" height="37" fill="white"></rect></clipPath></defs></svg>