<svg xmlns="http://www.w3.org/2000/svg" width="189" height="37" viewBox="0 0 189 37" fill="none"><path d="M22.33 24.7608L17.238 17.0643C20.7752 15.5872 22.5633 12.633 22.5633 9.60112C22.5244 3.73161 17.7433 0.894032 10.7854 0.894032H1.18426C0.640069 0.894032 0.329102 1.12726 0.329102 1.51597V1.67145C0.329102 2.64322 1.8062 2.99306 1.8062 4.62564V24.7608C1.8062 26.3934 0.329102 26.7432 0.329102 27.715V27.8316C0.329102 28.2592 0.640069 28.4924 1.18426 28.4924H8.49199C9.03619 28.4924 9.4249 28.2592 9.4249 27.8316V27.715C9.4249 26.7432 7.75345 26.3934 7.75345 24.7608V18.075L12.0292 17.9972L16.1107 24.7608C17.0825 26.51 15.2555 26.7432 15.2555 27.715V27.8316C15.2555 28.2592 15.5665 28.4924 16.1107 28.4924H24.2347C24.7789 28.4924 25.1287 28.2592 25.1287 27.8316V27.715C25.1287 26.7432 23.535 26.6266 22.33 24.7608ZM9.93022 15.7038C8.49199 15.7038 7.75345 15.0042 7.75345 13.0995V5.01435C7.75345 3.96483 8.2199 3.26516 9.07506 3.26516H10.3967C13.3897 3.26516 16.4994 5.75289 16.4994 10.2619C16.4994 13.9547 14.4004 15.7038 11.6017 15.7038H9.93022Z" fill="white"></path><path d="M35.6327 28.8811C41.3079 28.8811 45.5059 24.7608 45.5059 19.2411C45.5059 13.7214 41.0358 9.44563 35.0496 9.44563C29.6077 9.44563 24.9821 13.4105 24.9821 19.0467C24.9821 24.4498 29.3745 28.8811 35.6327 28.8811ZM36.3324 27.1708C32.7951 27.1708 30.6961 20.7959 30.6961 16.8311C30.6961 13.1384 31.94 11.156 34.2722 11.156C37.5762 11.156 39.6753 17.2976 39.6753 21.5345C39.6753 25.1106 38.4314 27.1708 36.3324 27.1708Z" fill="white"></path><path d="M58.1809 28.8811C63.856 28.8811 68.0541 24.7608 68.0541 19.2411C68.0541 13.7214 63.5839 9.44563 57.5978 9.44563C52.1559 9.44563 47.5302 13.4105 47.5302 19.0467C47.5302 24.4498 51.9226 28.8811 58.1809 28.8811ZM58.8805 27.1708C55.3433 27.1708 53.2443 20.7959 53.2443 16.8311C53.2443 13.1384 54.4881 11.156 56.8204 11.156C60.1244 11.156 62.2234 17.2976 62.2234 21.5345C62.2234 25.1106 60.9796 27.1708 58.8805 27.1708Z" fill="white"></path><path d="M79.8071 0C74.715 0 72.3438 3.26516 72.3438 7.38547V9.83434H69.584C69.1176 9.83434 68.7677 10.1842 68.7677 10.6118V11.3503C68.7677 11.7779 69.1176 12.0889 69.584 12.0889H72.3438V24.7219C72.3438 26.3934 70.789 26.7043 70.789 27.6761V27.8316C70.789 28.2203 71.1 28.4924 71.6053 28.4924H79.1851C79.6127 28.4924 79.9237 28.2203 79.9237 27.8316V27.6761C79.9237 26.7043 77.9801 26.3934 77.9801 24.7219V12.0889H82.1275C82.5551 12.0889 82.9049 11.7779 82.9049 11.3503V10.6118C82.9049 10.1842 82.5551 9.83434 82.1275 9.83434H77.8246C76.814 6.84128 75.8811 1.63258 78.6798 1.63258C81.7117 1.67145 79.2629 6.56919 83.4998 6.56919C84.9769 6.56919 85.6766 5.4808 85.6766 4.5479C85.6766 2.09903 83.0333 0 79.8071 0Z" fill="white"></path><path d="M92.3171 28.8811C96.2042 28.8811 98.3032 26.0046 98.3032 23.2059C98.3032 22.4674 97.3703 22.3119 96.9039 22.9727C96.5929 23.8667 95.8155 24.7219 94.2607 24.7219C93.1334 24.7219 92.2782 23.789 92.2782 22.2342V12.0889H96.7484C97.176 12.0889 97.5258 11.7779 97.5258 11.3114V10.6506C97.5258 10.1842 97.176 9.83434 96.7484 9.83434H92.2782L92.2394 5.98612C92.2394 5.40306 91.9284 5.05322 91.3842 5.05322H90.6068C90.1792 5.05322 89.4433 5.68013 89.4433 5.68013L84.5575 9.74454C84.5575 9.74454 83.8433 10.253 83.8433 10.6506V11.3114C83.8433 11.7779 84.1542 12.0889 84.6207 12.0889H86.4476V22.1564C86.4476 26.5877 88.7799 28.8811 92.3171 28.8811Z" fill="white"></path><path d="M110.034 28.8811C115.709 28.8811 119.907 24.7608 119.907 19.2411C119.907 13.7214 115.437 9.44563 109.451 9.44563C104.009 9.44563 99.3834 13.4105 99.3834 19.0467C99.3834 24.4498 103.776 28.8811 110.034 28.8811ZM110.734 27.1708C107.196 27.1708 105.097 20.7959 105.097 16.8311C105.097 13.1384 106.341 11.156 108.674 11.156C111.978 11.156 114.077 17.2976 114.077 21.5345C114.077 25.1106 112.833 27.1708 110.734 27.1708Z" fill="white"></path><path d="M133.632 9.44563C131.222 9.44563 129.278 10.3785 128.229 12.0111L128.268 10.3785C128.268 9.63999 127.879 9.13466 126.79 9.67886L122.437 11.8168C121.97 12.05 121.659 12.361 121.659 12.7497V12.944C121.659 13.9547 123.448 14.0713 123.448 15.665V33.1569C123.448 34.8283 121.932 35.1393 121.932 36.1111V36.2666C121.932 36.6941 122.281 36.9274 122.826 36.9274H129.861C130.405 36.9274 130.755 36.6941 130.755 36.2666V36.1111C130.755 35.1393 129.123 34.8283 129.123 33.1569V27.3651C130.289 28.3369 131.766 28.8811 133.671 28.8811C138.529 28.8811 142.728 24.8774 142.728 18.8524C142.728 12.7108 138.141 9.44563 133.632 9.44563ZM133.088 27.2096C131.027 27.2096 129.123 24.7608 129.123 21.69V14.2656C129.356 12.3998 130.639 11.1171 132.271 11.1171C135.342 11.1171 137.013 16.2869 137.013 21.1846C137.013 25.0717 135.575 27.2096 133.088 27.2096Z" fill="white"></path><path d="M154.87 12.8008V11.3772H153.563V12.8008H152.688V13.7815H153.563V15.9012C153.563 16.6921 153.816 17.2721 154.333 17.6517C154.775 17.9997 155.408 18.1684 156.22 18.1473V17.1666C155.777 17.1455 155.44 17.0295 155.218 16.8186C154.986 16.6077 154.87 16.3019 154.87 15.9012V13.7815H156.146V12.8008H154.87Z" fill="white"></path><path d="M163.437 18.0735L165.335 12.8008H164.006L162.783 16.4812L161.676 12.8008H160.547L159.44 16.4812L158.206 12.8008H156.888L158.786 18.0735H160.105L161.106 14.8361L162.119 18.0735H163.437Z" fill="white"></path><path d="M170.223 16.7764C169.674 17.0928 169.116 17.2404 168.546 17.2088C168.124 17.1983 167.787 17.0717 167.513 16.8397C167.239 16.6077 167.08 16.2808 167.017 15.8695H171.13C171.161 15.6797 171.182 15.4688 171.182 15.2474C171.182 14.7306 171.077 14.2772 170.877 13.8975C170.676 13.5179 170.37 13.2121 169.97 12.9906C169.569 12.7797 169.084 12.6637 168.515 12.6637C167.629 12.6637 166.943 12.9274 166.458 13.4546C165.963 13.9819 165.72 14.6357 165.72 15.4266C165.72 16.2281 165.963 16.8924 166.469 17.4092C166.964 17.9364 167.66 18.1895 168.546 18.1895C169.474 18.1895 170.212 17.9364 170.771 17.4303L170.223 16.7764ZM167.028 15.1208V15.047C167.049 14.6357 167.196 14.2983 167.46 14.0452C167.724 13.7921 168.093 13.655 168.557 13.655C169.432 13.655 169.906 14.0241 169.97 14.7623C169.97 14.8255 169.98 14.8994 169.98 14.9626V15.1208H167.028Z" fill="white"></path><path d="M173.362 12.8008H172.213V18.0735H173.52V14.4248C173.795 14.1506 174.027 13.9714 174.227 13.8659C174.427 13.771 174.649 13.7183 174.891 13.7183C175.239 13.7183 175.535 13.8237 175.777 14.0241C176.02 14.235 176.146 14.5408 176.146 14.9415V18.0735H177.454V14.6779C177.454 14.3405 177.38 14.0452 177.254 13.7815C177.127 13.5179 176.948 13.307 176.737 13.1488C176.526 12.9906 176.283 12.8746 176.03 12.7903C175.777 12.7059 175.514 12.6637 175.239 12.6637C174.881 12.6637 174.575 12.7376 174.301 12.8746C174.027 13.0117 173.731 13.2121 173.426 13.4863L173.362 12.8008Z" fill="white"></path><path d="M180.462 12.8008V11.3772H179.154V12.8008H178.279V13.7815H179.154V15.9012C179.154 16.6921 179.407 17.2721 179.924 17.6517C180.367 17.9997 180.999 18.1684 181.811 18.1473V17.1666C181.368 17.1455 181.031 17.0295 180.81 16.8186C180.578 16.6077 180.462 16.3019 180.462 15.9012V13.7815H181.738V12.8008H180.462Z" fill="white"></path><path d="M188.227 12.8008H186.898L185.422 16.6815L183.945 12.8008H182.616L184.768 18.0735H184.936L184.704 18.6746C184.557 19.0437 184.346 19.3073 184.093 19.4655C183.808 19.6448 183.407 19.7292 182.891 19.7292V20.6993C183.566 20.6993 184.124 20.5939 184.557 20.383C185.052 20.1299 185.432 19.687 185.696 19.0648L188.227 12.8008Z" fill="white"></path><path d="M154.87 22.0285V20.6049H153.563V22.0285H152.688V23.0092H153.563V25.1289C153.563 25.9198 153.816 26.4998 154.333 26.8794C154.775 27.2274 155.408 27.3961 156.22 27.375V26.3943C155.777 26.3732 155.44 26.2572 155.218 26.0463C154.986 25.8354 154.87 25.5296 154.87 25.1289V23.0092H156.146V22.0285H154.87Z" fill="white"></path><path d="M163.437 27.3012L165.335 22.0285H164.006L162.783 25.7089L161.676 22.0285H160.547L159.44 25.7089L158.206 22.0285H156.888L158.786 27.3012H160.105L161.106 24.0638L162.119 27.3012H163.437Z" fill="white"></path><path d="M168.631 21.902C167.724 21.902 167.007 22.1656 166.49 22.6929C165.973 23.2201 165.72 23.874 165.72 24.6649C165.72 25.1816 165.825 25.6456 166.047 26.0568C166.258 26.4787 166.595 26.8056 167.049 27.0587C167.492 27.3118 168.019 27.4278 168.631 27.4278C169.558 27.4278 170.276 27.1747 170.782 26.6579C171.288 26.1412 171.552 25.4769 171.552 24.6649C171.552 23.8634 171.288 23.199 170.771 22.6823C170.244 22.1656 169.537 21.902 168.631 21.902ZM168.631 22.946C169.126 22.946 169.516 23.1041 169.812 23.3994C170.096 23.7052 170.244 24.127 170.244 24.6649C170.244 25.2132 170.096 25.635 169.812 25.9303C169.527 26.2361 169.137 26.3838 168.631 26.3838C168.135 26.3838 167.745 26.2361 167.46 25.9303C167.165 25.6245 167.028 25.2027 167.028 24.6649C167.028 24.1376 167.165 23.7158 167.46 23.41C167.745 23.1041 168.135 22.946 168.631 22.946Z" fill="white"></path><path fill-rule="evenodd" clip-rule="evenodd" d="M147.67 28.1802L147.67 11.5398L148.988 11.5398L148.988 28.1802L147.67 28.1802Z" fill="white"></path></svg>