<svg xmlns="http://www.w3.org/2000/svg" width="313" height="269" viewBox="0 0 313 269" fill="none"><path d="M213.963 231.872L164.542 157.175C198.873 142.839 216.228 114.168 216.228 84.7414C215.85 27.7744 169.447 0.235107 101.917 0.235107H8.73441C3.45332 0.235107 0.434082 2.49842 0.434082 6.27062V7.781C0.434082 17.2123 14.7699 20.6065 14.7699 36.4527V231.872C14.7699 247.718 0.434082 251.113 0.434082 260.544V261.676C0.434082 265.826 3.45332 268.09 8.73441 268.09H79.6593C84.9403 268.09 88.714 265.826 88.714 261.676V260.544C88.714 251.113 72.4913 247.718 72.4913 231.872V166.984L113.99 166.23L153.602 231.872C163.033 248.849 145.303 251.113 145.303 260.544V261.676C145.303 265.826 148.321 268.09 153.602 268.09H232.449C237.732 268.09 241.126 265.826 241.126 261.676V260.544C241.126 251.113 225.659 249.982 213.963 231.872ZM93.6171 143.972C79.6592 143.972 72.4913 137.18 72.4913 118.694V40.2249C72.4913 30.0392 77.018 23.2478 85.3183 23.2478H98.1453C127.193 23.2478 157.374 47.3928 157.374 91.1549C157.374 126.995 137.003 143.972 109.84 143.972H93.6171Z" fill="#152835"></path><path d="M266.804 178.531V168.194C266.804 164.714 267.317 161.711 268.339 159.186C269.363 156.662 270.898 154.343 272.944 152.227C274.991 150.044 277.585 147.963 280.723 145.984C283.862 143.937 287.547 141.685 291.777 139.229L295.667 136.977C297.85 135.68 299.385 133.873 300.272 131.552C301.228 129.164 301.33 126.538 300.579 123.671C300.238 122.376 299.658 121.352 298.839 120.602C298.02 119.852 297.098 119.271 296.076 118.862C295.12 118.453 294.097 118.18 293.005 118.043C291.982 117.907 291.06 117.839 290.242 117.839C286.693 117.701 283.931 118.589 281.952 120.499C279.973 122.342 278.983 125.173 278.983 128.994H267.214C267.214 125.582 267.76 122.478 268.851 119.68C269.943 116.883 271.479 114.495 273.457 112.516C275.436 110.469 277.79 108.9 280.519 107.807C283.317 106.648 286.421 106.069 289.833 106.069H290.651C293.313 106.069 295.803 106.41 298.123 107.091C300.442 107.773 302.523 108.763 304.366 110.06C306.208 111.356 307.744 112.925 308.971 114.768C310.268 116.542 311.224 118.555 311.837 120.806C312.519 123.399 312.792 125.992 312.656 128.585C312.519 131.177 311.974 133.633 311.018 135.954C310.131 138.206 308.869 140.321 307.232 142.3C305.663 144.21 303.786 145.814 301.603 147.109L297.816 149.361C293.927 151.681 290.753 153.625 288.297 155.195C285.841 156.764 283.896 158.164 282.463 159.391C281.098 160.62 280.109 161.814 279.496 162.973C278.949 164.066 278.642 165.327 278.574 166.76H312.349V178.531H266.804Z" fill="#152835"></path><path d="M266.804 268.09V257.753C266.804 254.273 267.317 251.27 268.339 248.745C269.363 246.221 270.898 243.902 272.944 241.787C274.991 239.602 277.585 237.521 280.723 235.542C283.862 233.495 287.547 231.244 291.777 228.788L295.667 226.536C297.85 225.239 299.385 223.431 300.272 221.111C301.228 218.723 301.33 216.097 300.579 213.23C300.238 211.935 299.658 210.911 298.839 210.161C298.02 209.409 297.098 208.83 296.076 208.421C295.12 208.012 294.097 207.737 293.005 207.601C291.982 207.465 291.06 207.396 290.242 207.396C286.693 207.26 283.931 208.148 281.952 210.058C279.973 211.901 278.983 214.732 278.983 218.553H267.214C267.214 215.141 267.76 212.037 268.851 209.239C269.943 206.442 271.479 204.054 273.457 202.075C275.436 200.028 277.79 198.459 280.519 197.366C283.317 196.207 286.421 195.626 289.833 195.626H290.651C293.313 195.626 295.803 195.969 298.123 196.65C300.442 197.332 302.523 198.322 304.366 199.618C306.208 200.915 307.744 202.484 308.971 204.327C310.268 206.101 311.224 208.114 311.837 210.365C312.519 212.958 312.792 215.55 312.656 218.144C312.519 220.736 311.974 223.192 311.018 225.512C310.131 227.765 308.869 229.88 307.232 231.859C305.663 233.769 303.786 235.372 301.603 236.668L297.816 238.92C293.927 241.24 290.753 243.184 288.297 244.754C285.841 246.324 283.896 247.723 282.463 248.95C281.098 250.179 280.109 251.372 279.496 252.532C278.949 253.623 278.642 254.886 278.574 256.32H312.349V268.09H266.804Z" fill="#152835"></path></svg>