<?xml version="1.0" encoding="UTF-8"?>
<svg xmlns="http://www.w3.org/2000/svg" width="1264" height="437" viewBox="0 0 1264 437" fill="none">
  <path d="M86.8041 151.036C75.4887 151.036 64.6481 149.374 54.2822 145.971C43.9164 142.569 34.6583 137.663 26.4289 131.254C18.1996 124.844 11.7902 117.01 7.04244 107.673C2.29472 98.4151 0 87.891 0 76.18C0 64.469 2.2156 55.2109 6.72593 46.032C11.2363 36.8531 17.4083 28.9402 25.3211 22.1352C33.234 15.3301 42.4129 10.1076 52.8579 6.46771C63.3029 2.8278 74.46 0.928711 86.4084 0.928711C98.3568 0.928711 101.126 1.40348 106.349 2.43215C111.571 3.46082 116.082 4.64775 119.722 5.99294C123.361 7.33812 126.685 8.60418 129.85 9.63286C132.936 10.7407 136.18 11.2154 139.583 11.2154C142.985 11.2154 142.985 11.0572 144.251 10.8198C145.517 10.5033 146.704 10.2659 147.97 9.94937L148.92 10.5824C148.603 12.0067 148.287 13.5893 147.891 15.251C147.496 16.9127 147.337 18.4953 147.337 20.0778C147.337 24.2717 147.654 28.4655 148.287 32.5801C148.92 36.774 149.553 40.2556 150.265 42.946C150.977 45.7155 151.373 47.1398 151.531 47.2981H144.093C141.007 39.3852 136.734 32.4219 131.353 26.5664C125.894 20.6317 119.563 16.0423 112.283 12.8771C105.004 9.63286 96.7743 8.05028 87.6745 8.05028C78.5747 8.05028 71.6114 9.79112 64.8854 13.3519C58.2386 16.9127 52.5414 21.8186 47.7937 28.0698C43.0459 34.321 39.406 41.6008 36.8739 49.8302C34.3418 58.0595 33.0758 66.7637 33.0758 76.0217C33.0758 85.2798 34.1044 93.5092 36.2409 101.739C38.2982 109.968 41.6216 117.248 46.132 123.578C50.6423 129.908 56.4978 134.893 63.6985 138.533C70.8992 142.173 79.6034 143.914 89.8109 143.914C100.019 143.914 99.3064 143.281 105.241 142.094C111.176 140.907 116.715 138.059 121.858 133.786V101.976C121.858 97.3865 121.146 94.3005 119.642 92.8761C118.139 91.4518 114.657 90.1858 109.039 89.2362L96.6951 86.8624V82.1147H174.004V86.8624L165.379 88.3658C159.84 89.3945 156.279 90.6605 154.696 92.2431C153.114 93.8257 152.402 96.9117 152.402 101.501V142.332L151.452 142.727C149.711 142.332 148.208 142.015 146.942 141.857C145.597 141.698 143.698 141.619 141.245 141.619C138.792 141.619 135.626 142.015 132.303 142.806C128.98 143.598 125.419 144.468 121.7 145.497C117.031 146.763 111.888 148.029 106.27 149.137C100.652 150.323 94.163 150.877 86.8832 150.877L86.8041 151.036Z" fill="#122834"></path>
  <path d="M272.598 151.036C260.491 151.036 249.493 149.136 239.364 145.338C229.315 141.54 220.532 136.239 213.093 129.592C205.655 122.866 199.879 115.111 195.764 106.17C191.65 97.2281 189.592 87.7327 189.592 77.6042C189.592 67.4758 191.65 56.556 195.764 47.2189C199.879 37.9608 205.655 29.8106 213.093 22.9264C220.532 16.0422 229.236 10.6615 239.364 6.78416C249.413 2.98599 260.491 1.08691 272.598 1.08691C284.705 1.08691 295.783 2.98599 306.07 6.78416C316.277 10.5823 325.14 15.8839 332.578 22.689C340.016 29.4941 345.792 37.2487 349.907 46.1111C354.022 54.9735 356.079 64.548 356.079 74.7556C356.079 84.9632 354.022 95.8038 349.907 105.062C345.792 114.32 340.016 122.391 332.578 129.275C325.14 136.159 316.356 141.54 306.07 145.417C295.783 149.295 284.705 151.115 272.598 151.115V151.036ZM272.361 143.835C282.568 143.835 291.431 140.986 298.948 135.21C306.465 129.433 312.321 121.441 316.515 111.076C320.708 100.789 322.766 88.6822 322.766 74.8347C322.766 60.9872 320.708 50.384 316.515 40.3347C312.321 30.2853 306.465 22.4516 298.948 16.7544C291.431 11.0571 282.648 8.20849 272.598 8.20849C262.549 8.20849 254.003 11.0571 246.565 16.7544C239.127 22.4516 233.35 30.4436 229.157 40.8886C224.963 51.2544 222.905 63.5194 222.905 77.6042C222.905 91.6891 224.092 95.883 226.466 103.954C228.84 112.025 232.243 119.068 236.595 125.002C240.947 131.016 246.169 135.605 252.262 138.85C258.355 142.094 265.081 143.677 272.361 143.677V143.835Z" fill="#122834"></path>
  <path d="M449.53 151.035C441.933 151.035 434.653 149.848 427.69 147.475C420.727 145.101 414.476 141.777 408.858 137.425C403.319 133.073 398.887 127.851 395.722 121.758C392.557 115.665 390.974 108.86 390.974 101.58V22.8471C390.974 18.2576 390.183 15.1716 388.68 13.7473C387.097 12.323 383.536 11.0569 377.997 10.1074L365.653 7.73352V3.22318H446.444V7.73352L434.1 10.1074C428.64 11.136 425.158 12.323 423.496 13.7473C421.835 15.1716 421.043 18.1785 421.043 22.8471V100.71C421.043 111.946 424.525 120.887 431.409 127.376C438.293 133.944 448.343 137.188 461.478 137.188C474.613 137.188 476.275 135.605 482.131 132.519C487.986 129.433 492.655 125.16 495.978 119.78C499.301 114.399 500.963 108.148 500.963 101.105V23.2427C500.963 19.3654 499.935 16.5168 497.956 14.6968C495.978 12.8769 492.655 11.5317 487.986 10.6613L471.527 7.65438V3.14404H535.622V7.65438L522.17 10.503C517.501 11.3734 514.178 12.6395 512.199 14.3803C510.221 16.1211 509.193 18.9698 509.193 23.0053V125.081C506.581 125.081 504.207 125.952 502.229 127.772C500.251 129.592 497.877 131.807 495.266 134.339C492.813 136.792 489.727 139.324 486.087 141.936C482.447 144.547 477.699 146.683 471.923 148.424C466.147 150.165 458.629 151.035 449.53 151.035Z" fill="#122834"></path>
  <path d="M704.007 151.906C697.202 151.906 690.871 150.719 685.095 148.345C679.319 145.971 673.701 142.331 668.241 137.504C662.86 132.678 657.4 126.664 652.019 119.463C647.984 113.845 643.948 108.385 639.913 103.163C635.877 97.9401 631.367 93.5089 626.303 90.1064C621.238 86.6247 615.225 84.8839 608.103 84.8839H602.089V128.958C602.089 133.39 602.881 136.397 604.542 137.821C606.204 139.245 609.686 140.59 615.145 141.698L627.489 144.072V148.582H546.699V144.072L559.043 141.698C564.582 140.511 568.143 139.245 569.726 137.821C571.308 136.397 572.02 133.39 572.02 128.958V22.7679C572.02 18.1785 571.229 15.0925 569.726 13.6682C568.143 12.2438 564.582 10.9778 559.043 10.0282L546.699 7.65438V3.14404H611.743C634.532 3.14404 652.257 6.62572 664.996 13.6682C677.736 20.6315 684.146 30.4434 684.146 42.9457C684.146 55.4481 682.009 55.6063 677.657 60.987C673.305 66.3678 667.608 70.7199 660.486 73.9641C653.365 77.2084 645.531 79.2658 637.064 80.1362V80.5318C644.186 80.8483 650.516 82.5891 655.976 85.8334C661.436 89.0777 666.421 93.1924 670.852 98.2566C675.283 103.321 679.556 108.622 683.75 114.241C687.786 119.542 691.821 124.606 695.857 129.275C699.892 133.944 704.007 137.742 708.28 140.511C712.553 143.36 716.905 144.705 721.415 144.705V149.69C715.718 151.115 709.942 151.827 704.244 151.827L704.007 151.906ZM602.089 77.9206H611.585C619.339 77.9206 626.303 76.7336 632.633 74.2807C638.884 71.8277 643.869 68.1877 647.509 63.2818C651.149 58.3758 652.969 52.2829 652.969 44.924C652.969 33.5294 649.092 24.8253 641.337 18.8907C633.582 12.8769 622.663 9.94911 608.578 9.94911H602.089V78.0788V77.9206Z" fill="#122834"></path>
  <path d="M826.419 150.165L769.288 31.0764L762.799 129.038C762.641 132.757 763.591 135.526 765.727 137.267C767.785 139.008 771.187 140.195 775.856 140.907L792.314 144.151V148.662H728.22V144.151L741.91 141.303C744.837 140.749 747.29 139.957 749.11 139.008C750.93 138.058 752.354 136.792 753.146 135.21C754.016 133.627 754.491 131.57 754.649 128.958L761.375 23.0053C761.692 18.4159 760.979 15.3298 759.318 13.8264C757.577 12.323 753.937 11.0569 748.398 10.0282L737.003 7.65438V3.14404L789.466 3.38144L839.159 105.853L883.945 3.14404H938.307V7.65438L926.2 10.0282C920.661 11.0569 917.021 12.323 915.438 13.8264C913.777 15.3298 913.065 18.495 913.223 23.2427L917.417 128.958C917.575 131.965 917.971 134.26 918.604 135.843C919.237 137.425 920.424 138.612 922.164 139.403C923.905 140.195 926.675 140.986 930.394 141.698L942.738 144.072V148.582H862.897V144.072L875.399 141.461C880.543 140.432 883.787 139.245 885.29 137.9C886.794 136.555 887.348 133.864 887.031 129.829L882.6 27.753L829.426 150.086H826.419V150.165Z" fill="#122834"></path>
  <path d="M955.953 148.662V144.151L968.297 141.777C973.836 140.59 977.396 139.324 978.979 137.9C980.562 136.476 981.274 133.469 981.274 129.038V22.847C981.274 18.2576 980.482 15.1716 978.979 13.7473C977.396 12.3229 973.836 11.0569 968.297 10.1073L955.953 7.73348V3.22314H1088.81C1088.33 5.28049 1088.02 7.2587 1087.86 9.15779C1087.7 11.136 1087.62 13.1142 1087.62 15.0924C1087.62 19.6819 1088.02 24.1922 1088.89 28.4652C1089.76 32.8172 1090.47 37.0902 1091.1 41.4423H1086.2C1083.75 35.5076 1080.58 30.206 1076.7 25.4583C1072.83 20.7106 1068.24 16.9124 1062.86 14.1429C1057.47 11.2943 1051.3 9.94907 1044.18 9.94907H1011.42V68.5042H1042.52C1050.43 68.5042 1055.97 67.0799 1059.14 64.1522C1062.3 61.3035 1064.44 57.1888 1065.55 51.8081L1067.37 41.8379H1072.27V101.738H1067.37L1065.31 91.3724C1064.2 86.1499 1062.14 82.1935 1059.06 79.5031C1055.97 76.7336 1050.59 75.3884 1043.07 75.3884H1011.5V124.211C1011.5 128.246 1011.82 131.57 1012.45 134.26C1013.08 136.95 1014.51 138.85 1016.72 140.116C1018.94 141.303 1022.74 141.936 1027.96 141.936H1046.08C1051.62 141.936 1056.68 141.065 1061.27 139.324C1065.86 137.583 1069.98 135.289 1073.62 132.44C1077.26 129.592 1080.5 126.189 1083.27 122.312L1092.53 109.809H1097.43C1095.69 116.14 1094.35 122.628 1093.24 129.196C1092.13 135.764 1091.58 142.252 1091.58 148.741H955.953V148.662Z" fill="#122834"></path>
  <path d="M1144.52 148.662V144.151L1156.86 141.777C1162.4 140.59 1165.96 139.324 1167.54 137.9C1169.13 136.476 1169.84 133.469 1169.84 129.038V9.94907H1151.95C1144.99 9.94907 1138.82 11.5317 1133.52 14.7759C1128.22 18.0202 1123.71 22.2931 1120.07 27.5156C1116.43 32.8172 1113.74 38.5936 1112.07 44.9239H1106.06C1107.01 40.7301 1107.8 36.2198 1108.51 31.3929C1109.22 26.5661 1109.62 21.7392 1109.7 16.9124C1109.7 12.0856 1109.54 7.49609 1108.91 3.22314H1261.23C1260.6 7.57522 1260.36 12.0856 1260.44 16.9124C1260.44 21.7392 1260.91 26.5661 1261.71 31.3929C1262.5 36.2198 1263.29 40.7301 1264 44.9239H1257.99C1256.25 38.5936 1253.63 32.8172 1249.99 27.5156C1246.35 22.2931 1241.84 18.0202 1236.54 14.7759C1231.24 11.5317 1225.07 9.94907 1218.11 9.94907H1200.22V129.038C1200.22 133.469 1201.01 136.476 1202.68 137.9C1204.34 139.324 1207.82 140.67 1213.28 141.777L1225.62 144.151V148.662H1144.83H1144.52Z" fill="#122834"></path>
  <path d="M4.74761 281.597V278.591L12.4231 277.087C15.9047 276.375 18.1203 275.505 19.0699 274.634C20.0194 273.685 20.4942 271.865 20.4942 269.016V201.994C20.4942 199.066 20.0194 197.167 19.0699 196.218C18.1203 195.268 15.9047 194.556 12.4231 193.923L4.74761 192.419V189.413H90.6813C90.3647 190.679 90.2065 191.945 90.0482 193.211C89.9691 194.477 89.89 195.664 89.89 197.009C89.89 199.858 90.1274 202.627 90.6021 205.317C91.0769 208.008 91.6308 210.856 92.1056 213.784H88.7822C87.5952 211.015 86.0918 208.483 84.2718 206.109C82.4519 203.735 80.4737 201.678 78.1789 199.858C75.9633 198.038 73.3521 196.692 70.5035 195.585C67.6548 194.556 64.5688 194.002 61.2454 194.002H41.3842V233.487H60.6124C64.0149 233.487 66.7053 233.092 68.7626 232.221C70.7409 231.43 72.3234 230.243 73.3521 228.66C74.3808 227.078 75.0929 225.258 75.5677 223.042L76.7546 216.712H80.078V254.694H76.7546L75.4094 248.126C75.0138 245.91 74.3016 244.09 73.1938 242.587C72.1652 241.084 70.6617 239.976 68.6835 239.184C66.7053 238.393 64.1732 237.998 60.9289 237.998H41.3842V269.095C41.3842 271.944 41.8589 273.843 42.8876 274.792C43.9163 275.742 46.0527 276.533 49.5344 277.166L58.2385 278.67V281.677H4.58936L4.74761 281.597Z" fill="#122834"></path>
  <path d="M155.567 283.101C147.733 283.101 140.611 281.914 134.123 279.461C127.634 277.008 121.937 273.685 117.189 269.491C112.362 265.218 108.643 260.312 106.032 254.615C103.342 248.918 102.076 242.904 102.076 236.495C102.076 230.085 103.421 223.122 106.032 217.266C108.722 211.332 112.442 206.267 117.189 201.836C122.016 197.484 127.634 194.082 134.123 191.629C140.611 189.176 147.812 187.989 155.567 187.989C163.321 187.989 170.601 189.176 177.169 191.629C183.816 194.082 189.513 197.405 194.26 201.678C199.087 205.951 202.806 210.936 205.418 216.554C208.108 222.172 209.374 228.265 209.374 234.754C209.374 241.242 208.029 248.126 205.418 253.982C202.727 259.838 199.008 264.981 194.26 269.333C189.513 273.685 183.736 277.088 177.169 279.541C170.522 281.993 163.321 283.18 155.567 283.18V283.101ZM155.567 278.354C161.897 278.354 167.357 276.534 171.946 272.973C176.536 269.412 180.096 264.348 182.708 257.859C185.24 251.292 186.506 243.695 186.506 234.912C186.506 226.129 185.24 219.324 182.708 212.993C180.176 206.663 176.536 201.757 171.946 198.196C167.357 194.636 161.897 192.816 155.567 192.816C149.236 192.816 144.093 194.636 139.504 198.196C134.914 201.757 131.353 206.821 128.742 213.31C126.21 219.878 124.944 227.553 124.944 236.574C124.944 245.594 125.656 248.285 127.159 253.428C128.584 258.571 130.72 263.003 133.411 266.722C136.101 270.441 139.345 273.368 143.064 275.347C146.783 277.325 150.977 278.354 155.646 278.354H155.567Z" fill="#122834"></path>
  <path d="M278.849 283.101C271.015 283.101 263.894 281.914 257.405 279.461C250.916 277.008 245.219 273.685 240.471 269.491C235.645 265.218 231.926 260.312 229.314 254.615C226.624 248.918 225.358 242.904 225.358 236.495C225.358 230.085 226.703 223.122 229.314 217.266C232.005 211.332 235.724 206.267 240.471 201.836C245.298 197.484 250.916 194.082 257.405 191.629C263.894 189.176 271.094 187.989 278.849 187.989C286.603 187.989 293.883 189.176 300.451 191.629C307.098 194.082 312.795 197.405 317.543 201.678C322.37 205.951 326.089 210.936 328.7 216.554C331.39 222.172 332.656 228.265 332.656 234.754C332.656 241.242 331.311 248.126 328.7 253.982C326.009 259.838 322.29 264.981 317.543 269.333C312.795 273.685 307.019 277.088 300.451 279.541C293.804 281.993 286.603 283.18 278.849 283.18V283.101ZM278.849 278.354C285.179 278.354 290.639 276.534 295.228 272.973C299.818 269.412 303.379 264.348 305.99 257.859C308.522 251.292 309.788 243.695 309.788 234.912C309.788 226.129 308.522 219.324 305.99 212.993C303.458 206.663 299.818 201.757 295.228 198.196C290.639 194.636 285.179 192.816 278.849 192.816C272.519 192.816 267.375 194.636 262.786 198.196C258.196 201.757 254.635 206.821 252.024 213.31C249.492 219.878 248.226 227.553 248.226 236.574C248.226 245.594 248.938 248.285 250.442 253.428C251.866 258.571 254.002 263.003 256.693 266.722C259.383 270.441 262.627 273.368 266.347 275.347C270.066 277.325 274.259 278.354 278.928 278.354H278.849Z" fill="#122834"></path>
  <path d="M341.835 281.597V278.591L349.511 277.087C352.993 276.375 355.208 275.505 356.158 274.634C357.107 273.685 357.582 271.865 357.582 269.016V201.994C357.582 199.066 357.107 197.167 356.158 196.218C355.208 195.268 352.993 194.556 349.511 193.923L341.835 192.419V189.413H394.219C402.052 189.413 409.253 190.6 415.979 192.973C422.705 195.347 428.56 198.591 433.466 202.785C438.451 206.979 442.25 211.727 445.019 217.266C447.789 222.726 449.134 228.66 449.134 234.912C449.134 241.163 447.789 247.73 445.177 253.428C442.487 259.125 438.768 264.031 434.02 268.304C429.193 272.577 423.496 275.821 416.929 278.195C410.282 280.49 403.081 281.677 395.326 281.677H341.835V281.597ZM392.161 277.087C399.045 277.087 405.059 275.346 410.123 271.865C415.188 268.383 419.144 263.477 421.914 257.147C424.683 250.816 426.107 243.299 426.107 234.753C426.107 226.207 424.683 219.481 421.914 213.309C419.144 207.137 415.188 202.311 410.123 198.829C405.059 195.347 399.045 193.606 392.161 193.606H378.63V269.016C378.63 271.706 379.817 273.685 382.112 275.03C384.407 276.375 387.73 277.087 392.161 277.087Z" fill="#122834"></path>
  <path d="M499.539 281.597V278.591L507.214 277.087C510.696 276.375 512.911 275.505 513.861 274.634C514.81 273.685 515.285 271.865 515.285 269.016V201.994C515.285 200.095 515.048 198.591 514.652 197.642C514.257 196.613 513.465 195.901 512.357 195.347C511.17 194.872 509.509 194.398 507.214 193.923L499.539 192.419V189.413H546.383C555.562 189.413 563.474 190.6 569.963 192.973C576.452 195.347 581.437 198.671 584.918 202.944C588.4 207.217 590.062 212.123 590.062 217.662C590.062 223.201 589.033 226.049 586.897 229.452C584.76 232.854 581.991 235.624 578.509 237.918C575.027 240.134 571.15 241.875 567.035 243.062C562.841 244.249 558.727 244.961 554.612 245.119C550.497 245.277 546.778 244.961 543.534 244.17L543.376 243.22C547.965 242.983 552.238 241.954 556.116 240.371C559.993 238.789 563.158 236.098 565.532 232.459C567.906 228.819 569.093 224.071 569.093 218.136C569.093 209.432 566.64 203.26 561.813 199.541C556.986 195.822 550.26 194.002 541.793 194.002H536.413V269.095C536.413 271.944 536.887 273.843 537.916 274.871C538.945 275.9 541.081 276.691 544.563 277.166L553.583 278.67V281.677H499.697L499.539 281.597Z" fill="#122834"></path>
  <path d="M581.12 281.598V278.591L589.824 276.771C592.04 276.296 593.702 275.663 594.888 274.793C596.075 273.922 596.946 272.735 597.658 271.311L628.281 205.08L623.612 194.556C626.777 194.477 629.547 193.923 631.683 192.815C633.899 191.787 635.561 190.6 636.668 189.255C637.776 187.909 638.33 186.802 638.33 185.931H640.467L679.793 273.131C680.268 274.239 681.06 275.03 682.167 275.584C683.275 276.138 685.016 276.613 687.39 277.087L695.065 278.591V281.598H642.524V278.591L650.199 277.087C652.415 276.613 653.998 276.059 655.105 275.346C656.134 274.634 656.688 273.764 656.688 272.498C656.688 271.232 656.688 271.548 656.451 271.153C656.292 270.678 656.134 270.203 655.897 269.649L629.151 208.483H632.475L603.355 271.39C603.276 271.627 603.197 271.944 603.118 272.181C603.118 272.419 603.118 272.656 603.118 272.893C603.118 273.685 603.434 274.476 604.147 275.109C604.859 275.742 605.966 276.217 607.628 276.454L620.526 278.512V281.518H581.199L581.12 281.598ZM612.772 250.658V246.148H655.58V250.658H612.772Z" fill="#122834"></path>
  <path d="M800.702 283.655C796.508 283.655 792.473 282.943 788.675 281.597C784.877 280.252 781.157 278.037 777.597 275.03C773.957 272.023 770.396 268.066 766.756 263.24C764.224 259.758 761.692 256.355 759.081 253.032C756.469 249.709 753.621 246.939 750.456 244.644C747.29 242.429 743.492 241.321 739.14 241.321H735.659V269.016C735.659 271.865 736.133 273.685 737.162 274.634C738.191 275.584 740.327 276.375 743.809 277.087L751.484 278.591V281.597H698.943V278.591L706.618 277.087C710.1 276.375 712.316 275.505 713.265 274.634C714.215 273.685 714.689 271.865 714.689 269.016V201.994C714.689 199.066 714.215 197.167 713.265 196.218C712.316 195.268 710.1 194.556 706.618 193.923L698.943 192.419V189.413H741.039C756.074 189.413 767.785 191.628 776.252 195.98C784.718 200.332 788.912 206.583 788.912 214.655C788.912 222.726 787.488 222.647 784.639 226.128C781.791 229.531 777.992 232.3 773.324 234.437C768.655 236.573 763.433 237.839 757.815 238.393V238.631C762.404 238.789 766.519 239.897 770.159 241.954C773.799 244.011 777.043 246.623 779.971 249.788C782.898 252.953 785.668 256.276 788.279 259.837C790.89 263.24 793.502 266.405 796.113 269.332C798.724 272.26 801.414 274.634 804.184 276.375C806.953 278.195 809.802 279.065 812.651 279.065V282.389C808.615 283.338 804.659 283.734 800.781 283.734L800.702 283.655ZM735.659 236.811H740.881C745.708 236.811 750.139 236.019 754.175 234.516C758.21 233.012 761.454 230.718 763.828 227.632C766.202 224.546 767.468 220.668 767.468 215.921C767.468 208.72 765.015 203.181 760.03 199.462C755.045 195.743 748.003 193.844 738.903 193.844H735.579V236.731L735.659 236.811Z" fill="#122834"></path>
  <path d="M816.291 281.597V278.591L823.966 277.087C827.448 276.375 829.663 275.505 830.613 274.634C831.562 273.685 832.037 271.865 832.037 269.016V201.994C832.037 199.066 831.562 197.167 830.613 196.218C829.663 195.268 827.448 194.556 823.966 193.923L816.291 192.419V189.413H868.832V192.419L861.156 193.923C857.754 194.556 855.538 195.347 854.51 196.218C853.481 197.167 853.006 199.066 853.006 201.994V269.016C853.006 271.469 853.718 273.447 855.222 274.871C856.646 276.296 859.416 277.087 863.372 277.087H882.284C886.082 277.087 889.405 276.691 892.333 275.821C895.261 274.951 897.793 273.605 900.009 271.865C902.224 270.045 904.123 267.829 905.864 265.218L912.907 254.694H916.23C915.201 258.729 914.252 263.16 913.302 268.066C912.353 272.972 911.878 277.483 911.878 281.677H816.211L816.291 281.597Z" fill="#122834"></path>
  <path d="M975.26 283.101C967.426 283.101 960.305 281.914 953.816 279.461C947.328 277.008 941.63 273.685 936.883 269.491C932.135 265.297 928.337 260.312 925.725 254.615C923.035 248.918 921.769 242.904 921.769 236.495C921.769 230.085 923.114 223.122 925.725 217.266C928.416 211.332 932.135 206.267 936.883 201.836C941.63 197.405 947.328 194.082 953.816 191.629C960.305 189.176 967.505 187.989 975.26 187.989C983.015 187.989 990.294 189.176 996.862 191.629C1003.51 194.082 1009.21 197.405 1013.95 201.678C1018.78 205.951 1022.5 210.936 1025.11 216.554C1027.8 222.172 1029.07 228.265 1029.07 234.754C1029.07 241.242 1027.72 248.126 1025.11 253.982C1022.42 259.838 1018.7 264.981 1013.95 269.333C1009.13 273.685 1003.43 277.088 996.862 279.541C990.215 281.993 983.015 283.18 975.26 283.18V283.101ZM975.26 278.354C981.59 278.354 987.05 276.534 991.64 272.973C996.229 269.412 999.79 264.348 1002.4 257.859C1004.93 251.292 1006.2 243.695 1006.2 234.912C1006.2 226.129 1004.93 219.324 1002.4 212.993C999.869 206.663 996.229 201.757 991.64 198.196C987.05 194.636 981.59 192.816 975.26 192.816C968.93 192.816 963.786 194.636 959.197 198.196C954.607 201.757 951.047 206.821 948.435 213.31C945.903 219.878 944.637 227.553 944.637 236.574C944.637 245.594 945.349 248.285 946.853 253.428C948.277 258.571 950.414 263.003 953.104 266.722C955.794 270.441 959.039 273.368 962.758 275.347C966.477 277.325 970.671 278.354 975.339 278.354H975.26Z" fill="#122834"></path>
  <path d="M1088.33 283.101C1083.51 283.101 1078.84 282.31 1074.33 280.807C1069.74 279.303 1065.7 277.167 1061.99 274.397C1058.35 271.628 1055.42 268.383 1053.36 264.585C1051.22 260.787 1050.19 256.593 1050.19 252.004V201.836C1050.19 198.909 1049.72 197.009 1048.77 196.06C1047.82 195.11 1045.61 194.398 1042.12 193.765L1034.45 192.262V189.255H1086.99V192.262L1079.31 193.765C1075.91 194.398 1073.7 195.19 1072.67 196.06C1071.64 197.009 1071.16 198.909 1071.16 201.836V251.292C1071.16 258.176 1073.3 263.557 1077.65 267.592C1081.93 271.628 1088.33 273.606 1096.88 273.606C1105.43 273.606 1106.06 272.656 1109.78 270.757C1113.5 268.858 1116.43 266.326 1118.56 263.003C1120.7 259.679 1121.81 255.96 1121.81 251.766V201.757C1121.81 199.462 1121.09 197.722 1119.75 196.614C1118.4 195.506 1116.35 194.636 1113.66 194.24L1102.66 192.183V189.176H1143.96V192.183L1135.26 194.003C1132.57 194.557 1130.51 195.348 1129.17 196.456C1127.82 197.563 1127.11 199.304 1127.11 201.836V266.564C1125.53 266.564 1124.1 267.117 1122.83 268.304C1121.57 269.412 1120.14 270.757 1118.4 272.34C1116.82 273.922 1114.84 275.505 1112.47 277.167C1110.1 278.828 1107.01 280.174 1103.13 281.361C1099.25 282.468 1094.27 283.101 1088.18 283.101H1088.33Z" fill="#122834"></path>
  <path d="M1251.89 283.655C1247.7 283.655 1243.66 282.943 1239.87 281.597C1236.07 280.252 1232.35 278.037 1228.79 275.03C1225.15 272.023 1221.59 268.066 1217.95 263.24C1215.42 259.758 1212.88 256.355 1210.27 253.032C1207.66 249.709 1204.81 246.939 1201.65 244.644C1198.48 242.429 1194.68 241.321 1190.33 241.321H1186.85V269.016C1186.85 271.865 1187.32 273.685 1188.35 274.634C1189.38 275.584 1191.52 276.375 1195 277.087L1202.68 278.591V281.597H1150.13V278.591L1157.81 277.087C1161.29 276.375 1163.51 275.505 1164.46 274.634C1165.41 273.685 1165.88 271.865 1165.88 269.016V201.994C1165.88 199.066 1165.41 197.167 1164.46 196.218C1163.51 195.268 1161.29 194.556 1157.81 193.923L1150.13 192.419V189.413H1192.23C1207.27 189.413 1218.98 191.628 1227.44 195.98C1235.91 200.332 1240.1 206.583 1240.1 214.655C1240.1 222.726 1238.68 222.647 1235.83 226.128C1232.98 229.531 1229.18 232.3 1224.52 234.437C1219.85 236.573 1214.62 237.839 1209.01 238.393V238.631C1213.6 238.789 1217.71 239.897 1221.35 241.954C1224.99 244.011 1228.23 246.623 1231.16 249.788C1234.09 252.953 1236.86 256.276 1239.47 259.837C1242.08 263.24 1244.69 266.405 1247.3 269.332C1249.92 272.26 1252.61 274.634 1255.38 276.375C1258.14 278.195 1260.99 279.065 1263.84 279.065V282.389C1259.81 283.338 1255.85 283.734 1251.97 283.734L1251.89 283.655ZM1186.85 236.811H1192.07C1196.9 236.811 1201.33 236.019 1205.37 234.516C1209.4 233.012 1212.65 230.718 1215.02 227.632C1217.39 224.546 1218.66 220.668 1218.66 215.921C1218.66 208.72 1216.21 203.181 1211.22 199.462C1206.24 195.743 1199.19 193.844 1190.09 193.844H1186.77V236.731L1186.85 236.811Z" fill="#122834"></path>
  <path d="M278.691 435.266L269.275 422.051C268.246 422.13 267.138 422.209 265.952 422.209H254.953V435.266H250.601V394.198H265.952C276.397 394.198 282.727 399.499 282.727 408.283C282.727 417.066 279.324 419.281 273.311 421.181L283.36 435.266H278.612H278.691ZM278.454 408.283C278.454 401.715 274.102 397.996 265.872 397.996H254.953V418.569H265.872C274.102 418.569 278.454 414.771 278.454 408.283Z" fill="#122834"></path>
  <path d="M322.053 431.546V435.266H293.013V394.198H321.183V397.917H297.365V412.556H318.572V416.275H297.365V431.546H322.053Z" fill="#122834"></path>
  <path d="M328.384 430.281L330.046 426.957C332.973 429.806 338.196 431.942 343.576 431.942C351.252 431.942 354.575 428.698 354.575 424.663C354.575 413.426 329.254 420.31 329.254 405.118C329.254 389.925 333.923 393.881 344.368 393.881C354.813 393.881 353.784 395.227 357.107 397.521L355.604 401.003C352.122 398.708 348.008 397.601 344.368 397.601C336.851 397.601 333.527 400.924 333.527 405.039C333.527 416.275 358.848 409.47 358.848 424.425C358.848 439.38 354.021 435.661 343.576 435.661C333.132 435.661 331.391 433.525 328.305 430.36L328.384 430.281Z" fill="#122834"></path>
  <path d="M375.782 397.996H361.38V394.277H394.614V397.996H380.213V435.266H375.861V397.996H375.782Z" fill="#122834"></path>
  <path d="M425.158 424.346H402.29L397.384 435.345H392.874L411.627 394.277H415.9L434.653 435.345H430.064L425.158 424.346ZM423.575 420.785L413.684 398.708L403.793 420.785H423.496H423.575Z" fill="#122834"></path>
  <path d="M440.192 417.778V394.277H444.544V417.62C444.544 427.353 449.134 431.784 457.126 431.784C465.118 431.784 469.707 427.353 469.707 417.62V394.277H473.901V417.778C473.901 429.568 467.571 435.661 457.047 435.661C446.523 435.661 440.113 429.568 440.113 417.778H440.192Z" fill="#122834"></path>
  <path d="M515.048 435.266L505.632 422.051C504.603 422.13 503.495 422.209 502.308 422.209H491.31V435.266H486.958V394.198H502.308C512.753 394.198 519.084 399.499 519.084 408.283C519.084 417.066 515.681 419.281 509.667 421.181L519.717 435.266H514.969H515.048ZM514.811 408.283C514.811 401.715 510.459 397.996 502.229 397.996H491.31V418.569H502.229C510.459 418.569 514.811 414.771 514.811 408.283Z" fill="#122834"></path>
  <path d="M555.166 424.346H532.298L527.392 435.345H522.882L541.635 394.277H545.908L564.662 435.345H560.072L555.166 424.346ZM553.584 420.785L543.693 398.708L533.802 420.785H553.505H553.584Z" fill="#122834"></path>
  <path d="M605.809 394.198V435.266H602.248L575.819 401.952V435.266H571.467V394.198H575.028L601.457 427.511V394.198H605.729H605.809Z" fill="#122834"></path>
  <path d="M627.173 397.996H612.772V394.277H646.006V397.996H631.605V435.266H627.252V397.996H627.173Z" fill="#122834"></path>
  <path d="M648.222 430.281L649.883 426.957C652.811 429.806 658.034 431.942 663.414 431.942C671.09 431.942 674.413 428.698 674.413 424.663C674.413 413.426 649.092 420.31 649.092 405.118C649.092 389.925 653.761 393.881 664.206 393.881C674.651 393.881 673.622 395.227 676.945 397.521L675.442 401.003C671.96 398.708 667.846 397.601 664.206 397.601C656.688 397.601 653.365 400.924 653.365 405.039C653.365 416.275 678.686 409.47 678.686 424.425C678.686 439.38 673.859 435.661 663.414 435.661C652.969 435.661 651.229 433.525 648.143 430.36L648.222 430.281Z" fill="#122834"></path>
  <path d="M701.238 419.203C701.238 416.671 703.216 414.771 705.669 414.771C708.122 414.771 710.1 416.671 710.1 419.203C710.1 421.735 708.043 423.713 705.669 423.713C703.295 423.713 701.238 421.814 701.238 419.203Z" fill="#122834"></path>
  <path d="M732.652 414.771C732.652 402.744 741.831 393.881 754.175 393.881C766.519 393.881 765.569 395.86 769.209 399.895L766.44 402.665C763.116 399.262 759.002 397.759 754.333 397.759C744.442 397.759 737.004 405.038 737.004 414.771C737.004 424.504 744.442 431.784 754.333 431.784C764.224 431.784 763.116 430.281 766.44 426.878L769.209 429.647C765.569 433.604 760.189 435.661 754.096 435.661C741.752 435.661 732.652 426.799 732.652 414.771Z" fill="#122834"></path>
  <path d="M803.156 424.346H780.287L775.381 435.345H770.871L789.625 394.277H793.897L812.651 435.345H808.062L803.156 424.346ZM801.573 420.785L791.682 398.708L781.791 420.785H801.494H801.573Z" fill="#122834"></path>
  <path d="M825.391 397.996H810.989V394.277H844.223V397.996H829.822V435.266H825.47V397.996H825.391Z" fill="#122834"></path>
  <path d="M880.148 431.546V435.266H851.107V394.198H879.277V397.917H855.459V412.556H876.666V416.275H855.459V431.546H880.148Z" fill="#122834"></path>
  <path d="M918.367 435.266L908.95 422.051C907.922 422.13 906.814 422.209 905.627 422.209H894.628V435.266H890.276V394.198H905.627C916.072 394.198 922.402 399.499 922.402 408.283C922.402 417.066 919 419.281 912.986 421.181L923.035 435.266H918.287H918.367ZM918.129 408.283C918.129 401.715 913.777 397.996 905.548 397.996H894.628V418.569H905.548C913.777 418.569 918.129 414.771 918.129 408.283Z" fill="#122834"></path>
  <path d="M932.768 394.198H937.12V435.266H932.768V394.198Z" fill="#122834"></path>
  <path d="M984.755 394.198V435.266H981.195L954.766 401.952V435.266H950.414V394.198H953.974L980.403 427.511V394.198H984.676H984.755Z" fill="#122834"></path>
  <path d="M1027.09 414.771H1031.28V430.439C1027.41 433.92 1021.87 435.661 1016.17 435.661C1003.67 435.661 994.488 426.799 994.488 414.771C994.488 402.744 1003.67 393.881 1016.17 393.881C1028.67 393.881 1027.8 395.86 1031.44 399.816L1028.75 402.585C1025.27 399.183 1021.15 397.759 1016.41 397.759C1006.28 397.759 998.84 404.959 998.84 414.771C998.84 424.583 1006.28 431.784 1016.41 431.784C1026.54 431.784 1024 430.914 1027.17 428.619V414.771H1027.09Z" fill="#122834"></path>
</svg>
