<?xml version="1.0" encoding="UTF-8"?>
<svg xmlns="http://www.w3.org/2000/svg" width="1956" height="409" viewBox="0 0 1956 409" fill="none">
  <path d="M266.201 255.697C266.086 258.011 266.457 260.324 267.291 262.486C268.124 264.648 269.401 266.611 271.039 268.25C272.678 269.888 274.641 271.165 276.803 271.999C278.965 272.832 281.278 273.204 283.592 273.089H228.537C231.723 273.001 234.849 272.209 237.693 270.77C242.531 268.811 245.689 263.414 245.689 255.697V164.978C245.689 156.981 242.491 151.544 237.693 149.945C234.864 148.463 231.73 147.655 228.537 147.586H283.592C281.269 147.433 278.939 147.778 276.759 148.597C274.58 149.417 272.601 150.693 270.954 152.34C269.308 153.986 268.032 155.966 267.212 158.145C266.392 160.325 266.048 162.654 266.201 164.978V255.697Z" fill="#1A5632"></path>
  <path d="M364.077 199.762C364.198 200.959 364.072 202.168 363.707 203.315C363.342 204.461 362.745 205.521 361.954 206.428C361.164 207.335 360.195 208.07 359.109 208.587C358.023 209.105 356.842 209.394 355.64 209.437C349.563 210.157 346.165 203.52 344.005 201.761C338.088 197.443 331.451 200.122 324.454 209.757V260.175C324.383 262.121 324.77 264.057 325.582 265.828C326.394 267.598 327.611 269.154 329.132 270.37C332.124 272.098 335.513 273.021 338.968 273.049H293.268C295.772 273.036 298.253 272.562 300.585 271.649C302.81 270.731 304.678 269.117 305.91 267.048C307.143 264.98 307.673 262.569 307.421 260.175V211.796C307.421 205.159 304.023 202.64 299.905 203.36L324.454 188.487V208.478C330.731 196.483 342.565 188.487 353.321 189.127C354.742 189.053 356.163 189.277 357.494 189.784C358.824 190.291 360.034 191.069 361.046 192.07C362.058 193.071 362.85 194.272 363.372 195.596C363.894 196.921 364.134 198.34 364.077 199.762V199.762ZM323.175 211.756H323.374H323.175Z" fill="#1A5632"></path>
  <path d="M400.82 259.135C400.82 265.573 403.339 269.891 406.937 271.49C409.234 272.539 411.728 273.084 414.253 273.089H369.674C372.26 273.058 374.814 272.514 377.19 271.49C379.482 270.412 381.375 268.636 382.596 266.417C383.817 264.198 384.304 261.649 383.987 259.135V212.317C383.987 204.6 379.709 202.481 375.591 203.72L400.86 188.487L400.82 259.135ZM391.504 179.851C390.146 179.851 388.802 179.581 387.549 179.057C386.297 178.533 385.162 177.764 384.209 176.797C383.256 175.83 382.506 174.682 382.001 173.422C381.496 172.162 381.247 170.813 381.268 169.456C381.252 168.1 381.505 166.754 382.012 165.496C382.519 164.238 383.269 163.093 384.221 162.127C385.172 161.16 386.306 160.392 387.556 159.866C388.806 159.339 390.147 159.066 391.504 159.061C394.257 159.071 396.896 160.17 398.843 162.117C400.79 164.064 401.889 166.702 401.899 169.456C401.868 172.203 400.762 174.829 398.82 176.772C396.877 178.715 394.251 179.82 391.504 179.851V179.851Z" fill="#1A5632"></path>
  <path d="M488.3 216.434C481.143 202.12 468.069 191.685 455.675 191.525C447.958 191.525 443.12 195.843 442.601 201.761C442.241 206.758 442.96 215.714 464.271 222.351C486.501 229.348 493.858 237.065 494.058 248.54C494.164 255.537 491.522 262.298 486.701 267.371C481.863 272.569 474.307 275.368 464.111 275.368C459.216 275.401 454.337 274.796 449.597 273.568C445.995 272.821 442.454 271.805 439.003 270.53C435.942 269.267 432.952 267.839 430.047 266.252L429.687 240.423C434.016 250.024 440.818 258.303 449.397 264.412C455.618 268.8 462.947 271.349 470.548 271.769C477.745 271.769 482.023 269.25 483.462 263.773C485.781 254.657 478.824 246.221 458.714 239.784C438.603 233.346 431.486 224.71 431.646 213.236C431.637 209.959 432.349 206.72 433.731 203.749C435.112 200.778 437.13 198.148 439.642 196.043C446.236 190.795 454.54 188.175 462.952 188.687C471.99 188.202 480.916 190.857 488.22 196.203L488.3 216.434Z" fill="#1A5632"></path>
  <path d="M533.6 259.136C533.359 261.709 533.941 264.292 535.263 266.513C536.585 268.733 538.58 270.477 540.957 271.491C543.502 272.508 546.212 273.05 548.953 273.09H501.254C503.994 273.047 506.704 272.505 509.25 271.491C511.62 270.466 513.607 268.721 514.927 266.503C516.248 264.285 516.836 261.707 516.607 259.136V169.296C516.607 157.822 509.97 159.621 508.171 159.781L533.44 144.388L533.6 259.136ZM588.815 259.136C588.815 265.573 591.334 269.891 594.932 271.491C597.174 272.535 599.615 273.08 602.088 273.09H558.508C560.932 273.094 563.324 272.547 565.505 271.491C569.503 269.891 571.783 265.573 571.783 259.136V229.709C571.783 224.512 571.783 220.913 571.783 218.594C571.776 216.006 571.535 213.423 571.063 210.878C571.007 208.75 570.329 206.686 569.114 204.938C567.899 203.191 566.2 201.837 564.226 201.042C559.818 199.237 554.89 199.166 550.432 200.842C544.819 202.385 539.698 205.345 535.559 209.438C540.096 203.73 545.622 198.881 551.872 195.125C557.96 190.955 565.315 189.046 572.662 189.727C575.865 189.76 578.975 190.802 581.552 192.704C584.129 194.606 586.041 197.272 587.016 200.322C587.913 202.479 588.401 204.784 588.455 207.119C588.455 210.158 588.815 212.517 588.815 214.116C588.815 215.716 588.815 218.434 588.815 222.113V259.056V259.136Z" fill="#1A5632"></path>
  <path d="M712.399 271.491C723.628 271.19 734.452 267.231 743.225 260.216C751.832 254.415 758.668 246.348 762.977 236.906L755.42 273.09H653.946C656.105 273.09 671.178 272.73 671.178 254.818V164.979C671.337 162.51 670.97 160.036 670.102 157.721C669.233 155.405 667.882 153.3 666.14 151.545C662.932 148.965 658.942 147.555 654.826 147.546H708.081C704.952 147.621 701.884 148.429 699.125 149.905C694.807 151.505 691.609 157.062 691.609 164.939V253.699C691.609 265.533 696.62 271.451 706.642 271.451L712.399 271.491Z" fill="#1A5632"></path>
  <path d="M857.454 258.416C856.622 262.207 855.046 265.795 852.816 268.972C851.414 270.959 849.519 272.548 847.319 273.585C845.119 274.623 842.687 275.072 840.262 274.889C831.106 274.889 826.108 269.531 826.108 260.216V225.231C802.958 232.228 791.484 238.505 790.764 250.5C790.56 252.332 790.725 254.186 791.249 255.952C791.774 257.719 792.646 259.363 793.817 260.787C794.987 262.21 796.431 263.385 798.063 264.242C799.695 265.098 801.482 265.619 803.318 265.773C807.318 266.094 811.342 265.589 815.139 264.289C818.936 262.989 822.424 260.922 825.388 258.217L819.831 264.134L813.714 269.172C808.421 273.365 801.833 275.584 795.082 275.449C792.047 275.706 788.994 275.254 786.163 274.13C783.332 273.006 780.802 271.24 778.77 268.972C775.542 264.84 773.884 259.697 774.091 254.458C774.374 250.454 775.787 246.612 778.164 243.378C780.542 240.144 783.788 237.65 787.525 236.186C791.877 233.892 796.444 232.031 801.159 230.629L808.876 228.47L817.472 225.951L826.108 223.632V213.597C826.108 196.364 818.912 188.648 806.917 191.007C797.242 192.606 792.403 197.804 792.403 206.4C792.403 209.079 794.882 213.756 795.082 216.435C795.134 217.644 794.933 218.851 794.489 219.977C794.045 221.103 793.37 222.123 792.507 222.972C791.643 223.82 790.611 224.477 789.478 224.901C788.344 225.324 787.135 225.505 785.927 225.431C784.634 225.498 783.343 225.273 782.149 224.773C780.955 224.273 779.889 223.511 779.029 222.544C778.169 221.577 777.538 220.428 777.182 219.184C776.825 217.94 776.753 216.632 776.971 215.356C777.188 211.996 778.196 208.734 779.912 205.837C781.628 202.94 784.004 200.489 786.846 198.683C792.866 194.015 799.933 190.886 807.436 189.567C823.429 186.489 843.86 190.287 843.42 214.316V256.977C843.42 266.133 849.337 267.732 853.096 263.414C854.935 263.254 856.374 261.615 857.454 258.416Z" fill="#1A5632"></path>
  <path d="M892.398 259.135C892.132 261.581 892.584 264.052 893.698 266.246C894.813 268.44 896.543 270.262 898.676 271.49C900.918 272.534 903.36 273.079 905.833 273.089H862.252C864.675 273.093 867.068 272.546 869.249 271.49C872.847 269.89 875.366 265.572 875.366 259.135V211.956C875.366 202.8 868.529 203.36 867.37 203.96L892.478 188.567L892.398 259.135ZM946.334 259.135C946.334 265.572 948.853 269.89 952.451 271.49C954.693 272.534 957.135 273.079 959.608 273.089H916.067C918.477 273.087 920.855 272.54 923.024 271.49C926.623 269.89 929.142 265.572 929.142 259.135V232.707C929.463 224.563 928.982 216.407 927.703 208.358C927.333 206.743 926.59 205.237 925.535 203.96C924.48 202.683 923.141 201.669 921.625 201.001C917.271 199.206 912.396 199.135 907.991 200.801C902.493 202.395 897.488 205.352 893.438 209.398C897.903 203.684 903.312 198.776 909.431 194.884C915.387 190.868 922.548 189.033 929.702 189.686C932.923 189.808 936.033 190.899 938.623 192.819C941.213 194.738 943.161 197.395 944.215 200.441C945.086 202.676 945.573 205.042 945.655 207.438C945.655 210.477 946.014 212.836 946.014 214.435C946.014 216.034 946.014 218.753 946.014 222.432V259.015L946.334 259.135Z" fill="#1A5632"></path>
  <path d="M1021.38 270.971C1017.26 273.819 1012.39 275.377 1007.39 275.449C1002.35 275.724 997.309 274.885 992.631 272.991C987.952 271.098 983.749 268.196 980.319 264.494C972.602 256.039 968.486 244.909 968.845 233.468C968.845 219.674 972.442 208.719 980.159 200.842C983.746 197.077 988.055 194.074 992.83 192.013C997.604 189.952 1002.75 188.875 1007.95 188.848C1018.34 188.688 1026.23 191.207 1031.62 196.404V170.016C1031.62 162.02 1026.42 159.261 1022.26 160.7L1048.29 144.708V252.659C1048.29 261.095 1054.37 261.295 1057.08 260.935L1058.32 260.735L1031.62 277.048V231.708C1032.02 221.391 1029.79 211.14 1025.14 201.922C1020.86 194.205 1015.1 189.927 1008.11 189.927C1001.11 189.927 996.112 193.486 991.794 201.402C987.45 210.362 985.77 220.382 986.956 230.269C987.143 239.508 989.913 248.511 994.952 256.257C996.855 259.357 999.411 262.004 1002.44 264.014C1005.47 266.023 1008.91 267.347 1012.5 267.892C1016.09 268.415 1019.76 267.821 1023 266.19C1026.24 264.559 1028.9 261.971 1030.62 258.776C1028.46 263.462 1025.31 267.624 1021.38 270.971V270.971Z" fill="#1A5632"></path>
  <path d="M1095.87 259.135C1095.6 261.56 1096.05 264.01 1097.16 266.179C1098.28 268.349 1100.01 270.14 1102.14 271.329C1104.4 272.347 1106.83 272.944 1109.3 273.089H1065.72C1068.09 272.953 1070.41 272.356 1072.56 271.329C1074.66 270.113 1076.37 268.317 1077.49 266.155C1078.6 263.992 1079.07 261.555 1078.83 259.135V212.716C1078.83 202.32 1072 203 1070.84 203.72L1095.95 188.327L1095.87 259.135ZM1132.97 189.566C1136.46 189.492 1139.87 190.655 1142.6 192.85C1145.32 195.044 1147.17 198.129 1147.84 201.561C1148.61 204.483 1148.97 207.496 1148.92 210.517C1149 212.075 1149 213.636 1148.92 215.195V259.175C1148.65 261.6 1149.1 264.05 1150.22 266.219C1151.34 268.389 1153.07 270.18 1155.2 271.369C1157.46 272.387 1159.88 272.983 1162.36 273.128H1118.62C1121.04 272.994 1123.41 272.397 1125.61 271.369C1127.74 270.172 1129.46 268.379 1130.58 266.212C1131.69 264.045 1132.15 261.598 1131.89 259.175V227.189C1132.28 220.27 1131.73 213.33 1130.25 206.558C1129.63 205.048 1128.66 203.708 1127.41 202.651C1126.17 201.594 1124.69 200.85 1123.09 200.481C1115.74 198.122 1106.58 201.201 1096.03 209.437C1109.34 195.124 1121.33 188.727 1132.97 189.566V189.566ZM1167.23 194.924C1172.87 191.116 1179.6 189.288 1186.39 189.726C1189.44 189.923 1192.4 190.841 1195.02 192.405C1198.26 194.648 1200.51 198.057 1201.3 201.921C1202.14 204.707 1202.56 207.605 1202.54 210.517C1202.74 212.676 1202.74 214.315 1202.74 215.195V259.175C1202.47 261.595 1202.92 264.04 1204.03 266.208C1205.14 268.376 1206.86 270.171 1208.98 271.369C1211.25 272.384 1213.69 272.98 1216.17 273.128H1172.43C1174.86 272.994 1177.23 272.397 1179.43 271.369C1181.55 270.172 1183.28 268.379 1184.39 266.212C1185.51 264.045 1185.97 261.598 1185.71 259.175V227.909C1185.71 222.711 1185.71 219.313 1185.71 217.354C1185.71 215.003 1185.47 212.658 1184.99 210.357C1184.94 208.381 1184.25 206.474 1183.02 204.923C1181.8 203.373 1180.1 202.263 1178.19 201.761C1169.39 198.162 1159.52 201.561 1150.2 209.277C1155.17 203.713 1160.91 198.881 1167.23 194.924V194.924Z" fill="#1A5632"></path>
  <path d="M1309.25 258.416C1308.42 262.207 1306.84 265.795 1304.61 268.972C1303.21 270.956 1301.31 272.543 1299.11 273.58C1296.91 274.617 1294.48 275.068 1292.06 274.889C1282.9 274.889 1277.86 269.531 1277.86 260.216V225.231C1254.75 232.228 1243.28 238.505 1242.56 250.5C1242.36 252.332 1242.52 254.186 1243.05 255.952C1243.57 257.719 1244.44 259.363 1245.61 260.787C1246.78 262.21 1248.23 263.385 1249.86 264.242C1251.49 265.098 1253.28 265.619 1255.11 265.773C1259.11 266.094 1263.14 265.589 1266.94 264.289C1270.73 262.989 1274.22 260.922 1277.18 258.217L1271.63 264.134L1265.51 269.172C1260.22 273.365 1253.63 275.584 1246.88 275.449C1243.84 275.706 1240.79 275.254 1237.96 274.13C1235.13 273.006 1232.6 271.24 1230.57 268.972C1227.3 264.859 1225.64 259.702 1225.89 254.458C1226.41 246.022 1231.09 240.305 1239.32 236.186C1243.67 233.886 1248.24 232.024 1252.96 230.629L1260.67 228.47L1269.27 225.951L1277.86 223.632V213.597C1277.86 196.364 1270.71 188.648 1258.71 191.007C1249 192.606 1244.16 197.804 1244.16 206.4C1244.16 209.079 1246.68 213.756 1246.88 216.435C1246.93 217.644 1246.73 218.851 1246.29 219.977C1245.84 221.103 1245.17 222.123 1244.3 222.972C1243.44 223.82 1242.41 224.477 1241.27 224.901C1240.14 225.324 1238.93 225.505 1237.72 225.431C1236.43 225.498 1235.14 225.273 1233.95 224.773C1232.75 224.273 1231.69 223.511 1230.83 222.544C1229.97 221.577 1229.33 220.428 1228.98 219.184C1228.62 217.94 1228.55 216.632 1228.77 215.356C1228.98 211.998 1229.98 208.738 1231.69 205.841C1233.4 202.943 1235.77 200.491 1238.6 198.683C1244.64 194.021 1251.72 190.893 1259.23 189.567C1275.23 186.489 1295.62 190.287 1295.22 214.316V256.977C1295.22 266.133 1301.13 267.732 1304.89 263.414C1306.89 263.254 1308.29 261.615 1309.25 258.416Z" fill="#1A5632"></path>
  <path d="M1383.06 199.762C1383.18 200.959 1383.05 202.168 1382.69 203.315C1382.32 204.461 1381.73 205.521 1380.94 206.428C1380.15 207.335 1379.18 208.07 1378.09 208.587C1377 209.105 1375.82 209.394 1374.62 209.437C1368.54 210.157 1365.15 203.52 1362.99 201.761C1357.07 197.443 1350.43 200.122 1343.44 209.757V260.175C1343.37 262.121 1343.75 264.057 1344.56 265.828C1345.38 267.598 1346.59 269.154 1348.11 270.37C1351.11 272.098 1354.49 273.021 1357.95 273.049H1312.25C1314.75 273.036 1317.23 272.562 1319.57 271.649C1321.79 270.731 1323.66 269.117 1324.89 267.048C1326.12 264.98 1326.65 262.569 1326.4 260.175V211.796C1326.4 205.159 1323 202.64 1318.89 203.36L1343.44 188.487V208.478C1349.71 196.483 1361.55 188.487 1372.3 189.127C1373.72 189.053 1375.15 189.277 1376.48 189.784C1377.81 190.291 1379.02 191.069 1380.03 192.07C1381.04 193.071 1381.83 194.272 1382.35 195.596C1382.88 196.921 1383.12 198.34 1383.06 199.762V199.762Z" fill="#1A5632"></path>
  <path d="M1417.84 259.136C1417.84 265.413 1420.16 269.691 1423.56 271.331C1425.64 272.328 1427.89 272.924 1430.2 273.09H1386.62C1388.49 273.191 1390.36 272.901 1392.11 272.239C1393.86 271.577 1395.45 270.557 1396.79 269.244C1398.13 267.931 1399.17 266.354 1399.87 264.614C1400.56 262.873 1400.88 261.008 1400.81 259.136V168.377C1400.81 161.42 1396.49 157.982 1392.17 159.981L1418 144.388L1417.84 259.136ZM1438.79 211.158C1440.59 209.597 1441.83 207.49 1442.32 205.158C1442.82 202.826 1442.53 200.398 1441.51 198.243C1440.39 196.071 1438.65 194.271 1436.52 193.065C1434.39 191.858 1431.96 191.296 1429.52 191.446H1469.5C1465.09 192.748 1460.92 194.745 1457.14 197.364C1450.87 201.248 1445.19 206.014 1440.27 211.518L1434.91 217.635C1432.75 219.954 1432.92 223.192 1435.63 227.11C1444.27 240.001 1453.61 252.401 1463.62 264.254C1467.08 268.079 1471.46 270.967 1476.34 272.65L1478.49 273.01H1439.03C1443.35 272.49 1444.95 268.732 1441.39 263.534C1435.36 254.401 1428.83 245.605 1421.84 237.186C1420.04 235.027 1418.8 234.107 1418.08 234.467L1438.79 211.158Z" fill="#1A5632"></path>
  <path d="M1634.94 147.585L1639.94 179.571C1636.45 172.515 1631.72 166.139 1625.99 160.74C1618.27 153.611 1608.15 149.644 1597.64 149.625H1593.12V254.697C1593.03 257.359 1593.5 260.01 1594.49 262.481C1595.48 264.952 1596.98 267.19 1598.88 269.051C1602.68 271.508 1607.07 272.89 1611.6 273.049H1554.22C1557.58 272.958 1560.89 272.168 1563.94 270.73C1568.93 268.771 1572.53 263.213 1572.53 254.737V149.744H1566.97C1556.28 149.904 1546.04 154.07 1538.27 161.419C1533.46 166.124 1529.19 171.355 1525.55 177.012L1523.75 180.051L1529.47 147.585H1634.94Z" fill="#1A5632"></path>
  <path d="M1706.83 199.762C1706.95 200.958 1706.82 202.165 1706.45 203.309C1706.08 204.453 1705.49 205.51 1704.7 206.416C1703.91 207.321 1702.94 208.056 1701.86 208.576C1700.77 209.095 1699.6 209.389 1698.4 209.437C1692.28 210.157 1688.88 203.52 1686.72 201.761C1680.8 197.443 1674.21 200.122 1667.21 209.757V260.175C1667.14 262.117 1667.52 264.049 1668.33 265.818C1669.13 267.587 1670.34 269.146 1671.85 270.37C1674.86 272.094 1678.26 273.017 1681.72 273.049H1635.98C1638.5 273.04 1641 272.566 1643.34 271.649C1645.56 270.72 1647.42 269.104 1648.65 267.038C1649.88 264.973 1650.42 262.567 1650.18 260.175V211.796C1650.18 205.159 1646.74 202.64 1642.62 203.36L1667.21 188.487V208.478C1673.49 196.483 1685.32 188.487 1696.08 189.127C1697.5 189.053 1698.92 189.277 1700.25 189.784C1701.58 190.291 1702.79 191.069 1703.8 192.07C1704.81 193.071 1705.61 194.272 1706.13 195.596C1706.65 196.921 1706.89 198.34 1706.83 199.762ZM1665.93 211.756H1666.13H1665.93Z" fill="#1A5632"></path>
  <path d="M1764.53 263.774C1770.22 262.298 1775.43 259.331 1779.6 255.178C1774.92 260.893 1769.27 265.75 1762.93 269.531C1756.7 273.545 1749.32 275.373 1741.94 274.729C1738.77 274.637 1735.71 273.57 1733.18 271.673C1730.65 269.777 1728.76 267.143 1727.78 264.134C1726.9 261.971 1726.42 259.67 1726.34 257.337L1725.82 250.14V206.4C1725.82 199.963 1723.1 195.645 1719.35 194.205C1717.17 193.149 1714.77 192.602 1712.35 192.606H1742.86V231.868C1742.86 239.585 1742.86 244.783 1742.86 247.861C1743.42 253.778 1745.17 261.135 1750.21 263.454C1754.77 265.379 1759.89 265.493 1764.53 263.774V263.774ZM1780.52 205.52C1780.8 203.233 1780.36 200.915 1779.26 198.888C1778.17 196.861 1776.47 195.224 1774.4 194.205C1772.22 193.149 1769.83 192.602 1767.4 192.606H1797.55V254.458C1797.43 255.419 1797.54 256.395 1797.88 257.304C1798.22 258.212 1798.77 259.026 1799.49 259.677C1800.2 260.328 1801.07 260.796 1802 261.043C1802.94 261.29 1803.92 261.308 1804.87 261.095L1780.52 275.809V205.52V205.52Z" fill="#1A5632"></path>
  <path d="M1879.63 216.434C1872.48 202.12 1859.36 191.685 1847.01 191.525C1839.29 191.525 1834.45 195.843 1833.93 201.761C1833.57 206.758 1834.29 215.714 1855.6 222.351C1877.83 229.348 1885.19 237.065 1885.39 248.54C1885.5 255.537 1882.86 262.298 1878.03 267.371C1873.2 272.569 1865.64 275.368 1855.45 275.368C1850.54 275.398 1845.64 274.793 1840.89 273.568C1837.3 272.816 1833.78 271.8 1830.34 270.53C1827.28 269.267 1824.29 267.839 1821.38 266.252L1821.02 240.423C1825.35 250.024 1832.15 258.303 1840.73 264.412C1846.95 268.8 1854.28 271.349 1861.88 271.769C1869.08 271.769 1873.36 269.25 1874.8 263.773C1877.12 254.657 1870.12 246.221 1850.05 239.784C1829.98 233.346 1822.82 224.71 1822.98 213.236C1822.97 209.959 1823.68 206.72 1825.06 203.749C1826.45 200.778 1828.46 198.148 1830.98 196.043C1837.57 190.795 1845.87 188.175 1854.29 188.687C1863.32 188.202 1872.25 190.857 1879.55 196.203L1879.63 216.434Z" fill="#1A5632"></path>
  <path d="M1956 250.859C1954.87 257.089 1952.11 262.909 1948 267.731C1945.71 270.258 1942.87 272.22 1939.69 273.461C1936.51 274.703 1933.09 275.191 1929.69 274.888C1924.1 275.079 1918.63 273.232 1914.3 269.69C1906.58 263.053 1904.78 253.698 1904.78 239.384V194.044H1897.43L1895.27 192.405H1904.78V170.735L1922.18 158.34C1922.18 169.095 1922.18 180.41 1922.18 192.405H1943.13L1941.53 194.044H1922.18V239.944C1922.18 257.336 1925.01 265.212 1936.33 265.932C1945.8 266.652 1952.96 259.655 1956 250.859Z" fill="#1A5632"></path>
  <path d="M246.049 360.651C246.731 361.631 247.537 362.518 248.448 363.29C250.372 365.007 252.866 365.947 255.445 365.929C260.762 365.929 263.441 363.29 263.441 359.931C263.441 351.655 243.93 355.933 243.93 343.419C244.051 341.966 244.457 340.551 245.126 339.256C245.795 337.961 246.713 336.81 247.827 335.87C248.941 334.931 250.231 334.22 251.62 333.78C253.01 333.339 254.473 333.177 255.925 333.303C258.978 333.309 261.969 334.168 264.561 335.782C265.677 336.423 266.689 337.232 267.559 338.181L263.801 341.899C263.238 341.197 262.578 340.578 261.842 340.06C260.107 338.846 258.043 338.19 255.925 338.181C254.336 337.988 252.735 338.43 251.47 339.411C250.205 340.391 249.378 341.832 249.168 343.419C249.168 351.415 268.679 347.177 268.679 359.931C268.679 365.929 263.721 370.806 255.565 370.806C251.982 370.839 248.482 369.733 245.569 367.648C244.326 366.785 243.265 365.684 242.45 364.409L246.049 360.651Z" fill="#1A5632"></path>
  <path d="M325.933 364.967C325.143 366.058 324.185 367.016 323.095 367.806C320.535 369.651 317.453 370.631 314.298 370.605C311.229 370.822 308.194 369.852 305.82 367.895C303.447 365.938 301.916 363.144 301.544 360.09C301.544 354.092 305.223 350.334 312.06 349.215L325.933 346.975C325.99 345.779 325.796 344.584 325.364 343.467C324.932 342.349 324.272 341.335 323.425 340.488C322.578 339.641 321.564 338.98 320.447 338.548C319.329 338.116 318.134 337.922 316.937 337.98C314.241 338.008 311.628 338.921 309.5 340.578C308.536 341.396 307.628 342.278 306.782 343.217L303.423 339.859C304.415 338.552 305.602 337.406 306.942 336.46C309.811 334.268 313.326 333.087 316.937 333.102C318.795 333.031 320.647 333.339 322.382 334.007C324.117 334.674 325.699 335.688 327.031 336.985C328.362 338.283 329.415 339.838 330.127 341.555C330.839 343.272 331.194 345.117 331.171 346.975V369.845H325.933V364.967ZM325.933 351.454L313.539 353.732C309.061 354.532 306.782 356.731 306.782 360.09C306.782 363.448 309.42 365.727 314.298 365.727C315.873 365.787 317.443 365.515 318.905 364.928C320.368 364.342 321.692 363.454 322.789 362.323C323.887 361.191 324.733 359.842 325.274 358.362C325.816 356.882 326.041 355.305 325.933 353.732V351.454Z" fill="#1A5632"></path>
  <path d="M363.796 333.822H369.393L381.029 362.729L392.663 333.822H398.3L383.667 369.806H378.429L363.796 333.822Z" fill="#1A5632"></path>
  <path d="M462.032 363.089C460.91 364.548 459.56 365.817 458.034 366.847C454.817 369.268 450.905 370.586 446.879 370.606C444.464 370.559 442.081 370.037 439.867 369.069C437.654 368.101 435.653 366.707 433.978 364.966C432.304 363.224 430.989 361.17 430.108 358.92C429.228 356.671 428.799 354.269 428.847 351.854C428.738 347.04 430.526 342.377 433.824 338.869C437.123 335.361 441.667 333.29 446.479 333.103C448.815 333.078 451.133 333.532 453.287 334.436C455.442 335.341 457.388 336.677 459.006 338.363C460.625 340.049 461.88 342.048 462.696 344.238C463.512 346.427 463.871 348.761 463.751 351.094C463.731 351.753 463.65 352.409 463.511 353.054V353.773H434.284C434.524 357.006 435.967 360.031 438.328 362.252C440.689 364.472 443.798 365.727 447.039 365.768C450.157 365.745 453.179 364.691 455.635 362.769C456.769 361.914 457.779 360.905 458.633 359.771L462.032 363.089ZM458.633 349.215C458.386 346.188 457.02 343.361 454.803 341.284C452.586 339.207 449.676 338.03 446.639 337.98C443.578 338.071 440.65 339.253 438.385 341.314C436.119 343.374 434.664 346.177 434.284 349.215H458.633Z" fill="#1A5632"></path>
  <path d="M551.632 344.657C553.504 344.727 555.279 345.504 556.6 346.833C557.921 348.161 558.689 349.941 558.749 351.814C558.689 353.682 557.919 355.457 556.597 356.779C555.275 358.101 553.5 358.87 551.632 358.93C549.763 358.87 547.988 358.101 546.666 356.779C545.344 355.457 544.575 353.682 544.515 351.814C544.574 349.941 545.342 348.161 546.663 346.833C547.984 345.504 549.76 344.727 551.632 344.657V344.657Z" fill="#1A5632"></path>
  <path d="M642.351 360.651C643.021 361.64 643.829 362.529 644.75 363.29C646.656 365.011 649.139 365.953 651.707 365.929C657.064 365.929 659.703 363.29 659.703 359.931C659.703 351.655 640.231 355.933 640.231 343.419C640.352 341.966 640.759 340.551 641.428 339.256C642.097 337.961 643.015 336.81 644.129 335.87C645.244 334.931 646.532 334.22 647.921 333.78C649.311 333.339 650.774 333.177 652.226 333.303C655.279 333.309 658.271 334.168 660.863 335.782C661.979 336.423 662.991 337.232 663.861 338.181L660.102 341.899C659.539 341.197 658.879 340.578 658.143 340.06C656.406 338.85 654.343 338.195 652.226 338.181C650.637 337.988 649.036 338.43 647.771 339.411C646.506 340.391 645.679 341.832 645.469 343.419C645.469 351.415 664.981 347.177 664.981 359.931C664.981 365.929 660.023 370.806 651.827 370.806C648.257 370.839 644.77 369.732 641.871 367.648C640.623 366.778 639.551 365.679 638.713 364.409L642.351 360.651Z" fill="#1A5632"></path>
  <path d="M700.845 317.349H706.082V339.099C706.867 337.958 707.826 336.947 708.921 336.1C711.435 334.145 714.532 333.089 717.717 333.101C719.719 333.033 721.713 333.388 723.568 334.146C725.423 334.903 727.097 336.044 728.479 337.494C729.861 338.944 730.921 340.671 731.588 342.56C732.255 344.449 732.515 346.458 732.35 348.455V369.845H727.072V348.654C727.196 347.312 727.036 345.959 726.602 344.683C726.168 343.407 725.469 342.237 724.553 341.248C723.636 340.26 722.522 339.476 721.282 338.947C720.042 338.418 718.705 338.157 717.357 338.179C715.81 338.164 714.278 338.47 712.855 339.077C711.432 339.684 710.15 340.579 709.091 341.706C708.032 342.833 707.217 344.167 706.7 345.625C706.182 347.082 705.971 348.631 706.082 350.174V370.165H700.845V317.349Z" fill="#1A5632"></path>
  <path d="M792.323 364.967C791.533 366.058 790.575 367.016 789.485 367.806C786.925 369.651 783.844 370.631 780.689 370.605C777.62 370.822 774.585 369.852 772.211 367.895C769.837 365.938 768.307 363.144 767.935 360.09C767.935 354.092 771.613 350.334 778.45 349.215L792.323 346.975C792.38 345.779 792.187 344.584 791.755 343.467C791.323 342.349 790.663 341.335 789.816 340.488C788.969 339.641 787.954 338.98 786.836 338.548C785.719 338.116 784.524 337.922 783.327 337.98C780.631 338.008 778.019 338.921 775.891 340.578C774.931 341.387 774.034 342.269 773.212 343.217L769.814 339.859C770.814 338.559 771.999 337.414 773.332 336.46C776.201 334.268 779.716 333.087 783.327 333.102C785.185 333.031 787.038 333.339 788.773 334.007C790.508 334.674 792.089 335.688 793.42 336.985C794.752 338.283 795.805 339.838 796.517 341.555C797.228 343.272 797.584 345.117 797.561 346.975V369.845H792.323V364.967ZM792.323 351.454L779.929 353.732C775.451 354.532 773.212 356.731 773.212 360.09C773.212 363.448 775.811 365.727 780.689 365.727C782.264 365.787 783.833 365.515 785.296 364.928C786.759 364.342 788.082 363.454 789.179 362.323C790.276 361.191 791.124 359.842 791.665 358.362C792.207 356.882 792.431 355.305 792.323 353.732V351.454Z" fill="#1A5632"></path>
  <path d="M835.824 333.822H841.061V338.7C841.925 337.671 842.904 336.746 843.98 335.941C846.619 334.04 849.803 333.044 853.056 333.102H854.576V338.34H852.296C850.783 338.328 849.284 338.623 847.889 339.209C846.494 339.794 845.233 340.657 844.182 341.746C843.131 342.834 842.312 344.125 841.776 345.539C841.239 346.954 840.996 348.463 841.061 349.974V369.965H835.824V333.822Z" fill="#1A5632"></path>
  <path d="M917.427 363.089C916.304 364.548 914.954 365.817 913.429 366.847C910.211 369.268 906.299 370.586 902.273 370.606C897.402 370.501 892.773 368.467 889.399 364.952C886.026 361.436 884.185 356.725 884.282 351.854C884.173 347.047 885.955 342.389 889.245 338.883C892.535 335.376 897.07 333.3 901.874 333.103C904.211 333.078 906.527 333.532 908.682 334.436C910.836 335.341 912.783 336.677 914.401 338.363C916.019 340.049 917.275 342.048 918.092 344.238C918.908 346.427 919.266 348.761 919.146 351.094C919.126 351.753 919.046 352.409 918.907 353.054V353.773H889.64C889.879 357.006 891.322 360.031 893.684 362.252C896.045 364.472 899.152 365.727 902.394 365.768C905.522 365.736 908.554 364.683 911.029 362.769C912.145 361.893 913.152 360.887 914.028 359.771L917.427 363.089ZM914.068 349.215C913.811 346.191 912.444 343.369 910.229 341.294C908.014 339.219 905.108 338.039 902.073 337.98C899.012 338.071 896.085 339.253 893.819 341.314C891.554 343.374 890.1 346.177 889.72 349.215H914.068Z" fill="#1A5632"></path>
  <path d="M1007.15 344.657C1009.02 344.727 1010.79 345.504 1012.12 346.833C1013.44 348.161 1014.2 349.941 1014.26 351.814C1014.2 353.682 1013.44 355.457 1012.11 356.779C1010.79 358.101 1009.02 358.87 1007.15 358.93C1005.28 358.87 1003.5 358.101 1002.18 356.779C1000.86 355.457 1000.09 353.682 1000.03 351.814C1000.09 349.941 1000.86 348.161 1002.18 346.833C1003.5 345.504 1005.27 344.727 1007.15 344.657V344.657Z" fill="#1A5632"></path>
  <path d="M1097.87 360.651C1098.55 361.631 1099.35 362.518 1100.26 363.29C1102.19 365.013 1104.68 365.955 1107.26 365.929C1112.58 365.929 1115.26 363.29 1115.26 359.931C1115.26 351.655 1095.75 355.933 1095.75 343.419C1095.87 341.966 1096.27 340.551 1096.94 339.256C1097.61 337.961 1098.53 336.81 1099.64 335.87C1100.76 334.931 1102.05 334.22 1103.44 333.78C1104.83 333.339 1106.29 333.177 1107.74 333.303C1110.8 333.309 1113.79 334.168 1116.38 335.782C1117.49 336.423 1118.51 337.232 1119.38 338.181L1115.62 341.899C1115.05 341.197 1114.4 340.578 1113.66 340.06C1111.92 338.85 1109.86 338.195 1107.74 338.181C1106.15 337.988 1104.55 338.43 1103.29 339.411C1102.02 340.391 1101.19 341.832 1100.98 343.419C1100.98 351.415 1120.5 347.177 1120.5 359.931C1120.5 365.929 1115.54 370.806 1107.38 370.806C1103.8 370.844 1100.3 369.738 1097.39 367.648C1096.14 366.778 1095.07 365.679 1094.23 364.409L1097.87 360.651Z" fill="#1A5632"></path>
  <path d="M1155.96 333.822H1161.24V354.852C1161.16 356.238 1161.36 357.626 1161.83 358.932C1162.3 360.238 1163.03 361.435 1163.97 362.451C1164.92 363.468 1166.06 364.282 1167.33 364.845C1168.59 365.408 1169.96 365.708 1171.35 365.727C1172.87 365.699 1174.36 365.361 1175.74 364.734C1177.13 364.107 1178.36 363.204 1179.38 362.08C1180.4 360.956 1181.18 359.636 1181.67 358.201C1182.16 356.765 1182.35 355.245 1182.23 353.733V333.742H1187.47V369.726H1182.23V364.848C1181.44 365.938 1180.48 366.896 1179.39 367.687C1176.83 369.531 1173.75 370.512 1170.59 370.485C1168.58 370.473 1166.59 370.049 1164.74 369.239C1162.9 368.429 1161.24 367.249 1159.87 365.773C1158.5 364.297 1157.44 362.556 1156.77 360.657C1156.1 358.759 1155.82 356.742 1155.96 354.732V333.822Z" fill="#1A5632"></path>
  <path d="M1226.45 360.651C1227.13 361.631 1227.94 362.518 1228.85 363.29C1230.77 365.007 1233.26 365.947 1235.84 365.929C1241.16 365.929 1243.84 363.29 1243.84 359.931C1243.84 351.655 1224.33 355.933 1224.33 343.419C1224.45 341.966 1224.86 340.551 1225.52 339.256C1226.19 337.961 1227.11 336.81 1228.23 335.87C1229.34 334.931 1230.63 334.22 1232.02 333.78C1233.41 333.339 1234.87 333.177 1236.32 333.303C1239.38 333.309 1242.37 334.168 1244.96 335.782C1246.08 336.423 1247.09 337.232 1247.96 338.181L1244.2 341.899C1243.64 341.208 1243 340.59 1242.28 340.06C1240.53 338.852 1238.45 338.197 1236.32 338.181C1234.73 337.988 1233.13 338.43 1231.87 339.411C1230.6 340.391 1229.78 341.832 1229.57 343.419C1229.57 351.415 1249.08 347.177 1249.08 359.931C1249.08 365.929 1244.12 370.806 1235.96 370.806C1232.38 370.839 1228.88 369.733 1225.97 367.648C1224.72 366.785 1223.66 365.684 1222.85 364.409L1226.45 360.651Z" fill="#1A5632"></path>
  <path d="M1287.58 338.7H1280.82V333.822H1284.82C1286.86 333.822 1287.82 332.582 1287.82 330.103V321.827H1292.7V333.822H1300.7V338.7H1292.7V360.09C1292.7 364.088 1294.58 365.727 1297.58 365.727C1298.75 365.719 1299.93 365.544 1301.05 365.208C1301.57 364.968 1302.09 364.808 1302.45 364.608V369.486L1300.97 370.085C1299.81 370.43 1298.59 370.605 1297.38 370.605C1295.99 370.714 1294.6 370.511 1293.31 370.012C1292.02 369.513 1290.85 368.73 1289.9 367.722C1288.95 366.713 1288.24 365.504 1287.81 364.183C1287.39 362.862 1287.27 361.463 1287.46 360.09L1287.58 338.7Z" fill="#1A5632"></path>
  <path d="M1358.83 364.967C1358.04 366.07 1357.06 367.03 1355.95 367.806C1353.41 369.658 1350.34 370.64 1347.19 370.605C1344.12 370.822 1341.09 369.852 1338.72 367.895C1336.34 365.938 1334.81 363.144 1334.44 360.09C1334.44 354.092 1338.12 350.334 1344.95 349.215L1358.83 346.975C1358.88 345.779 1358.69 344.584 1358.26 343.467C1357.83 342.349 1357.17 341.335 1356.32 340.488C1355.47 339.641 1354.46 338.98 1353.34 338.548C1352.22 338.116 1351.03 337.922 1349.83 337.98C1347.14 338.008 1344.52 338.921 1342.4 340.578C1341.42 341.386 1340.51 342.268 1339.68 343.217L1336.32 339.859C1337.31 338.552 1338.5 337.406 1339.84 336.46C1342.71 334.268 1346.22 333.087 1349.83 333.102C1351.69 333.031 1353.54 333.339 1355.28 334.007C1357.01 334.674 1358.59 335.688 1359.93 336.985C1361.26 338.283 1362.31 339.838 1363.02 341.555C1363.73 343.272 1364.09 345.117 1364.07 346.975V369.845H1358.83V364.967ZM1358.83 351.454L1346.43 353.732C1341.96 354.532 1339.68 356.731 1339.68 360.09C1339.68 363.448 1342.32 365.727 1347.19 365.727C1348.77 365.787 1350.34 365.515 1351.8 364.928C1353.26 364.342 1354.59 363.454 1355.68 362.323C1356.78 361.191 1357.63 359.842 1358.17 358.362C1358.71 356.882 1358.94 355.305 1358.83 353.732V351.454Z" fill="#1A5632"></path>
  <path d="M1404.93 318.469C1405.37 318.464 1405.81 318.547 1406.22 318.714C1406.63 318.881 1407 319.128 1407.31 319.441C1407.63 319.754 1407.87 320.127 1408.04 320.536C1408.21 320.946 1408.29 321.385 1408.29 321.828C1408.29 322.272 1408.21 322.713 1408.04 323.125C1407.88 323.538 1407.63 323.912 1407.32 324.229C1407 324.545 1406.63 324.796 1406.22 324.967C1405.81 325.138 1405.37 325.226 1404.93 325.226C1404.48 325.226 1404.04 325.138 1403.63 324.968C1403.22 324.797 1402.84 324.547 1402.52 324.231C1402.21 323.915 1401.96 323.541 1401.79 323.129C1401.62 322.716 1401.53 322.274 1401.53 321.828C1401.53 321.384 1401.62 320.943 1401.79 320.533C1401.96 320.123 1402.21 319.751 1402.53 319.439C1402.84 319.127 1403.22 318.88 1403.63 318.714C1404.04 318.547 1404.48 318.464 1404.93 318.469V318.469ZM1402.29 333.823H1407.57V369.806H1402.29V333.823Z" fill="#1A5632"></path>
  <path d="M1445.79 333.823H1451.03V339.1C1451.83 337.959 1452.8 336.948 1453.91 336.102C1456.4 334.138 1459.49 333.08 1462.66 333.103C1464.67 333.048 1466.67 333.422 1468.53 334.198C1470.38 334.975 1472.05 336.137 1473.43 337.608C1474.8 339.078 1475.84 340.824 1476.49 342.729C1477.13 344.633 1477.37 346.654 1477.18 348.656V370.046H1471.94V348.656C1472.06 347.312 1471.89 345.958 1471.45 344.681C1471.01 343.405 1470.31 342.236 1469.39 341.248C1468.47 340.261 1467.35 339.477 1466.11 338.949C1464.87 338.42 1463.53 338.159 1462.18 338.181C1460.64 338.166 1459.1 338.471 1457.68 339.078C1456.26 339.685 1454.98 340.581 1453.92 341.708C1452.86 342.835 1452.04 344.169 1451.52 345.626C1451.01 347.084 1450.8 348.633 1450.91 350.175V370.166H1445.67L1445.79 333.823Z" fill="#1A5632"></path>
  <path d="M126.783 34.5557L115.068 29.0781L114.589 29.0381L103.913 28.3985V27.5588L115.788 26.6792L125.743 30.1576V27.5588L115.468 20.1621H56.6945L46.4191 27.5588V33.876L46.2192 33.9959L38.3028 39.1536L37.9829 44.6311L38.7426 45.1109L61.6922 34.4757L113.669 34.6356L114.029 34.7955L133.9 44.8311L134.22 44.6311L133.9 39.1536L126.783 34.5557Z" fill="#1A5632"></path>
  <path d="M142.016 307.274V306.634L123.784 302.076L50.5368 302.476L23.5089 310.472L20.031 363.768C37.8412 355.294 56.241 348.118 75.0863 342.298V323.666C75.0863 320.429 76.3692 317.323 78.655 315.029C80.9408 312.736 84.0432 311.443 87.281 311.432C90.4841 311.495 93.5344 312.811 95.7772 315.099C98.02 317.387 99.2762 320.463 99.2756 323.666V335.181C115.268 330.863 132.3 327.185 149.452 323.866L148.573 310.392L142.016 307.274Z" fill="#1A5632"></path>
  <path d="M86.1615 0.811662C81.0862 0.795705 76.1016 2.16015 71.7422 4.75892C67.3827 7.3577 63.8117 11.093 61.4119 15.565H110.87C108.473 11.099 104.909 7.36762 100.557 4.76923C96.2056 2.17084 91.23 0.802958 86.1615 0.811662V0.811662Z" fill="#1A5632"></path>
  <path d="M43.9002 90.2912L59.2536 82.7346H110.35L124.343 93.2498L123.904 94.0095L109.47 86.6528H60.1731L43.46 96.1686L41.0216 134.871L55.8148 128.514H114.388L129.621 139.589L113.629 132.432H57.0144L40.7415 140.429L37.4627 192.405L55.8948 184.409H114.428L128.622 194.124L128.223 194.844L113.789 188.727L57.1745 188.527L37.1835 198.442L33.9847 249.3L56.0149 241.303H117.387L134.459 252.298L134.06 253.058L116.667 245.062H56.9744L33.5045 254.817L30.4258 303.395L50.4168 298.118L125.064 297.918L141.896 306.234L125.903 51.7485L110.67 45.1915L62.6915 44.5518L46.2995 52.5482L43.9002 90.2912ZM79.6439 62.7036L79.924 61.9439L80.1641 61.3842C80.9453 59.8402 82.1587 58.5569 83.6567 57.6907C85.1547 56.8246 86.872 56.4131 88.5998 56.5063C89.7815 56.5901 90.936 56.9025 91.9987 57.426L92.9582 58.0257C93.3723 58.3255 93.7603 58.6598 94.1178 59.0252H94.317L94.7572 59.465C95.421 60.3268 95.9228 61.3023 96.237 62.3437V62.3437V62.6236V63.1834C96.5512 64.4976 96.5512 65.8674 96.237 67.1816C96.0908 67.7591 95.8894 68.3214 95.6367 68.8608C94.8912 70.3386 93.7475 71.5785 92.3345 72.4404C90.9214 73.3023 89.2954 73.752 87.6403 73.7386C86.2495 73.7469 84.8776 73.4176 83.6421 72.7791C82.4426 72.1941 81.4006 71.3304 80.6034 70.2602V70.2602C79.792 69.1527 79.2562 67.8677 79.0406 66.5119C78.8251 65.156 78.9357 63.7682 79.3637 62.4637L79.6439 62.7036ZM96.8764 109.922C96.8764 112.266 95.9457 114.513 94.2887 116.17C92.6316 117.827 90.3839 118.758 88.0405 118.758C86.0818 118.753 84.1809 118.092 82.6425 116.879C81.5851 116.054 80.7296 114.998 80.1407 113.793C79.5519 112.587 79.2458 111.264 79.2446 109.922C79.2552 107.593 80.185 105.362 81.8323 103.714C83.4796 102.067 85.7109 101.137 88.0405 101.126C89.1986 101.113 90.3473 101.332 91.4189 101.772C92.4904 102.212 93.463 102.862 94.2779 103.685C95.1026 104.501 95.7567 105.472 96.2028 106.543C96.649 107.614 96.8779 108.762 96.8764 109.922V109.922ZM99.4348 157.221V172.734H79.4438V157.141C79.4428 155.145 80.0425 153.195 81.1637 151.544C82.0787 150.19 83.311 149.081 84.7539 148.314C86.1967 147.548 87.8054 147.146 89.4393 147.146C90.7587 147.146 92.0653 147.407 93.2832 147.914C94.5012 148.421 95.6065 149.165 96.5357 150.101C97.4649 151.038 98.2002 152.149 98.6978 153.371C99.1954 154.593 99.4453 155.902 99.4348 157.221V157.221ZM99.4348 208.838V230.988H79.4438V208.718C79.4375 207.165 79.7967 205.632 80.4911 204.243C81.1856 202.855 82.1959 201.648 83.442 200.722C85.138 199.485 87.1811 198.813 89.2802 198.802C91.1215 198.805 92.9257 199.319 94.4927 200.286C96.0596 201.253 97.3278 202.635 98.1561 204.28V204.52L98.3952 204.92C98.9902 206.104 99.3436 207.395 99.4348 208.718V208.838ZM99.4348 267.012V289.202H79.4438V267.012C79.4543 264.364 80.5116 261.828 82.3839 259.955C84.2561 258.083 86.7915 257.027 89.4393 257.016C90.7569 257.01 92.0627 257.269 93.2784 257.777C94.494 258.286 95.5949 259.033 96.5162 259.975C97.4426 260.897 98.1774 261.994 98.6783 263.202C99.1792 264.409 99.4362 265.704 99.4348 267.012V267.012Z" fill="#1A5632"></path>
  <path d="M0 408.108L1.07959 389.317C29.067 376.083 105.312 349.095 169.603 342.818V376.203C113.069 377.322 47.8585 391.636 0.0800421 408.188" fill="#CFDDBB"></path>
</svg>
