<?xml version="1.0" encoding="UTF-8"?>
<svg xmlns="http://www.w3.org/2000/svg" width="1418" height="363" viewBox="0 0 1418 363" fill="none">
  <path d="M1084.86 224.802L1083.73 149.878C1083.45 122.522 1062.66 110.866 1037.59 110.866C1017.66 110.866 1001.43 117.117 990.597 134.508C983.478 116.835 964.965 110.866 947.32 110.866C927.115 110.866 911.726 117.117 900.331 134.226V113.709H898.639L870.164 131.665V132.229H871.574C880.971 132.229 881.253 134.226 881.253 142.217V224.825C881.253 233.356 878.411 242.193 868.449 242.193V243.062H916.002V242.193C906.322 242.193 902.61 233.074 902.61 224.825V156.459C902.61 135.378 920.278 114.297 941.917 114.297C963.555 114.297 972.107 128.821 972.389 151.335L972.953 224.825C973.235 233.356 970.11 242.193 960.148 242.193V243.062H1007.7V242.193C998.304 242.193 994.591 233.074 994.591 224.825C994.309 202.029 993.464 179.255 993.464 156.459C993.464 136.247 1010.54 114.297 1031.9 114.297C1053.54 114.015 1062.37 128.821 1062.66 151.335L1063.22 224.825C1063.5 233.356 1060.38 242.193 1050.41 242.193V243.062H1097.97V242.193C1088.57 242.193 1084.86 233.074 1084.86 224.825" fill="#1A1F21"></path>
  <path d="M1332.87 113.686V114.532C1339.7 114.814 1349.67 124.779 1347.11 133.051L1315.2 204.261C1310.36 215.659 1309.51 215.941 1303.8 203.979L1268.77 129.925C1266.5 125.084 1267.06 116.53 1277.04 114.532V113.686H1224.65V114.532C1229.49 114.532 1239.76 119.937 1244.01 128.492L1293.56 231.617C1297.56 240.172 1297.25 243.861 1294.12 250.7L1283.29 274.343C1271.9 298.855 1246.85 306.258 1233.18 290.583L1241.73 317.069C1264.5 317.069 1275.61 298.55 1280.17 288.303L1349.67 134.767C1355.35 124.52 1364.19 115.966 1372.74 114.555V113.709H1332.87V113.686Z" fill="#1A1F21"></path>
  <path d="M1192.46 217.093C1192.46 230.207 1171.39 242.733 1156 242.146C1143.76 241.864 1132.36 233.027 1132.36 214.508C1132.36 183.462 1166.24 168.374 1192.46 158.95V217.093ZM1213.82 220.501V156.13C1213.82 123.369 1195.31 109.973 1164.27 110.842C1146.88 111.406 1126.11 118.245 1114.72 133.051V156.412C1127.83 134.485 1145.47 116.248 1163.99 113.686C1185.06 110.842 1194.18 121.935 1194.46 134.767C1194.74 153.004 1185.06 159.843 1160.58 169.808C1148.9 174.649 1136.38 179.49 1123.55 189.737C1115 196.576 1109.6 208.538 1109.88 219.655C1110.16 227.058 1113 233.897 1118.71 238.738C1124.12 243.297 1132.95 245.859 1142.63 246.141C1169.39 246.705 1181.66 239.302 1193.03 226.776C1193.31 231.899 1197.02 244.449 1210.98 244.449C1220.94 244.449 1228.93 239.608 1232.33 233.615V232.181C1230.05 234.461 1227.21 235.307 1224.93 235.307C1214.97 235.589 1213.82 227.904 1213.82 220.501Z" fill="#1A1F21"></path>
  <path d="M835.462 216.177C828.038 216.177 822.023 222.193 822.023 229.619C822.023 237.046 828.038 243.062 835.462 243.062C842.887 243.062 848.901 237.046 848.901 229.619C848.901 222.193 842.887 216.177 835.462 216.177Z" fill="#1A1F21"></path>
  <path d="M73.6961 301.064C89.4845 297.116 87.511 273.426 87.511 258.785V143.486C87.511 135.589 87.511 133.615 78.2071 133.615H76.5155V133.051L107.246 115.284H108.938V256.529C108.938 273.732 104.991 289.525 95.6871 297.116C88.9206 302.192 77.6432 305.013 66.9532 304.731C58.777 304.731 50.6009 302.757 45.2441 299.09V269.76C50.037 293.168 62.4422 303.579 73.7196 301.064" fill="#1A1F21"></path>
  <path d="M146.976 169.69C146.976 197.328 157.69 242.992 192.626 242.992C223.075 242.992 233.507 218.174 233.507 191.688C233.507 163.768 223.075 116.13 187.269 116.13C157.126 116.13 146.976 143.768 146.976 169.69ZM189.807 112.182C231.51 112.182 254.628 139.538 254.628 179.843C254.628 220.148 230.382 246.376 190.089 246.376C149.795 246.376 125.549 219.584 125.549 179.843C125.549 140.102 150.054 112.182 189.807 112.182Z" fill="#1A1F21"></path>
  <path d="M267.033 148.844C267.315 122.616 292.384 112.487 314.939 112.487C323.961 112.487 344.801 114.743 355.514 121.794V148.844C352.977 144.614 349.312 115.284 314.375 115.284C301.124 115.284 285.336 122.334 284.772 137.564C283.08 172.51 363.126 167.152 363.126 210.301C363.126 238.48 338.034 246.376 314.939 246.376C305.917 246.376 282.798 244.12 269.571 236.223L269.289 209.432C271.544 215.636 281.13 242.404 314.962 243.556C333.006 244.12 344.002 235.941 344.002 220.712C344.002 186.024 266.775 190.818 267.057 148.821" fill="#1A1F21"></path>
  <path d="M402.879 179.561L453.886 169.972C459.525 168.844 463.754 166.87 467.701 164.896C476.723 160.384 480.67 152.487 480.388 144.591C479.542 107.928 433.61 109.056 415.285 130.772C405.417 142.334 401.752 161.23 402.879 179.537M387.937 147.411C398.65 125.413 420.923 112.44 446.274 112.44C484.876 112.44 501.228 139.491 496.717 167.693L403.138 182.64C404.266 193.92 407.367 204.637 411.596 212.816C421.746 231.429 438.944 239.044 455.836 239.044C470.779 239.044 483.748 228.891 495.002 215.354C507.125 200.689 516.993 185.178 524.887 173.075V143.462C524.887 135.566 524.605 133.592 515.301 133.592H513.892V133.028L544.341 115.26H546.032V141.488C556.464 123.439 570.279 113.286 588.863 112.44C630.002 110.748 648.61 137.822 648.61 176.435C648.61 218.151 625.209 246.353 582.096 246.353C568 246.353 555.594 242.122 546.032 232.534V298.503C546.032 312.604 554.772 315.706 559.283 315.706V316.552H512.223V315.706C517.862 315.706 524.91 312.604 524.91 298.503V191.453L547.747 157.61C546.62 162.123 546.056 166.353 546.056 170.301V225.483C553.104 237.328 566.073 243.25 579.019 243.25C614.519 243.25 626.078 209.408 626.078 179.537C626.078 154.156 619.594 116.389 584.939 116.389C566.895 116.389 556.182 133.028 545.492 147.411C528.858 170.254 515.043 195.895 497.586 217.61C484.617 233.685 468.265 246.376 444.324 246.376C425.716 246.376 407.954 239.89 396.418 226.353C386.833 215.354 380.912 199.843 380.912 179.279C380.912 167.152 383.449 156.435 387.96 147.411" fill="#1A1F21"></path>
  <path d="M663.576 243.274V242.428C673.444 242.428 676.263 233.685 676.263 225.225V79.491C676.263 69.6203 674.289 69.3383 665.267 69.6203V69.0563L695.693 45.9307H697.384V132.487C708.662 117.258 723.323 112.464 741.625 112.464C766.435 112.464 786.993 124.027 787.275 151.077L788.403 225.225C788.403 233.403 792.068 242.428 801.372 242.428V243.274H754.312V242.428C764.18 242.428 767.281 233.685 766.999 225.225L766.435 152.487C766.153 130.208 758.541 115.848 736.268 115.848C714.841 115.566 697.384 136.717 697.384 157.563V225.225C697.384 233.403 701.05 242.428 710.636 242.428V243.274H663.576Z" fill="#1A1F21"></path>
</svg>
