<?xml version="1.0" encoding="UTF-8"?>
<svg xmlns="http://www.w3.org/2000/svg" width="379" height="203" viewBox="0 0 379 203" fill="none">
  <path d="M29.75 33.26H30.56V101C30.56 109.25 28.67 116.82 24.21 120.47C20.96 122.9 15.56 124.26 10.42 124.12C6.49999 124.12 2.57999 123.17 0.00999451 121.41V107.35C2.30999 118.57 8.25999 123.57 13.67 122.36C21.24 120.47 20.3 109.11 20.3 102.08V46.78C20.3 42.99 20.3 42.05 15.84 42.05H15.03V41.78L29.77 33.26H29.75ZM168.46 86.53C163.86 81.26 161.02 73.82 161.02 63.95C161.02 58.13 162.24 53 164.4 48.67C169.54 38.12 180.22 31.9 192.39 31.9C210.91 31.9 218.75 44.88 216.59 58.4L171.7 65.57C172.24 70.98 173.73 76.12 175.75 80.04C180.62 88.96 188.87 92.61 196.98 92.61C204.14 92.61 210.36 87.74 215.78 81.25C221.59 74.22 226.32 66.78 230.11 60.97V46.77C230.11 42.99 229.97 42.04 225.51 42.04H224.83V41.77L239.43 33.25H240.24V45.82C245.24 37.17 251.87 32.3 260.79 31.89C280.53 31.08 289.46 44.06 289.46 62.58C289.46 82.59 278.24 96.11 257.55 96.11C250.79 96.11 244.84 94.08 240.24 89.49V109.63C237.63 106.7 234.2 104.45 230.1 102.99V69.39L241.05 53.17C240.51 55.33 240.24 57.36 240.24 59.25V86.11C243.62 91.79 249.84 94.63 256.06 94.63C273.1 94.63 278.64 78.41 278.64 64.07C278.64 51.9 275.53 33.78 258.9 33.78C250.25 33.78 245.11 41.76 239.97 48.65C231.99 59.6 225.37 71.9 216.99 82.32C210.77 90.03 202.92 96.11 191.43 96.11C182.51 96.11 173.99 93 168.44 86.51L168.46 86.53ZM171.57 64.09L196.04 59.49C198.74 58.95 200.77 58 202.66 57.06C206.99 54.9 208.88 51.11 208.74 47.32C208.33 29.74 186.29 30.28 177.5 40.7C172.77 46.24 171.01 55.3 171.55 64.09H171.57ZM319.21 94.24C314.61 94.24 312.86 89.91 312.86 85.99V53.54C312.86 43.53 321.24 33.39 331.52 33.53C342.2 33.53 345.85 40.43 345.99 51.11L346.26 86C346.4 90.05 344.91 94.25 340.18 94.25V94.66H362.76V94.25C358.3 94.25 356.54 89.92 356.54 86L356 50.44C355.87 37.46 345.99 31.91 334.09 31.91C325.3 31.91 318.27 34.21 312.86 41.51V0H312.05L297.45 11.09V11.36C301.78 11.22 302.72 11.36 302.72 16.09V86C302.72 90.05 301.37 94.25 296.64 94.25V94.66H319.22V94.25L319.21 94.24ZM241.52 158.56L240.98 123C240.85 110.02 230.97 104.48 219.08 104.48C209.61 104.48 201.91 107.45 196.77 115.7C193.39 107.31 184.6 104.48 176.22 104.48C166.62 104.48 159.32 107.45 153.91 115.56V105.82H153.1L139.58 114.34V114.61H140.25C144.71 114.61 144.85 115.56 144.85 119.35V158.56C144.85 162.62 143.5 166.81 138.77 166.81V167.22H161.35V166.81C156.76 166.81 155 162.48 155 158.56V126.11C155 116.1 163.38 106.1 173.66 106.1C183.94 106.1 187.99 113 188.13 123.68L188.4 158.57C188.54 162.63 187.05 166.82 182.32 166.82V167.23H204.9V166.82C200.44 166.82 198.68 162.49 198.68 158.57C198.54 147.75 198.14 136.94 198.14 126.12C198.14 116.52 206.25 106.11 216.39 106.11C226.66 105.98 230.85 113.01 230.99 123.69L231.26 158.58C231.39 162.64 229.91 166.83 225.18 166.83V167.24H247.76V166.83C243.3 166.83 241.54 162.5 241.54 158.58L241.52 158.56ZM359.27 105.83V106.24C362.51 106.38 367.25 111.11 366.03 115.03L350.89 148.83C348.59 154.24 348.19 154.37 345.48 148.69L328.85 113.53C327.77 111.23 328.04 107.18 332.77 106.23V105.82H307.89V106.23C310.19 106.23 315.06 108.8 317.09 112.85L340.62 161.8C342.51 165.85 342.38 167.62 340.89 170.86L335.75 182.08C330.34 193.71 318.44 197.22 311.95 189.79L316.01 202.36C326.83 202.36 332.1 193.57 334.26 188.7L346.03 162.74L367.26 115.82C369.96 110.95 374.16 106.9 378.21 106.22V105.81H359.28L359.27 105.83ZM100.46 64.23C100.46 83.3 88.83 96.14 69.5 96.14C50.17 96.14 38.54 83.3 38.54 64.23C38.54 45.16 50.3 31.78 69.37 31.78C89.38 31.78 100.47 44.9 100.47 64.23H100.46ZM90.32 69.91C90.32 56.52 85.32 33.67 68.15 33.67C53.68 33.67 48.81 46.92 48.81 59.36C48.81 72.61 53.95 94.52 70.72 94.52C85.32 94.52 90.33 82.62 90.33 69.91H90.32ZM308.02 163.57C309.1 163.57 310.45 163.16 311.54 162.08V162.76C309.92 165.6 306.13 167.9 301.4 167.9C294.78 167.9 293.02 161.95 292.88 159.52C287.47 165.47 281.66 168.98 268.95 168.71C264.35 168.57 260.16 167.36 257.59 165.2C254.88 162.9 253.53 159.65 253.4 156.14C253.27 150.87 255.83 145.19 259.89 141.94C265.97 137.07 271.92 134.78 277.47 132.48C289.1 127.75 293.69 124.5 293.56 115.85C293.42 109.77 289.1 104.5 279.09 105.85C270.3 107.07 261.92 115.72 255.7 126.13V115.04C261.11 108.01 270.98 104.76 279.23 104.49C293.97 104.08 302.76 110.44 302.76 125.99V156.55C302.76 160.07 303.3 163.72 308.03 163.58L308.02 163.57ZM292.61 127.33C280.17 131.8 264.08 138.96 264.08 153.7C264.08 162.49 269.49 166.68 275.3 166.81C282.6 167.08 292.61 161.13 292.61 154.91V127.32V127.33ZM152.51 78.83C152.51 58.14 114.11 60.71 114.92 43.94C115.19 36.64 122.76 33.26 129.12 33.26C145.89 33.26 147.64 47.32 148.86 49.35V36.37C143.72 32.99 133.72 31.91 129.39 31.91C118.57 31.91 106.54 36.78 106.4 49.35C106.26 69.5 143.31 67.2 143.31 83.83C143.31 91.13 138.04 95.05 129.38 94.78C113.15 94.24 108.56 81.39 107.47 78.42L107.6 91.26C113.95 95.05 125.04 96.13 129.37 96.13C140.45 96.13 152.49 92.34 152.49 78.82L152.51 78.83ZM123.1 154.47C119.58 154.47 116.72 157.33 116.72 160.85C116.72 164.37 119.58 167.23 123.1 167.23C126.62 167.23 129.48 164.37 129.48 160.85C129.48 157.33 126.62 154.47 123.1 154.47Z" fill="white"></path>
</svg>
