<?xml version="1.0" encoding="UTF-8"?>
<svg xmlns="http://www.w3.org/2000/svg" width="1235" height="389" viewBox="0 0 1235 389" fill="none">
  <path d="M470.011 333.326V252.652C470.011 232.998 463.018 223.845 446.634 223.845C428.623 223.845 421.102 233.533 421.102 253.186V333.326H376.482V187.965H418.134V203.418H418.662C428.074 188.48 441.247 182.992 459.237 182.992C486.111 182.992 514.591 197.653 514.591 240.606V333.326H470.011Z" fill="#475051"></path>
  <path d="M613.22 337.784C567.807 337.784 532.863 305.034 532.863 260.516C532.863 215.464 568.599 183.249 613.22 183.249C658.104 183.249 693.576 215.998 693.576 260.001C693.576 305.569 658.104 337.784 613.22 337.784ZM648.956 260.516C648.956 241.14 633.913 223.844 612.935 223.844C593.318 223.844 577.462 240.605 577.462 260.516C577.462 280.427 593.054 297.188 613.199 297.188C634.178 297.188 648.956 279.893 648.956 260.516Z" fill="#475051"></path>
  <path d="M782.259 228.817C781.995 220.437 775.815 217.821 768.558 217.821C761.037 217.821 755.65 222.002 755.65 227.51C755.65 235.375 762.907 239.298 783.601 244.528C819.073 253.701 830.64 267.57 830.64 288.789C830.64 319.18 803.766 338.299 769.9 338.299C736.297 338.299 712.391 319.695 709.159 290.096H753.495C754.836 299.269 761.565 303.449 770.428 303.449C778.214 303.449 786.02 298.992 786.02 292.176C786.02 284.053 780.917 279.873 758.597 273.058C720.97 261.804 711.029 247.381 711.029 230.363C711.029 201.556 738.716 182.952 768.802 182.952C801.042 182.952 823.891 200.248 826.046 228.797H782.259V228.817Z" fill="#475051"></path>
  <path d="M1190.38 333.323V317.612H1189.85C1183.41 330.45 1165.66 338.296 1146.04 338.296C1101.97 338.296 1071.34 304.516 1071.34 260.514C1071.34 217.561 1103.31 182.989 1146.04 182.989C1164.32 182.989 1181.25 190.062 1189.85 203.415H1190.38V187.962H1235V333.323H1190.38ZM1190.38 260.514C1190.38 240.087 1173.45 223.584 1152.49 223.584C1132.06 223.584 1115.94 240.087 1115.94 261.049C1115.94 281.217 1132.32 297.721 1153.02 297.721C1174 297.701 1190.38 281.475 1190.38 260.514Z" fill="#475051"></path>
  <path d="M894.263 139.524H849.562V284.965C849.562 314.742 868.081 333.227 904.875 333.227C919.592 333.227 934.635 331.048 943.762 328.67V290.849C935.285 293.246 925.691 294.97 914.104 294.97C902.049 294.97 894.243 291.701 894.243 279.318V221.487H944.657V187.806H894.243L894.263 139.524Z" fill="#475051"></path>
  <path d="M1009.46 204.884V187.945H966.524V333.128H1010.98V264.34C1010.98 235.355 1027.49 227.51 1045.72 227.51C1050.28 227.51 1055.05 227.728 1060.05 228.996V187.945C1057 187.093 1052.45 186.459 1048.1 186.459C1035.94 186.479 1018.79 190.283 1009.46 204.884Z" fill="#475051"></path>
  <path d="M131.604 388.361C204.287 388.361 263.209 330.935 263.209 260.097C263.209 189.259 204.287 131.833 131.604 131.833C58.9213 131.833 0 189.259 0 260.097C0 330.935 58.9213 388.361 131.604 388.361Z" fill="#3CB4E5"></path>
  <path d="M224.182 222.914C266.912 222.914 301.551 189.154 301.551 147.509C301.551 105.864 266.912 72.1045 224.182 72.1045C181.452 72.1045 146.813 105.864 146.813 147.509C146.813 189.154 181.452 222.914 224.182 222.914Z" fill="#7473C0"></path>
  <path d="M97.5304 111.032C128.809 111.032 154.165 86.3199 154.165 55.8357C154.165 25.3515 128.809 0.63916 97.5304 0.63916C66.2522 0.63916 40.8962 25.3515 40.8962 55.8357C40.8962 86.3199 66.2522 111.032 97.5304 111.032Z" fill="#00CE7C"></path>
</svg>
