<?xml version="1.0" encoding="UTF-8"?>
<svg xmlns="http://www.w3.org/2000/svg" width="1627" height="279" viewBox="0 0 1627 279" fill="none">
  <g clip-path="url(#clip0_139_591)">
    <path d="M1116.98 117.872H1022.17V148.453H1116.98V117.872Z" fill="#99042E"></path>
    <path d="M143.961 59.2147C139.074 52.6973 132.721 46.6814 124.413 42.6707C116.105 38.1587 106.819 36.1534 96.5564 36.1534C91.1805 36.1534 85.8048 37.1561 79.9402 38.66C74.5645 40.164 69.1886 42.6707 64.7903 46.1801C60.3918 49.6894 56.4822 53.7001 53.55 58.7134C50.6176 63.7266 49.1515 69.7427 49.1515 76.7614C49.1515 83.78 50.6176 89.2947 53.0613 93.8066C55.5048 98.3187 59.4144 102.329 63.8129 105.337C68.2112 108.345 73.5871 111.353 79.4515 113.359C85.3161 115.364 91.6692 117.871 98.5112 120.377C106.819 122.884 115.127 125.892 123.435 128.9C131.744 132.409 139.563 136.42 146.405 141.935C153.247 147.45 158.622 153.967 163.021 161.988C167.419 170.009 169.374 180.037 169.374 192.569C169.374 205.605 166.93 216.633 162.532 226.158C157.645 235.684 151.781 243.203 143.961 249.722C136.142 255.737 127.345 260.751 117.082 263.758C106.819 266.767 96.5564 268.271 85.8048 268.271C70.6547 268.271 55.9935 265.262 41.8208 259.247C27.6483 253.23 15.9193 244.207 6.63379 232.175L33.0242 209.614C38.8886 218.137 46.2193 225.156 55.9935 230.671C65.7677 236.186 76.0306 238.692 87.2709 238.692C93.1354 238.692 98.5112 237.69 104.376 236.186C110.24 234.681 115.127 232.175 120.014 228.665C124.902 225.156 128.322 220.644 131.255 215.631C134.187 210.618 135.653 204.099 135.653 196.58C135.653 189.06 134.187 183.044 131.255 178.031C128.322 173.018 123.924 168.505 119.037 165.497C113.661 161.988 107.797 158.98 100.955 156.473C94.1129 153.967 86.7822 151.459 78.9628 148.953C71.1434 146.446 63.8129 143.94 55.9935 140.431C48.6628 136.921 41.8208 132.91 35.9564 127.396C30.0918 122.383 25.2048 115.865 21.7837 107.844C18.3628 100.324 16.408 90.7987 16.408 79.268C16.408 66.7347 18.8515 56.2067 23.7387 47.1827C28.6257 38.1587 34.979 31.14 42.7982 25.1241C50.6176 19.108 59.4144 15.0974 69.1886 12.5907C78.9628 10.0841 89.2257 8.58008 98.9999 8.58008C113.172 8.58008 126.368 11.0867 138.586 16.1001C150.803 21.1133 160.577 28.1321 168.396 36.6547L143.961 59.2147Z" fill="#99042E"></path>
    <path d="M809.583 203.598H810.56L881.912 13.5928H934.205V261.251H900.483V54.2007H899.994L819.846 261.251H798.343L718.194 54.2007H717.705V261.251H684.962V13.5928H737.742L809.583 203.598Z" fill="#99042E"></path>
    <path d="M1193.22 261.251H1159.5V13.5928H1236.71C1248.44 13.5928 1259.2 14.5954 1269.95 17.1021C1280.21 19.6088 1289.5 23.6194 1297.32 28.6328C1305.14 34.1474 1311.49 41.1661 1315.89 49.6888C1320.29 58.2115 1322.73 69.2408 1322.73 81.7741C1322.73 99.8221 1317.36 114.862 1306.12 125.891C1295.35 136.921 1281.19 144.441 1263.59 147.448L1331.04 261.251H1289.98L1228.41 150.958H1192.24V261.251H1193.22ZM1193.22 121.881H1232.32C1240.13 121.881 1247.47 121.379 1254.31 119.875C1261.15 118.371 1267.01 116.366 1272.39 112.857C1277.28 109.849 1281.68 105.838 1284.61 100.825C1287.54 95.8114 1289.01 89.7954 1289.01 82.2754C1289.01 74.7554 1287.54 68.7395 1284.61 63.7261C1281.68 58.7128 1277.77 54.702 1272.88 51.6941C1267.99 48.6861 1262.13 46.6808 1255.77 45.1767C1249.42 43.6727 1242.09 43.1714 1234.76 43.1714H1193.71V121.881H1193.22Z" fill="#99042E"></path>
    <path d="M1376 261.251H1338.37L1442.95 13.5928H1473.74L1577.35 261.251H1539.23L1514.79 200.59H1399.95L1376 261.251ZM1412.17 170.009H1502.58L1457.61 53.6994L1412.17 170.009Z" fill="#99042E"></path>
    <path d="M660.038 140.431C660.038 208.612 606.281 264.26 539.327 264.26C472.374 264.26 418.616 209.114 418.616 140.431C418.616 72.2495 472.374 16.6016 539.327 16.6016C606.281 16.6016 660.038 71.7482 660.038 140.431ZM539.327 51.1935C491.433 51.1935 452.337 91.3002 452.337 140.431C452.337 189.561 491.433 229.669 539.327 229.669C587.22 229.669 626.318 189.561 626.318 140.431C626.318 91.3002 587.22 51.1935 539.327 51.1935Z" fill="#99042E"></path>
    <path d="M237.793 116.867V115.363V13.5928H204.071V261.251H237.793V149.454V147.95V116.867Z" fill="#99042E"></path>
    <path d="M1001.16 230.169V149.454V147.95V117.87V115.363V43.6727H1122.36V13.5928H967.436V261.251H1127.24V230.169H1001.16Z" fill="#99042E"></path>
    <path d="M359.971 13.5928V116.867V117.87H258.319V148.452H359.971V261.251H394.18V13.5928H359.971Z" fill="#99042E"></path>
    <path d="M1593.96 16.0995H1587.12V34.6487H1584.19V16.0995H1577.35V13.5928H1593.96V16.0995ZM1620.84 34.6487H1617.91V16.6008L1611.07 34.6487H1609.11L1602.27 16.6008V34.6487H1599.34V13.5928H1604.23L1610.58 30.1368L1616.93 13.5928H1621.33V34.6487H1620.84Z" fill="#99042E"></path>
    <rect x="1618.38" y="-338.312" width="378.54" height="347.5" fill="#D9D9D9"></rect>
  </g>
  <defs>
    <clipPath id="clip0_139_591">
      <rect width="1626" height="278" fill="white" transform="translate(0.981445 0.5)"></rect>
    </clipPath>
  </defs>
</svg>
