<?xml version="1.0" encoding="UTF-8"?>
<svg xmlns="http://www.w3.org/2000/svg" width="1229" height="287" viewBox="0 0 1229 287" fill="none">
  <g clip-path="url(#clip0_140_737)">
    <path d="M44.9007 160.988V160.331C44.9007 155.565 53.363 154.477 53.363 146.015V21.6885H29.7212C17.5813 21.6885 15.8363 45.9871 8.23714 45.9871H5.62904C3.02093 45.9871 1.5011 44.2421 1.93266 40.996L5.83543 15.384C6.26699 11.7064 8.01198 9.96143 11.9148 9.96143H120.836C124.739 9.96143 126.484 11.7064 127.122 15.384L131.888 41.2024C132.526 44.2421 130.799 45.9683 128.191 45.9683H125.583C117.984 45.9683 115.17 21.6697 103.03 21.6697H79.3878V145.996C79.3878 154.458 88.0565 155.546 88.0565 160.312V160.969C88.0565 162.92 86.3115 164.009 83.2906 164.009H49.4415C46.627 164.009 44.882 162.92 44.882 160.969" fill="#FF585D"></path>
    <path d="M131.906 85.2588C131.906 40.3393 161.628 8.02881 203.939 8.02881C238.22 8.02881 264.47 30.6011 264.47 48.5952C264.47 55.7628 259.91 60.5287 252.105 60.5287C232.14 60.5287 233.229 19.0992 198.085 19.0992C176.601 19.0992 157.725 39.2698 157.725 70.0792C157.725 113.46 184.631 142.975 212.176 142.975C236.043 142.975 250.791 124.962 257.302 111.302C260.342 106.743 267.49 107.831 266.627 114.342C262.931 141.455 242.329 166.204 205.44 166.204C166.394 166.204 131.888 126.726 131.888 85.2776" fill="#FF585D"></path>
    <path d="M496.197 160.331V160.988C496.197 162.939 494.452 164.027 491.637 164.027H458.651C455.837 164.027 454.092 162.939 454.092 160.988V160.331C454.092 155.565 462.986 154.045 461.466 145.583L444.11 45.5555L404.181 158.586C402.887 162.057 401.142 163.802 397.896 163.802C394.424 163.802 392.248 162.282 390.953 158.811L348.435 42.9474L332.374 145.564C331.079 153.801 340.611 155.546 340.611 160.312V160.969C340.611 162.92 338.66 164.009 335.845 164.009H313.93C311.115 164.009 309.145 162.92 309.145 160.969V160.312C309.145 155.546 316.519 153.801 317.832 145.564L337.365 28.4058C338.66 19.9435 329.991 18.4237 329.991 13.8642V13.2075C329.991 11.2561 331.511 9.96143 333.894 9.96143H368.813C371.421 9.96143 372.94 11.2561 372.94 13.2075V13.8642C372.94 17.5606 364.253 20.6003 367.086 28.4058L401.367 127.983L436.304 27.3175C438.687 19.9435 429.793 17.5606 429.793 13.8642V13.2075C429.793 11.2561 431.313 9.96143 433.696 9.96143H469.497C471.88 9.96143 473.399 11.0497 473.399 13.0011V13.6578C473.399 18.6489 464.074 19.9435 465.8 29.7192L487.491 145.583C489.236 154.252 496.178 155.565 496.178 160.331" fill="#FF585D"></path>
    <path d="M601.685 83.0821V145.996C601.685 154.458 609.922 155.753 609.922 160.312V160.969C609.922 162.92 608.627 164.009 606.225 164.009H583.653C581.27 164.009 579.525 162.282 579.525 159.881V151.193C572.583 160.95 560.649 166.166 548.284 166.166C521.809 166.166 497.736 145.564 497.736 111.715C497.736 79.8173 520.308 57.6953 548.716 57.6953C561.944 57.6953 572.357 63.1179 579.525 71.3738V63.3431C579.525 59.6655 582.565 57.4889 587.556 58.7836L606.432 62.6863C609.04 63.3431 610.335 64.8629 610.335 67.2459V67.9026C610.335 71.599 601.666 73.5503 601.666 83.0821M577.18 129.953V95.2408C577.18 81.3559 564.815 65.9512 549.616 65.9512C533.574 65.9512 522.935 79.8361 522.503 102.84C521.847 132.355 534.437 157.516 554.176 157.948C564.815 157.948 577.18 148.829 577.18 129.953Z" fill="#FF585D"></path>
    <path d="M631.856 131.041V70.5104H619.491C617.314 70.5104 615.794 68.9906 615.794 66.8141V63.7744C615.794 61.3914 617.089 59.8716 619.491 59.8716H626.208C637.485 59.8716 644.202 51.4093 645.947 38.8191C646.379 35.7795 648.105 34.0532 650.281 34.0532H653.528C656.361 34.0532 657.655 35.7982 657.655 38.8191L657.862 59.8716H685.2C687.377 59.8716 689.103 61.5978 689.103 63.7744V66.8141C689.103 68.9906 687.377 70.5104 685.2 70.5104H657.862V131.266C657.862 141.68 663.059 147.328 670.227 147.328C679.346 147.328 684.337 142.337 685.632 136.051C687.583 132.58 692.78 133.236 692.78 137.139C692.78 151.681 681.71 166.204 662.196 166.204C643.977 166.204 631.818 154.495 631.818 131.06" fill="#FF585D"></path>
    <path d="M699.554 131.041V70.5104H687.189C685.013 70.5104 683.493 68.9906 683.493 66.8141V63.7744C683.493 61.3914 684.788 59.8716 687.189 59.8716H693.907C705.183 59.8716 711.919 51.4093 713.646 38.8191C714.077 35.7795 715.822 34.0532 717.98 34.0532H721.245C724.059 34.0532 725.373 35.7982 725.373 38.8191L725.598 59.8716H752.936C755.113 59.8716 756.839 61.5978 756.839 63.7744V66.8141C756.839 68.9906 755.113 70.5104 752.936 70.5104H725.598V131.266C725.598 141.68 730.814 147.328 737.963 147.328C747.082 147.328 752.073 142.337 753.368 136.051C755.319 132.58 760.535 133.236 760.535 137.139C760.535 151.681 749.465 166.204 729.951 166.204C711.732 166.204 699.573 154.495 699.573 131.06" fill="#FF585D"></path>
    <path d="M879.626 160.106V160.969C879.626 162.92 877.9 164.008 875.067 164.008H843.169C840.355 164.008 838.61 162.92 838.61 160.969V160.106C838.61 155.115 846.847 154.251 846.415 145.789L844.239 102.84C843.15 79.198 834.688 68.1276 821.46 68.1276C807.575 68.1276 798.681 79.4044 798.681 95.0342V146.014C798.681 154.477 807.575 155.133 807.575 160.124V160.781C807.575 162.732 805.624 164.046 802.809 164.046H769.185C766.371 164.046 764.626 162.751 764.626 160.781V160.124C764.626 155.133 773.294 154.477 773.294 146.014V30.8073C773.294 21.6883 764.194 21.0503 764.194 16.6972V16.0405C764.194 14.0891 765.489 12.5693 767.872 11.481L791.082 1.29252C795.416 -0.658868 798.024 0.860947 798.024 4.76373L797.799 72.2368C804.31 63.1178 815.155 57.6952 828.177 57.6952C848.573 57.6952 867.242 70.7169 869.175 103.478L871.783 145.564C872.44 154.251 879.589 155.115 879.589 160.106" fill="#FF585D"></path>
    <path d="M977.477 134.288C975.526 147.084 960.984 166.185 933.44 166.185C904.375 166.185 882.028 144.701 882.028 111.077C882.028 80.0615 905.238 57.7144 933.871 57.7144C962.504 57.7144 974.438 74.4137 974.438 89.6121C974.438 97.8492 970.103 102.409 963.386 104.81L910.886 124.118C916.309 138.866 927.379 147.985 942.784 147.985C956.444 147.985 966.219 140.836 970.554 132.149C972.937 129.109 977.928 129.972 977.496 134.325M907.19 101.32C907.19 106.311 907.621 110.871 908.484 115.205L944.51 99.5754C948.413 97.8492 950.158 94.8095 950.158 90.4564C950.158 81.5626 942.127 65.9327 929.556 65.9327C915.896 65.9327 907.209 80.4743 907.209 101.302" fill="#FF585D"></path>
    <path d="M1138.47 62.9118V63.7749C1138.47 68.5407 1130.87 68.9723 1127.62 78.0913L1098.33 159.243C1097.24 162.489 1095.72 164.009 1092.25 164.009H1086.6C1083.13 164.009 1080.96 162.489 1080.09 159.243L1057.75 88.9553L1035.4 159.243C1034.31 162.489 1032.36 164.009 1029.11 164.009H1025.21C1021.74 164.009 1019.99 162.489 1018.7 159.243L986.164 78.0913C982.899 69.4226 976.839 68.3343 976.839 63.7749V62.9118C976.839 60.9604 978.359 59.8721 980.742 59.8721H1014.16C1016.54 59.8721 1017.86 61.1668 1017.86 63.1182V63.7749C1017.86 68.3343 1008.1 68.5407 1011.57 78.3165L1031.97 137.552L1054.52 64.4316C1055.38 61.8235 1056.47 60.5288 1058.87 60.5288L1069.29 60.3224C1071.89 60.3224 1072.96 61.6171 1073.62 64L1095.74 137.759L1115.71 80.4743C1119.61 68.9723 1107.45 68.5407 1107.45 63.7749V63.1182C1107.45 61.1668 1109.2 59.8721 1111.35 59.8721H1134.79C1137.17 59.8721 1138.49 60.9604 1138.49 62.9118" fill="#FF585D"></path>
    <path d="M1138.04 141.024C1138.04 134.306 1142.59 131.042 1148.88 131.042C1165.15 131.042 1158 158.605 1183.37 158.605C1194.87 158.605 1203.33 152.957 1203.33 141.906C1203.33 112.616 1140.19 131.923 1140.19 88.5238C1140.19 70.9613 1157.76 57.7144 1182.71 57.7144C1209.82 57.7144 1226.11 70.9425 1226.11 83.5327C1226.11 88.9553 1221.78 92.8581 1216.13 92.8581C1200.95 92.8581 1206.8 65.5199 1184.02 65.5199C1173.4 65.5199 1165.81 72.8939 1165.81 82.2193C1165.81 111.734 1228.94 92.8581 1228.94 135.807C1228.94 152.732 1211.38 165.96 1183.39 165.96C1155.39 165.96 1138.05 152.938 1138.05 141.005" fill="#FF585D"></path>
    <path d="M166.578 229.636V221.07H205.897V229.636H190.872V270.219H181.604V229.636H166.578ZM212.132 270.219V221.07H221.4V240.87H242.885V221.07H252.153V270.219H242.885V249.436H221.4V270.219H212.132ZM261.706 270.219V221.07H295.619V229.355H270.974V240.659H293.653V248.944H270.974V261.934H295.829V270.219H261.706ZM319.533 270.219L339.403 221.07H348.25L368.12 270.219H358.22L353.305 257.37H334.348L329.433 270.219H319.533ZM342.001 237.289L337.507 249.085H350.146L345.652 237.289L345.09 235.744L343.827 231.953L342.563 235.744L342.001 237.289ZM400.948 270.219L389.573 250.278H381.71V270.219H372.441V221.07H393.435C398.818 221.07 403.078 222.334 406.214 224.861C409.35 227.342 410.918 230.713 410.918 234.972C410.918 241.9 407.173 246.721 399.684 249.436L411.55 270.219H400.948ZM381.71 229.215V242.134H393.435C398.912 242.134 401.65 239.981 401.65 235.674C401.65 231.368 398.912 229.215 393.435 229.215H381.71ZM414.928 229.636V221.07H454.247V229.636H439.221V270.219H429.953V229.636H414.928ZM521.311 227.389C526.132 232.257 528.543 238.342 528.543 245.644C528.543 252.946 526.132 259.032 521.311 263.9C516.49 268.768 510.475 271.202 503.267 271.202C496.058 271.202 490.043 268.768 485.222 263.9C480.401 259.032 477.99 252.946 477.99 245.644C477.99 238.342 480.401 232.257 485.222 227.389C490.043 222.521 496.058 220.087 503.267 220.087C510.475 220.087 516.49 222.521 521.311 227.389ZM491.892 258.072C494.888 261.115 498.679 262.636 503.267 262.636C507.854 262.636 511.645 261.115 514.641 258.072C517.637 254.983 519.135 250.84 519.135 245.644C519.135 240.449 517.637 236.33 514.641 233.287C511.645 230.198 507.854 228.653 503.267 228.653C498.679 228.653 494.888 230.198 491.892 233.287C488.896 236.33 487.399 240.449 487.399 245.644C487.399 250.84 488.896 254.983 491.892 258.072ZM535.974 270.219V221.07H570.729V229.355H545.242V242.064H568.622V250.349H545.242V270.219H535.974ZM598.781 270.219V221.07H633.536V229.355H608.049V242.064H631.43V250.349H608.049V270.219H598.781ZM640.881 270.219V221.07H650.149V270.219H640.881ZM659.737 270.219V221.07H669.145L689.647 252.315C689.741 252.455 690.045 252.97 690.56 253.859C691.075 254.702 691.473 255.474 691.754 256.176V221.07H700.741V270.219H691.332L670.83 238.764C670.737 238.623 670.432 238.108 669.918 237.219C669.309 236.189 668.911 235.417 668.724 234.902V270.219H659.737ZM710.339 270.219V221.07H744.252V229.355H719.607V240.659H742.286V248.944H719.607V261.934H744.462V270.219H710.339ZM772.941 270.219V221.07H807.696V229.355H782.209V242.064H805.589V250.349H782.209V270.219H772.941ZM815.041 270.219V221.07H824.309V261.653H848.953V270.219H815.041ZM893.355 227.389C898.176 232.257 900.587 238.342 900.587 245.644C900.587 252.946 898.176 259.032 893.355 263.9C888.534 268.768 882.519 271.202 875.31 271.202C868.102 271.202 862.087 268.768 857.266 263.9C852.445 259.032 850.034 252.946 850.034 245.644C850.034 238.342 852.445 232.257 857.266 227.389C862.087 222.521 868.102 220.087 875.31 220.087C882.519 220.087 888.534 222.521 893.355 227.389ZM863.936 258.072C866.932 261.115 870.723 262.636 875.31 262.636C879.898 262.636 883.689 261.115 886.685 258.072C889.681 254.983 891.178 250.84 891.178 245.644C891.178 240.449 889.681 236.33 886.685 233.287C883.689 230.198 879.898 228.653 875.31 228.653C870.723 228.653 866.932 230.198 863.936 233.287C860.94 236.33 859.442 240.449 859.442 245.644C859.442 250.84 860.94 254.983 863.936 258.072ZM950.334 227.389C955.155 232.257 957.566 238.342 957.566 245.644C957.566 252.946 955.155 259.032 950.334 263.9C945.513 268.768 939.498 271.202 932.29 271.202C925.081 271.202 919.066 268.768 914.245 263.9C909.424 259.032 907.013 252.946 907.013 245.644C907.013 238.342 909.424 232.257 914.245 227.389C919.066 222.521 925.081 220.087 932.29 220.087C939.498 220.087 945.513 222.521 950.334 227.389ZM920.915 258.072C923.911 261.115 927.702 262.636 932.29 262.636C936.877 262.636 940.668 261.115 943.664 258.072C946.66 254.983 948.158 250.84 948.158 245.644C948.158 240.449 946.66 236.33 943.664 233.287C940.668 230.198 936.877 228.653 932.29 228.653C927.702 228.653 923.911 230.198 920.915 233.287C917.919 236.33 916.422 240.449 916.422 245.644C916.422 250.84 917.919 254.983 920.915 258.072ZM993.503 270.219L982.128 250.278H974.265V270.219H964.996V221.07H985.99C991.373 221.07 995.633 222.334 998.769 224.861C1001.9 227.342 1003.47 230.713 1003.47 234.972C1003.47 241.9 999.728 246.721 992.239 249.436L1004.1 270.219H993.503ZM974.265 229.215V242.134H985.99C991.467 242.134 994.205 239.981 994.205 235.674C994.205 231.368 991.467 229.215 985.99 229.215H974.265ZM1018.55 233.357C1018.55 235.276 1019.49 236.821 1021.36 237.991C1023.23 239.161 1026.25 240.168 1030.42 241.01C1035.89 242.134 1039.94 243.912 1042.56 246.347C1045.19 248.734 1046.5 251.987 1046.5 256.106C1046.5 260.319 1044.81 263.9 1041.44 266.849C1038.12 269.751 1033.69 271.202 1028.17 271.202C1022.32 271.202 1017.66 269.774 1014.2 266.919C1010.74 264.063 1008.51 260.249 1007.53 255.474L1015.67 251.332C1016.38 255.17 1017.71 258.095 1019.68 260.108C1021.69 262.074 1024.5 263.057 1028.1 263.057C1030.91 263.057 1033.13 262.449 1034.77 261.232C1036.41 260.015 1037.23 258.423 1037.23 256.457C1037.23 254.304 1036.25 252.619 1034.28 251.402C1032.36 250.185 1029.29 249.155 1025.08 248.312C1020.4 247.423 1016.66 245.738 1013.85 243.257C1011.09 240.776 1009.71 237.547 1009.71 233.568C1009.71 229.496 1011.3 226.242 1014.48 223.808C1017.66 221.327 1021.83 220.087 1026.98 220.087C1036.39 220.087 1042.61 224.3 1045.65 232.725L1038.35 236.938C1036.39 231.134 1032.52 228.232 1026.77 228.232C1024.43 228.232 1022.46 228.676 1020.87 229.566C1019.32 230.408 1018.55 231.672 1018.55 233.357Z" fill="#FF585D"></path>
  </g>
  <defs>
    <clipPath id="clip0_140_737">
      <rect width="1229" height="286.554" fill="white" transform="translate(0 0.223145)"></rect>
    </clipPath>
  </defs>
</svg>
