<?xml version="1.0" encoding="UTF-8"?>
<svg xmlns="http://www.w3.org/2000/svg" width="760" height="535" viewBox="0 0 760 535" fill="none">
  <path d="M74.5259 186.205C86.5963 186.245 88.3221 186.032 88.918 179.786L89.2798 176.348C89.7475 175.701 91.8097 175.931 92.151 176.578C91.897 182.709 91.7698 186.368 91.7484 190.668C91.733 194.985 91.831 198.752 92.0327 205.639C91.6864 206.28 89.7312 206.493 89.1596 205.63L88.8275 201.748C88.2812 195.609 86.5595 195.068 74.4933 195.018L23.1217 194.839C19.5565 194.83 19.4414 194.83 19.4291 198.055L19.4047 203.973C19.3834 208.609 19.5892 214.527 22.2228 217.226C24.7406 219.819 27.2674 220.902 30.1346 222.1C30.822 222.962 30.2382 224.463 29.3172 224.899C24.1535 223.152 16.8028 221.518 12.2057 220.747C11.9844 220.418 11.8726 219.023 12.2139 218.696C15.8999 218.063 15.797 214.519 15.8174 209.569L15.9978 165.968C16.0182 160.148 15.797 159.188 12.8139 157.564C12.5845 157.021 12.6988 155.84 13.1625 155.618C17.8715 156.825 27.1775 157.612 30.6276 157.301C31.5445 157.735 31.5363 159.557 30.8464 160.106C27.9702 160.419 23.7136 161.15 22.4441 162.766C20.4798 165.237 19.5442 169.322 19.5189 175.24L19.4904 182.882C19.4732 186.107 19.5892 186.001 23.3813 186.017L74.5259 186.205Z" fill="white"></path>
  <path d="M54.8917 126.714C54.867 131.885 55.094 132.098 58.5441 132.106L74.7487 132.164C86.8151 132.204 88.425 131.68 89.1393 125.656L89.5017 122.521C89.9607 121.882 92.0285 122.109 92.3698 122.75C92.1223 128.562 91.9869 132.229 91.9706 136.423C91.9543 141.053 92.1673 144.712 92.2661 148.914C91.9175 149.555 90.0806 149.767 89.3907 149.112L89.0576 147.281C87.9286 141.257 86.7816 141.036 74.7144 140.986L33.3364 140.848C21.2733 140.796 19.3132 141.545 18.8291 147.139L18.5866 149.939C18.1262 150.579 16.0599 150.367 15.7186 149.719C15.8542 144.44 16.1007 140.779 16.117 136.151C16.1374 131.958 16.0346 128.29 15.8215 123.66C16.1701 123.022 18.2372 122.817 18.6968 123.464L18.9197 125.508C19.581 131.753 21.3059 131.977 33.3732 132.016L46.5889 132.064C50.1556 132.081 50.2699 131.868 50.2904 126.689L50.4177 95.9062C50.4342 90.7441 50.3239 90.5312 46.7611 90.5145L33.5412 90.4665C21.4792 90.4247 19.7492 90.6293 19.034 96.9813L18.8005 99.0248C18.3319 99.674 16.2656 99.4423 15.9244 98.7952C16.1742 93.8543 16.3015 90.1867 16.3219 85.7802C16.3432 81.5762 16.2411 77.917 16.0305 73.0763C16.3807 72.4271 18.4429 72.2226 18.9074 72.8697L19.1246 75.1283C19.7859 81.38 21.5158 81.6013 33.578 81.643L74.9537 81.7912C87.0241 81.8392 88.5148 81.6263 89.3458 75.3808L89.6986 72.7966C90.163 72.1558 92.2335 72.3687 92.5746 73.0262C92.3232 78.1884 92.1917 81.8476 92.1754 86.0495C92.1591 90.4581 92.258 94.3386 92.4678 99.0749C92.1223 99.7137 90.2815 99.9182 89.5956 99.2795L89.2553 97.2359C88.1334 90.6627 86.9831 90.6543 74.9211 90.6126L58.7082 90.5562C55.2622 90.5395 55.0353 90.7524 55.0116 95.9229L54.8917 126.714Z" fill="white"></path>
  <path d="M33.6932 54.0851C21.7371 54.0454 20.0128 54.25 19.1818 60.602L18.9483 62.3157C18.4797 62.9732 16.4175 62.7436 16.0762 62.0944C16.322 57.4667 16.4501 53.8054 16.4705 49.3905L16.553 29.1532C16.5815 22.2752 16.606 15.9149 16.2656 14.6269C18.2249 13.9861 26.4982 13.3703 31.5608 12.9528C32.2515 13.3954 32.4686 15.1112 31.7788 15.6518C26.3676 17.2445 22.3413 18.1964 20.826 23.7864C20.2423 26.0513 20.1108 29.4976 20.0945 34.2339L20.061 41.9803C20.0537 45.2137 20.279 45.2137 24.6467 45.222L47.6372 45.3118C50.8497 45.3201 50.8497 44.9924 50.8618 41.7673L50.8904 35.5302C50.9028 30.9984 50.6938 27.6586 50.2373 26.3707C49.7811 25.0744 49.0993 24.3188 46.2281 23.7781L41.5151 22.8993C40.8291 22.3587 40.8375 20.528 41.6423 20.1022C44.4034 20.1105 48.8822 20.5531 53.2531 20.5698C57.3898 20.5865 61.7574 20.1669 64.2884 20.1753C65.0901 20.6178 65.0778 22.4484 64.3862 22.9828L59.9001 23.9347C57.8298 24.3522 56.0999 25.1078 55.5201 27.2495C55.0516 28.7503 54.9341 31.3449 54.9128 35.5385L54.8917 41.7736C54.8754 45.0174 54.9953 45.3284 57.9735 45.3451L74.1814 45.4099C80.2691 45.4182 84.1855 45.1134 86.1398 43.408C87.5252 42.1201 88.807 39.8615 88.8438 30.3847C88.8731 22.104 88.425 18.9687 87.1718 16.5954C86.0305 14.6603 82.0194 11.738 76.0549 8.92415C75.4835 8.16851 75.8321 6.65934 76.8681 6.23142C80.8896 7.00376 89.7312 9.72782 92.8246 11.1305C92.5543 20.8224 92.4016 30.4014 92.3648 39.9763L92.3232 49.6619C92.3069 54.298 92.4097 57.951 92.6114 64.3029C92.2661 64.9521 90.4211 65.1567 89.7352 64.5158L89.4031 60.961C88.8609 54.8157 87.1309 54.2813 75.0688 54.2333L33.6932 54.0851Z" fill="white"></path>
  <path d="M198.604 62.7917C198.604 39.1811 197.494 31.5328 180.794 30.1385L163.005 28.7503C160.034 27.3643 159.661 22.5069 162.63 21.1188C193.789 15.9066 214.182 6.88058 223.817 0.979499C225.305 0.979499 226.787 1.66835 227.535 2.71205C226.787 8.96382 226.047 26.331 226.047 46.1154V180.878C226.047 207.632 226.787 213.533 241.994 214.567L257.568 215.617C259.785 217.702 259.428 223.259 256.824 224.3C242.366 223.611 225.673 223.259 212.696 223.259C199.352 223.259 182.655 223.611 168.194 224.3C165.605 223.259 165.231 217.702 167.45 215.617L182.655 214.567C198.234 213.533 198.604 207.632 198.604 180.878V62.7917Z" fill="white"></path>
  <path d="M311.015 59.3203C311.015 86.4106 325.479 117.678 353.663 117.678C362.94 117.678 365.527 117.333 369.985 116.283C371.461 116.981 371.831 119.066 371.082 120.444C363.671 126.353 352.174 130.522 337.71 130.522C307.673 130.522 281.352 107.946 281.352 71.8197C281.352 30.1384 315.094 0.979508 357.36 0.979508C403.723 0.979508 431.165 38.4755 431.165 89.5459C431.165 127.395 414.474 172.549 376.658 204.161C349.2 227.074 313.236 239.935 288.397 244.103C285.427 243.053 284.309 237.841 286.165 236.111C308.417 229.849 326.965 221.526 341.054 211.801C375.17 188.182 398.166 152.402 398.166 86.7634C398.166 55.1602 388.521 11.3852 352.551 11.3852C328.811 11.3852 311.015 28.4226 311.015 59.3203Z" fill="white"></path>
  <path d="M446.89 221.173C446.89 214.222 452.457 207.632 461.356 207.632C470.247 207.632 475.081 214.567 479.146 220.123C483.98 226.73 488.426 230.554 498.804 230.554C522.912 230.554 565.184 201.017 565.184 162.48C565.184 131.901 549.609 105.853 517.349 105.853C499.174 105.853 485.821 114.198 477.297 122.89C471.363 122.185 466.909 117.333 469.15 110.727C483.238 104.819 513.637 91.9673 528.469 80.5095C536.627 74.2557 548.138 63.8437 548.138 47.1674C548.138 28.7503 534.411 17.2863 517.723 17.2863C495.845 17.2863 479.146 30.1384 467.664 47.8646C463.944 48.5618 459.868 46.4703 459.868 43.0052C471.363 18.6828 498.439 0.979492 527 0.979492C557.397 0.979492 578.534 16.2593 578.534 40.9136C578.534 55.1601 572.603 68.7094 538.856 85.369C536.999 88.8487 538.857 90.2347 543.302 90.5875C571.485 92.6645 597.081 111.073 597.081 144.071C597.081 169.07 584.102 194.083 561.115 212.845C533.669 235.414 501.778 242.699 483.608 242.699C466.909 242.699 446.89 237.497 446.89 221.173Z" fill="white"></path>
  <path d="M608.235 221.173C608.235 214.222 613.794 207.632 622.691 207.632C631.599 207.632 636.42 214.567 640.506 220.123C645.321 226.73 649.767 230.554 660.152 230.554C684.264 230.554 726.533 201.017 726.533 162.48C726.533 131.901 710.965 105.853 678.694 105.853C660.526 105.853 647.182 114.198 638.646 122.89C632.713 122.185 628.255 117.333 630.487 110.727C644.569 104.819 674.993 91.9673 689.823 80.5095C697.98 74.2557 709.479 63.8437 709.479 47.1674C709.479 28.7503 695.757 17.2863 679.068 17.2863C657.186 17.2863 640.506 30.1384 628.999 47.8646C625.3 48.5618 621.214 46.4703 621.214 43.0052C632.713 18.6828 659.782 0.979492 688.337 0.979492C718.75 0.979492 739.886 16.2593 739.886 40.9136C739.886 55.1601 733.961 68.7094 700.202 85.369C698.356 88.8487 700.202 90.2347 704.656 90.5875C732.839 92.6645 758.426 111.073 758.426 144.071C758.426 169.07 745.448 194.083 722.454 212.845C695.004 235.414 663.12 242.699 644.952 242.699C628.255 242.699 608.235 237.497 608.235 221.173Z" fill="white"></path>
  <path d="M43.8736 299.695C52.4147 299.695 59.8919 299.564 62.6948 299.292C62.6948 302.231 62.6948 312.226 62.9608 318.496C62.4268 319.555 60.0234 319.826 58.6879 319.031C57.353 311.291 55.2215 307.427 50.1475 306.097C46.5439 305.162 43.2042 305.028 38.9352 305.028H32.1282C26.5204 305.028 26.5204 305.291 26.5204 312.76V336.626C26.5204 339.959 26.655 340.22 29.7247 340.22H37.5995C49.2151 340.22 51.2154 339.959 52.5509 334.361L53.6181 329.823C54.4198 328.896 56.9547 328.896 57.6208 329.962C57.4885 333.425 57.2216 338.358 57.2216 343.288C57.2216 348.223 57.4885 353.022 57.6208 357.159C56.9547 358.225 54.4198 358.225 53.6181 357.289L52.5509 352.087C51.3469 346.489 49.2151 346.228 37.5995 346.228H29.7247C26.655 346.228 26.5204 346.489 26.5204 349.822V368.485C26.5204 382.615 27.723 382.757 33.9968 383.55L39.6007 384.216C40.5378 385.151 40.4024 387.556 39.3336 388.082C30.7933 387.819 24.7864 387.687 18.9115 387.687C13.0409 387.687 7.03383 387.819 0.891298 388.082C-0.176544 387.556 -0.3088 385.151 0.624339 384.216L3.56173 383.821C9.83488 383.018 11.035 382.615 11.035 368.485V318.891C11.035 304.759 9.83488 304.365 3.56173 303.429L1.82852 303.16C0.891298 302.231 1.02764 299.827 2.09139 299.292C6.76606 299.564 12.7731 299.695 18.6438 299.695H43.8736Z" fill="white"></path>
  <path d="M81.3787 318.891C81.3787 304.759 80.1794 304.496 73.9054 303.429L71.6384 303.027C70.701 302.091 70.8375 299.827 71.9053 299.292C77.2412 299.564 83.2481 299.695 89.123 299.695C95.13 299.695 101.136 299.564 107.011 299.292C108.075 299.827 108.212 302.091 107.275 303.027L104.34 303.429C98.0681 304.225 96.864 304.759 96.864 318.891V349.421C96.864 367.819 102.471 383.287 121.024 383.287C138.51 383.287 145.72 370.085 145.72 349.822V333.154C145.72 323.16 145.585 310.758 143.182 306.892C141.982 304.899 139.845 303.962 136.51 303.429L133.839 303.027C132.64 302.091 132.77 299.695 134.106 299.292C138.645 299.564 143.715 299.695 148.921 299.695C154.528 299.695 158.132 299.564 163.07 299.292C164.138 299.956 164.406 302.091 163.337 303.027L160.403 303.692C157.865 304.225 155.461 304.759 154.528 306.892C152.66 310.898 152.66 322.625 152.66 333.154V349.025C152.66 361.154 150.79 372.358 143.851 379.816C136.907 387.284 126.9 389.821 117.688 389.821C105.141 389.821 96.3301 387.156 90.1916 381.286C84.1855 375.549 81.3787 366.219 81.3787 352.759V318.891Z" fill="white"></path>
  <path d="M196.973 338.89C196.973 343.159 196.973 343.422 203.381 343.422C216.463 343.422 222.469 337.026 222.469 324.356C222.469 313.827 215.662 304.628 204.047 304.628C197.108 304.628 196.973 305.028 196.973 311.161V338.89ZM181.488 319.697C181.488 306.892 181.357 305.291 175.083 304.628L171.611 304.225C170.679 303.298 170.679 301.165 171.748 300.49C180.153 299.695 191.501 299.292 202.445 299.292C212.859 299.292 221.934 300.632 227.807 303.832C234.614 307.427 239.557 313.697 239.557 323.289C239.557 335.558 230.079 341.689 223.537 344.357C222.737 344.758 223.004 345.825 223.537 346.622C234.215 364.617 240.888 375.952 247.164 381.156C250.899 384.356 254.77 385.151 256.37 385.283C257.041 385.815 257.041 387.284 256.638 387.95C255.037 388.351 252.502 388.756 247.831 388.756C235.017 388.756 228.072 383.55 219.934 371.151C216.327 365.553 212.592 358.225 209.388 353.022C206.985 349.025 205.518 348.492 201.11 348.492C197.108 348.492 196.973 348.624 196.973 351.423V368.485C196.973 382.615 198.177 383.018 204.45 383.821L207.384 384.216C208.32 385.151 208.185 387.556 207.116 388.082C201.246 387.819 195.239 387.687 189.364 387.687C183.493 387.687 177.487 387.819 171.344 388.082C170.276 387.556 169.877 385.151 171.077 384.216L174.015 383.821C180.289 383.018 181.488 382.615 181.488 368.485V319.697Z" fill="white"></path>
  <path d="M342.471 365.02C342.471 369.016 342.471 385.423 342.87 388.485C341.806 389.952 339.936 390.486 338.335 390.355C336.199 387.556 332.328 383.018 322.714 372.086L291.482 336.494C282.936 326.623 278.532 321.69 276.265 319.697C275.861 319.697 275.861 321.156 275.861 328.224V354.222C275.861 364.225 275.997 376.486 278.265 380.492C279.469 382.486 281.736 383.421 285.072 383.821L288.01 384.216C289.21 385.151 289.078 387.687 287.743 388.082C282.804 387.819 277.6 387.687 272.526 387.687C266.918 387.687 263.315 387.819 258.644 388.082C257.576 387.416 257.309 385.151 258.377 384.216L261.315 383.55C263.85 383.018 266.254 382.615 267.186 380.492C268.923 376.353 268.923 364.758 268.923 354.222V322.625C268.923 312.226 269.054 310.092 264.519 306.227C263.048 305.028 259.313 303.962 257.445 303.561L255.44 303.16C254.506 302.363 254.638 299.695 255.973 299.292C261.048 299.827 268.388 299.695 271.725 299.695C274.526 299.695 277.732 299.564 280.936 299.292C283.204 305.028 297.756 321.828 302.427 326.892L315.776 341.287C321.379 347.426 333.793 361.557 335.131 362.353C335.528 361.952 335.528 361.286 335.528 359.153V333.154C335.528 323.16 335.396 310.898 332.993 306.892C331.793 304.899 329.657 303.962 326.322 303.561L323.249 303.16C322.048 302.231 322.179 299.695 323.515 299.292C328.721 299.564 333.664 299.695 338.868 299.695C344.609 299.695 348.074 299.564 352.883 299.292C353.951 299.956 354.216 302.231 353.148 303.16L350.08 303.832C347.545 304.365 345.273 304.759 344.341 306.892C342.471 311.028 342.471 322.625 342.471 333.154V365.02Z" fill="white"></path>
  <path d="M388.655 368.485C388.655 382.615 389.857 383.018 396.131 383.821L399.063 384.216C400.001 385.151 399.865 387.556 398.797 388.082C392.927 387.819 386.92 387.687 381.045 387.687C375.175 387.687 368.9 387.819 363.026 388.082C361.958 387.556 361.826 385.151 362.758 384.216L365.697 383.821C371.971 383.018 373.17 382.615 373.17 368.485V318.891C373.17 304.759 371.971 304.365 365.697 303.561L362.758 303.16C361.826 302.231 361.958 299.827 363.026 299.292C368.9 299.564 374.907 299.695 381.045 299.695C386.92 299.695 392.927 299.564 398.797 299.292C399.865 299.827 400.001 302.231 399.063 303.16L396.131 303.561C389.857 304.365 388.655 304.759 388.655 318.891V368.485Z" fill="white"></path>
  <path d="M442.712 310.898C442.712 305.291 442.582 305.028 439.111 305.028H431.635C419.35 305.028 415.749 306.49 410.811 317.29C409.878 318.096 407.072 317.693 406.539 316.363C408.808 309.157 410.811 300.893 411.743 296.232C412.01 295.829 412.545 295.698 413.214 295.698C413.749 295.698 414.282 295.829 414.55 296.232C415.214 299.564 417.083 299.695 426.159 299.695H480.62C487.161 299.695 489.165 299.292 490.766 296.232C491.301 295.961 491.836 295.698 492.371 295.698C493.172 295.698 493.837 295.961 494.104 296.364C492.769 301.828 491.701 313.294 492.104 317.561C491.435 318.628 489.165 318.891 487.964 317.962C486.227 307.556 483.694 305.028 469.409 305.028H461.799C458.332 305.028 458.196 305.291 458.196 310.898V368.485C458.196 382.615 459.398 383.018 465.672 383.684L470.477 384.216C471.413 385.151 471.277 387.556 470.209 388.082C462.468 387.819 456.462 387.687 450.589 387.687C444.716 387.687 438.444 387.819 429.898 388.082C428.83 387.556 428.699 384.888 429.631 384.216L435.238 383.55C441.512 382.757 442.712 382.615 442.712 368.485V310.898Z" fill="white"></path>
  <path d="M510.652 318.891C510.652 304.759 509.453 304.496 503.181 303.429L500.911 303.027C499.975 302.091 500.111 299.827 501.179 299.292C506.514 299.564 512.521 299.695 518.398 299.695C524.402 299.695 530.409 299.564 536.286 299.292C537.348 299.827 537.485 302.091 536.553 303.027L533.615 303.429C527.341 304.225 526.137 304.759 526.137 318.891V349.421C526.137 367.819 531.746 383.287 550.299 383.287C567.784 383.287 574.994 370.085 574.994 349.822V333.154C574.994 323.16 574.858 310.758 572.455 306.892C571.255 304.899 569.119 303.962 565.784 303.429L563.113 303.027C561.913 302.091 562.045 299.695 563.378 299.292C567.919 299.564 572.99 299.695 578.194 299.695C583.803 299.695 587.406 299.564 592.345 299.292C593.413 299.956 593.68 302.091 592.61 303.027L589.676 303.692C587.139 304.225 584.735 304.759 583.803 306.892C581.933 310.898 581.933 322.625 581.933 333.154V349.025C581.933 361.154 580.064 372.358 573.126 379.816C566.181 387.284 556.174 389.821 546.963 389.821C534.415 389.821 525.602 387.156 519.466 381.286C513.459 375.549 510.652 366.219 510.652 352.759V318.891Z" fill="white"></path>
  <path d="M626.251 338.89C626.251 343.159 626.251 343.422 632.66 343.422C645.742 343.422 651.748 337.026 651.748 324.356C651.748 313.827 644.939 304.628 633.325 304.628C626.386 304.628 626.251 305.028 626.251 311.161V338.89ZM610.766 319.697C610.766 306.892 610.634 305.291 604.36 304.628L600.891 304.225C599.957 303.298 599.957 301.165 601.025 300.49C609.431 299.695 620.777 299.292 631.724 299.292C642.138 299.292 651.213 300.632 657.084 303.832C663.891 307.427 668.834 313.697 668.834 323.289C668.834 335.558 659.356 341.689 652.814 344.357C652.016 344.758 652.283 345.825 652.814 346.622C663.494 364.617 670.165 375.952 676.443 381.156C680.176 384.356 684.049 385.151 685.649 385.283C686.32 385.815 686.32 387.284 685.917 387.95C684.314 388.351 681.779 388.756 677.108 388.756C664.294 388.756 657.349 383.55 649.213 371.151C645.604 365.553 641.871 358.225 638.667 353.022C636.264 349.025 634.794 348.492 630.389 348.492C626.386 348.492 626.251 348.624 626.251 351.423V368.485C626.251 382.615 627.454 383.018 633.728 383.821L636.661 384.216C637.597 385.151 637.463 387.556 636.393 388.082C630.522 387.819 624.516 387.687 618.641 387.687C612.77 387.687 606.764 387.819 600.623 388.082C599.553 387.556 599.156 385.151 600.356 384.216L603.292 383.821C609.566 383.018 610.766 382.615 610.766 368.485V319.697Z" fill="white"></path>
  <path d="M698.329 318.891C698.329 304.759 697.13 304.225 690.856 303.429L688.718 303.16C687.785 302.231 687.917 299.827 688.985 299.292C694.059 299.564 700.334 299.695 706.202 299.695H731.702C740.241 299.695 747.987 299.564 749.722 299.292C750.254 301.557 751.055 312.096 751.855 317.824C751.322 318.891 748.651 319.162 747.584 318.356C745.448 310.627 743.447 307.427 739.174 306.227C736.105 305.433 732.099 305.028 728.496 305.028H719.553C713.812 305.028 713.812 305.291 713.812 312.892V335.427C713.812 338.89 713.948 339.021 717.018 339.021H723.428C735.035 339.021 737.042 338.89 738.239 333.154L739.174 328.624C740.241 327.689 742.781 327.689 743.447 328.754C743.31 332.359 743.048 337.16 743.048 342.09C743.048 347.154 743.31 351.824 743.447 356.092C742.781 357.017 740.241 357.017 739.174 356.224L738.239 350.889C737.303 345.29 735.035 345.021 723.428 345.021H717.018C713.948 345.021 713.812 345.29 713.812 348.624V365.553C713.812 372.358 714.079 377.15 716.086 379.423C717.684 381.286 719.954 382.222 731.167 382.352C748.119 382.486 751.055 378.751 755.728 367.951C756.93 367.022 759.197 367.416 760 368.755C759.197 374.351 756.261 384.488 754.391 388.082C748.52 387.819 737.042 387.687 721.421 387.687H706.202C700.334 387.687 692.189 387.819 686.182 388.082C685.117 387.556 684.981 385.151 685.917 384.216L690.856 383.684C697.13 383.018 698.329 382.615 698.329 368.485V318.891Z" fill="white"></path>
  <path d="M29.9256 453.096C39.67 445.496 52.0865 441.762 65.9685 441.762C73.1747 441.762 83.3183 443.231 89.5916 444.962C91.1942 445.365 92.1305 445.627 93.3307 445.496C93.4662 448.564 94.1316 456.96 95.2002 465.092C94.5339 466.028 92.5297 466.161 91.5967 465.356C89.5916 456.296 83.5854 445.899 64.2303 445.899C43.8082 445.899 26.4583 458.824 26.4583 486.424C26.4583 514.424 44.2099 529.886 66.1 529.886C83.3183 529.886 90.9273 518.685 94.0002 510.821C94.9331 510.157 96.9334 510.421 97.4672 511.353C96.5351 518.288 93.0628 527.086 91.0619 529.622C89.4601 529.886 87.8576 530.42 86.3912 530.952C83.4532 532.019 73.8441 534.021 65.2991 534.021C53.2857 534.021 41.8072 531.616 32.0619 525.085C21.3837 517.755 13.1094 505.617 13.1094 488.425C13.1094 473.628 19.7818 460.955 29.9256 453.096Z" fill="white"></path>
  <path d="M200.116 491.625C200.116 469.624 190.37 445.899 164.878 445.899C150.996 445.899 132.977 455.361 132.977 484.56C132.977 504.287 142.585 529.886 168.88 529.886C184.898 529.886 200.116 517.887 200.116 491.625ZM119.628 488.826C119.628 462.164 139.649 441.762 167.146 441.762C197.979 441.762 213.463 464.026 213.463 487.488C213.463 514.424 192.909 534.021 167.146 534.021C137.512 534.021 119.628 512.823 119.628 488.826Z" fill="white"></path>
  <path d="M284.88 496.287C287.948 502.557 290.886 508.688 294.09 514.556H294.353C297.961 508.285 301.298 501.359 304.634 494.556L317.18 469.09C323.187 456.959 327.061 449.633 327.329 443.492C331.864 443.897 334.665 443.897 337.336 443.897C340.675 443.897 345.081 443.763 349.217 443.492C350.02 444.027 350.02 446.291 349.349 446.826L346.546 447.097C338.138 447.892 337.068 450.427 337.204 459.759C337.472 473.891 337.603 498.551 338.671 517.755C339.075 524.421 338.939 528.022 345.211 528.556L349.485 528.95C350.285 529.754 350.151 531.755 349.217 532.28C343.746 532.019 338.272 531.887 333.465 531.887C328.794 531.887 322.787 532.019 317.316 532.28C316.38 531.616 316.248 529.754 317.048 528.95L320.919 528.556C327.461 527.884 327.461 525.748 327.461 517.221L327.061 461.632H326.794C325.858 463.09 320.787 473.759 318.116 478.953L306.235 502.286C300.228 514.021 294.222 526.552 291.818 532.685C291.551 533.085 291.018 533.219 290.483 533.219C290.217 533.219 289.551 533.085 289.285 532.685C287.018 525.619 280.608 512.551 277.538 506.02L265.525 480.291C262.72 474.162 259.917 467.226 256.979 461.097H256.713C256.178 469.361 255.781 477.091 255.378 484.822C254.979 492.955 254.446 504.822 254.446 516.157C254.446 526.02 255.246 528.155 260.452 528.556L265.525 528.95C266.459 529.754 266.327 531.887 265.389 532.28C260.851 532.019 255.645 531.887 250.575 531.887C246.303 531.887 241.496 532.019 236.959 532.28C236.158 531.616 235.891 529.622 236.691 528.95L239.63 528.556C245.233 527.75 247.104 526.957 247.904 517.624C248.707 508.818 249.371 501.488 250.172 488.294C250.843 477.222 251.375 465.89 251.643 458.561C251.91 450.157 250.842 448.162 242.698 447.097L240.564 446.826C239.893 446.028 240.029 444.027 241.097 443.492C245.101 443.763 248.303 443.897 251.643 443.897C254.713 443.897 258.316 443.897 262.72 443.492C262.185 448.695 265.525 456.96 269.663 465.495L284.88 496.287Z" fill="white"></path>
  <path d="M396.07 511.888C396.07 525.888 396.338 527.621 404.879 528.556L408.484 528.95C409.283 529.622 409.019 531.887 408.217 532.28C400.609 532.019 396.2 531.887 390.866 531.887C385.257 531.887 380.454 532.019 374.579 532.28C373.778 531.887 373.511 529.754 374.311 528.95L377.112 528.556C384.859 527.487 385.125 525.888 385.125 511.888V462.696C385.125 451.364 384.859 449.099 378.851 448.425L374.046 447.892C373.112 447.097 373.243 445.093 374.311 444.561C381.386 443.625 389.66 443.492 400.741 443.492C411.822 443.492 420.096 444.962 426.368 448.828C432.511 452.691 437.046 459.627 437.046 468.827C437.046 481.089 429.438 487.225 423.697 490.024C417.829 492.824 410.752 494.022 405.281 494.022C404.344 493.619 404.344 491.625 405.147 491.354C419.561 488.688 424.765 480.554 424.765 468.958C424.765 456.025 417.158 447.629 403.276 447.629C396.2 447.629 396.07 448.162 396.07 452.43V511.888Z" fill="white"></path>
  <path d="M477.223 489.089C476.157 492.16 476.291 492.289 480.03 492.289H496.445C500.318 492.289 500.583 491.757 499.383 488.154L492.173 466.425C491.105 463.231 489.905 459.627 489.103 458.027H488.835C488.438 458.691 487.103 461.893 485.631 465.89L477.223 489.089ZM503.655 500.956C502.719 498.017 502.184 497.625 498.179 497.625H478.024C474.688 497.625 473.886 498.017 472.954 500.824L468.285 514.816C466.278 520.815 465.344 524.421 465.344 525.888C465.344 527.487 466.011 528.284 469.217 528.556L473.618 528.95C474.555 529.622 474.554 531.755 473.353 532.28C469.881 532.019 465.745 532.019 459.471 531.887C455.066 531.887 450.259 532.15 446.656 532.28C445.855 531.755 445.588 529.622 446.39 528.95L450.792 528.556C454 528.284 456.936 526.815 458.805 522.022C461.208 515.885 464.943 507.219 470.55 492.289L484.166 456.296C486.037 451.495 486.835 448.959 486.434 446.826C489.638 445.899 491.905 443.492 493.377 441.762C494.177 441.762 495.109 442.033 495.377 442.96C497.109 448.828 499.247 454.956 501.254 460.826L519.539 514.424C523.407 525.888 525.144 527.884 530.887 528.556L534.488 528.95C535.423 529.622 535.155 531.755 534.488 532.28C529.017 532.019 524.342 531.887 518.335 531.887C511.929 531.887 506.857 532.15 502.986 532.28C501.918 531.755 501.787 529.622 502.719 528.95L506.59 528.556C509.394 528.284 511.261 527.487 511.261 526.151C511.261 524.692 510.596 522.285 509.528 519.085L503.655 500.956Z" fill="white"></path>
  <path d="M634.729 509.22C634.729 513.217 634.729 529.088 635.133 532.551C634.867 533.349 634.065 534.021 632.598 534.021C630.995 531.755 627.124 527.086 615.512 513.889L584.541 478.69C580.94 474.555 571.863 463.625 569.056 460.694H568.789C568.256 462.296 568.124 465.356 568.124 469.361V498.422C568.124 504.69 568.256 522.022 570.528 526.02C571.328 527.487 573.997 528.284 577.335 528.556L581.473 528.95C582.273 530.015 582.138 531.616 581.205 532.28C575.201 532.019 570.528 531.887 565.589 531.887C559.982 531.887 556.379 532.019 551.708 532.28C550.771 531.616 550.64 529.754 551.442 528.95L555.043 528.556C558.113 528.155 560.247 527.349 560.916 525.888C562.782 521.087 562.653 504.822 562.653 498.422V459.891C562.653 456.165 562.517 453.357 559.716 450.297C557.846 448.425 554.642 447.498 551.442 447.097L549.17 446.826C548.368 446.028 548.368 444.027 549.436 443.492C555.043 443.897 562.118 443.897 564.521 443.897C566.655 443.897 568.927 443.763 570.659 443.492C573.33 450.297 589.08 467.891 593.486 472.824L606.435 487.359C615.642 497.625 622.183 505.085 628.455 511.485H628.723C629.258 510.821 629.258 508.688 629.258 505.889V477.354C629.258 471.092 629.126 453.76 626.593 449.763C625.791 448.564 623.653 447.761 618.313 447.097L616.045 446.826C615.107 446.028 615.245 443.897 616.313 443.492C622.449 443.763 626.99 443.897 632.065 443.897C637.804 443.897 641.271 443.763 645.81 443.492C646.878 444.158 646.878 446.028 646.078 446.826L644.207 447.097C639.94 447.761 637.269 448.828 636.736 449.896C634.466 454.695 634.729 471.223 634.729 477.354V509.22Z" fill="white"></path>
  <path d="M708.549 511.617C708.549 525.888 709.35 528.022 716.556 528.556L721.63 528.95C722.433 529.754 722.165 531.887 721.363 532.28C713.084 532.019 708.549 531.887 703.209 531.887C697.6 531.887 692.797 532.019 685.725 532.28C684.922 531.887 684.657 529.754 685.457 528.95L689.593 528.556C697.339 527.75 697.604 525.888 697.604 511.617V504.822C697.604 497.494 697.203 495.753 693.332 488.294L677.58 457.626C673.041 448.828 671.041 448.162 667.034 447.498L663.299 446.826C662.499 445.899 662.631 444.027 663.567 443.492C667.837 443.763 672.644 443.897 679.047 443.897C685.19 443.897 689.994 443.763 693.332 443.492C694.532 443.897 694.532 446.028 693.731 446.826L691.997 447.097C687.326 447.761 686.389 448.425 686.389 449.491C686.389 450.831 689.861 458.43 690.53 459.759C695.47 469.624 700.407 480.161 705.613 489.361C709.751 482.294 714.154 474.555 718.159 466.825C721.898 459.891 726.834 450.831 726.834 449.228C726.834 448.425 724.433 447.498 721.229 447.097L718.823 446.826C717.891 445.899 718.029 444.027 719.091 443.492C723.898 443.763 727.769 443.897 731.905 443.897C736.049 443.897 739.782 443.763 744.323 443.492C745.389 444.158 745.521 446.028 744.589 446.826L740.85 447.498C733.911 448.696 729.905 457.092 723.233 468.555L714.823 483.09C708.948 493.224 708.549 494.424 708.549 504.69V511.617Z" fill="white"></path>
</svg>
