<?xml version="1.0" encoding="UTF-8"?>
<svg xmlns="http://www.w3.org/2000/svg" width="1338" height="281" viewBox="0 0 1338 281" fill="none">
  <path d="M1044.86 183.802L1043.73 108.878C1043.45 81.5225 1022.66 69.8657 997.587 69.8657C977.663 69.8657 961.428 76.1171 950.597 93.5083C943.478 75.8351 924.965 69.8657 907.32 69.8657C887.115 69.8657 871.726 76.1171 860.331 93.2263V72.7094H858.639L830.164 90.6646V91.2287H831.574C840.971 91.2287 841.253 93.2263 841.253 101.217V183.825C841.253 192.356 838.411 201.193 828.449 201.193V202.062H876.002V201.193C866.322 201.193 862.61 192.074 862.61 183.825V115.459C862.61 94.3779 880.278 73.2969 901.917 73.2969C923.555 73.2969 932.107 87.8209 932.389 110.335L932.953 183.825C933.235 192.356 930.11 201.193 920.148 201.193V202.062H967.701V201.193C958.304 201.193 954.591 192.074 954.591 183.825C954.309 161.029 953.464 138.255 953.464 115.459C953.464 95.2474 970.544 73.2969 991.901 73.2969C1013.54 73.0149 1022.37 87.8209 1022.66 110.335L1023.22 183.825C1023.5 192.356 1020.38 201.193 1010.41 201.193V202.062H1057.97V201.193C1048.57 201.193 1044.86 192.074 1044.86 183.825" fill="white"></path>
  <path d="M1292.87 72.6859V73.5319C1299.7 73.8139 1309.67 83.7786 1307.11 92.0512L1275.2 163.261C1270.36 174.659 1269.51 174.941 1263.8 162.979L1228.77 88.9255C1226.5 84.0842 1227.06 75.5296 1237.04 73.5319V72.6859H1184.65V73.5319C1189.49 73.5319 1199.76 78.9373 1204.01 87.4919L1253.56 190.617C1257.56 199.172 1257.25 202.861 1254.12 209.7L1243.29 233.343C1231.9 257.855 1206.85 265.258 1193.18 249.583L1201.73 276.069C1224.5 276.069 1235.61 257.55 1240.17 247.303L1309.67 93.7668C1315.35 83.5201 1324.19 74.9655 1332.74 73.5554V72.7094H1292.87V72.6859Z" fill="white"></path>
  <path d="M1152.46 176.093C1152.46 189.207 1131.39 201.733 1116 201.146C1103.76 200.864 1092.36 192.027 1092.36 173.508C1092.36 142.462 1126.24 127.374 1152.46 117.95V176.093ZM1173.82 179.501V115.13C1173.82 82.3686 1155.31 68.9726 1124.27 69.8422C1106.88 70.4062 1086.11 77.2452 1074.72 92.0512V115.412C1087.83 93.4848 1105.47 75.2476 1123.99 72.6859C1145.06 69.8422 1154.18 80.935 1154.46 93.7668C1154.74 112.004 1145.06 118.843 1120.58 128.808C1108.9 133.649 1096.38 138.49 1083.55 148.737C1075 155.576 1069.6 167.538 1069.88 178.655C1070.16 186.058 1073 192.897 1078.71 197.738C1084.12 202.297 1092.95 204.859 1102.63 205.141C1129.39 205.705 1141.66 198.302 1153.03 185.776C1153.31 190.899 1157.02 203.449 1170.98 203.449C1180.94 203.449 1188.93 198.608 1192.33 192.615V191.181C1190.05 193.461 1187.21 194.307 1184.93 194.307C1174.97 194.589 1173.82 186.904 1173.82 179.501Z" fill="white"></path>
  <path d="M795.462 175.177C788.038 175.177 782.023 181.193 782.023 188.619C782.023 196.046 788.038 202.062 795.462 202.062C802.887 202.062 808.901 196.046 808.901 188.619C808.901 181.193 802.887 175.177 795.462 175.177Z" fill="white"></path>
  <path d="M33.6961 260.064C49.4845 256.116 47.511 232.426 47.511 217.785V102.486C47.511 94.5894 47.511 92.6153 38.2071 92.6153H36.5155V92.0512L67.2464 74.284H68.9381V215.529C68.9381 232.732 64.991 248.525 55.6871 256.116C48.9206 261.192 37.6432 264.013 26.9532 263.731C18.777 263.731 10.6009 261.757 5.24414 258.09V228.76C10.037 252.168 22.4422 262.579 33.7196 260.064" fill="white"></path>
  <path d="M106.976 128.69C106.976 156.328 117.69 201.992 152.626 201.992C183.075 201.992 193.507 177.174 193.507 150.688C193.507 122.768 183.075 75.13 147.269 75.13C117.126 75.13 106.976 102.768 106.976 128.69ZM149.807 71.1818C191.51 71.1818 214.628 98.5377 214.628 138.843C214.628 179.148 190.382 205.376 150.089 205.376C109.795 205.376 85.5489 178.584 85.5489 138.843C85.5489 99.1017 110.054 71.1818 149.807 71.1818Z" fill="white"></path>
  <path d="M227.033 107.844C227.315 81.6165 252.384 71.4873 274.939 71.4873C283.961 71.4873 304.801 73.7434 315.514 80.7939V107.844C312.977 103.614 309.312 74.284 274.375 74.284C261.124 74.284 245.336 81.3345 244.772 96.5635C243.08 131.51 323.126 126.152 323.126 169.301C323.126 197.48 298.034 205.376 274.939 205.376C265.917 205.376 242.798 203.12 229.571 195.223L229.289 168.432C231.544 174.636 241.13 201.404 274.962 202.556C293.006 203.12 304.002 194.941 304.002 179.712C304.002 145.024 226.775 149.818 227.057 107.821" fill="white"></path>
  <path d="M362.879 138.561L413.886 128.972C419.525 127.844 423.754 125.87 427.701 123.896C436.723 119.384 440.67 111.487 440.388 103.591C439.542 66.928 393.61 68.0561 375.285 89.7716C365.417 101.334 361.752 120.23 362.879 138.537M347.937 106.411C358.65 84.4132 380.923 71.4403 406.274 71.4403C444.876 71.4403 461.228 98.4907 456.717 126.693L363.138 141.64C364.266 152.92 367.367 163.637 371.596 171.816C381.746 190.429 398.944 198.044 415.836 198.044C430.779 198.044 443.748 187.891 455.002 174.354C467.125 159.689 476.993 144.178 484.887 132.075V102.462C484.887 94.5659 484.605 92.5918 475.301 92.5918H473.892V92.0277L504.341 74.2605H506.032V100.488C516.464 82.4391 530.279 72.2864 548.863 71.4403C590.002 69.7482 608.61 96.8221 608.61 135.435C608.61 177.151 585.209 205.353 542.096 205.353C528 205.353 515.594 201.122 506.032 191.534V257.503C506.032 271.604 514.772 274.706 519.283 274.706V275.552H472.223V274.706C477.862 274.706 484.91 271.604 484.91 257.503V150.453L507.747 116.61C506.62 121.123 506.056 125.353 506.056 129.301V184.483C513.104 196.328 526.073 202.25 539.019 202.25C574.519 202.25 586.078 168.408 586.078 138.537C586.078 113.156 579.594 75.3886 544.939 75.3886C526.895 75.3886 516.182 92.0277 505.492 106.411C488.858 129.254 475.043 154.895 457.586 176.61C444.617 192.685 428.265 205.376 404.324 205.376C385.716 205.376 367.954 198.89 356.418 185.353C346.833 174.354 340.912 158.843 340.912 138.279C340.912 126.152 343.449 115.435 347.96 106.411" fill="white"></path>
  <path d="M623.576 202.274V201.428C633.444 201.428 636.263 192.685 636.263 184.225V38.491C636.263 28.6203 634.289 28.3383 625.267 28.6203V28.0563L655.693 4.93066H657.384V91.4872C668.662 76.2581 683.323 71.4638 701.625 71.4638C726.435 71.4638 746.993 83.0266 747.275 110.077L748.403 184.225C748.403 192.403 752.068 201.428 761.372 201.428V202.274H714.312V201.428C724.18 201.428 727.281 192.685 726.999 184.225L726.435 111.487C726.153 89.2075 718.541 74.848 696.268 74.848C674.841 74.566 657.384 95.7175 657.384 116.563V184.225C657.384 192.403 661.05 201.428 670.636 201.428V202.274H623.576Z" fill="white"></path>
</svg>
