<?xml version="1.0" encoding="UTF-8"?>
<svg xmlns="http://www.w3.org/2000/svg" width="2372" height="275" viewBox="0 0 2372 275" fill="none">
  <g clip-path="url(#clip0_140_952)">
    <path d="M391.742 105.92V110.087C389.225 110.504 386.707 111.129 384.4 111.963C382.722 113.004 381.464 113.838 381.043 115.505C380.414 117.38 380.204 119.463 379.994 121.339L382.932 214.89C382.722 216.975 383.14 219.058 383.98 221.141C384.819 222.599 385.868 223.85 387.336 224.684C389.853 225.724 392.371 226.351 395.097 226.558V230.725H339.931V226.558C342.448 226.142 344.966 225.517 347.273 224.684C348.741 224.057 349.999 222.808 350.629 221.349C351.468 219.266 351.677 217.182 351.677 215.099L348.741 119.047H349.79L320.424 201.555H315.389L346.224 105.712L391.742 105.92ZM318.535 201.555H320.843L312.453 230.934H296.301L256.448 119.047H257.077L256.658 208.431C256.658 211.973 256.867 215.515 257.287 218.849C257.287 219.891 257.706 220.932 258.335 221.765C258.965 222.599 259.804 223.432 260.642 224.057C263.159 225.308 265.887 226.351 268.613 226.767V230.934H235.471V226.975C238.828 226.351 241.555 225.724 243.234 224.266C244.91 223.016 246.38 221.141 247.009 219.058C247.638 215.515 248.267 212.182 248.267 208.639L251.623 123.839C251.833 121.339 251.623 119.047 250.994 116.546C250.155 114.88 248.896 113.213 247.217 112.379C244.91 111.129 242.394 110.296 239.877 110.087V105.92H284.975L318.535 201.555Z" fill="white"></path>
    <path d="M422.785 227.392C416.492 223.64 411.249 218.432 407.682 211.972C403.907 205.513 402.229 197.804 402.229 189.053C402.229 181.344 404.117 173.635 407.892 166.76C411.459 160.3 416.913 154.883 423.624 151.341C430.337 147.382 437.677 145.715 446.279 145.715C455.718 145.715 463.058 147.591 467.673 151.549C472.289 155.508 474.805 159.675 474.805 164.675C474.805 165.926 474.596 167.176 474.176 168.218C473.757 169.26 473.128 170.301 472.079 171.134C470.19 172.801 467.883 173.844 465.366 173.844C462.85 173.844 460.541 172.801 458.654 171.134C457.815 170.301 457.186 169.26 456.557 168.218C456.137 167.176 455.927 165.926 455.927 164.675C455.927 162.176 456.976 159.884 458.654 158.217C459.493 157.384 460.332 156.758 461.38 156.342C462.429 155.925 463.479 155.716 464.737 155.716C467.044 155.716 469.351 156.758 471.029 158.633C472.708 160.3 473.547 162.592 473.547 164.884H471.239C471.029 162.801 470.19 160.718 469.142 158.842C467.883 156.967 466.415 155.508 464.526 154.258C460.332 151.549 455.298 150.091 450.054 150.299C444.391 150.299 438.937 151.758 434.323 154.883C429.917 158.008 426.352 162.383 424.044 167.384C421.527 173.219 420.268 179.47 420.268 185.72C420.268 193.845 421.527 200.722 424.673 206.764C427.191 212.181 431.385 216.765 436.42 220.099C441.244 223.224 446.908 224.891 452.78 224.682C457.186 224.891 461.59 224.057 465.786 222.39C469.351 220.932 472.497 218.848 475.225 216.14V219.056C472.079 223.433 467.883 226.765 462.85 228.85C456.766 231.558 450.473 232.809 443.762 232.809C436.42 232.809 429.288 230.933 422.785 227.392Z" fill="white"></path>
    <path d="M492.635 140.299C495.781 132.798 500.606 125.922 506.688 120.297C512.771 114.879 519.692 110.712 527.455 107.795C535.634 105.087 544.026 103.628 552.625 103.628C561.435 103.42 570.244 104.253 578.635 106.337C583.879 107.587 589.122 109.671 593.738 112.588L594.996 141.132H592.27C591.01 134.673 588.493 128.631 584.928 123.214C581.782 118.421 577.376 114.671 572.132 112.171C566.469 109.462 560.386 108.004 554.094 108.212C544.655 108.212 537.102 110.504 530.391 115.505C523.469 120.713 518.224 127.589 515.078 135.507C511.303 144.049 509.835 154.259 509.835 165.926C509.835 174.053 510.884 181.97 512.771 189.888C514.449 196.972 517.385 203.847 521.371 209.889C525.356 215.515 529.762 220.307 535.424 223.641C541.298 226.976 548.011 228.641 554.722 228.641C560.805 228.641 566.679 227.392 572.132 225.1C577.376 222.599 581.782 218.849 585.138 214.266C589.124 208.64 591.85 202.18 593.107 195.305H595.625L594.367 223.85C591.639 225.724 588.493 227.391 585.347 228.434C580.732 229.892 576.118 231.142 571.293 231.975C565.63 233.017 559.757 233.433 553.883 233.226C545.073 233.226 536.263 231.766 528.084 228.641C520.323 225.724 513.191 221.35 507.317 215.515C501.235 209.682 496.62 202.598 493.683 194.887C490.328 186.345 488.439 176.969 488.649 167.802C487.6 158.008 488.858 148.633 492.635 140.299Z" fill="white"></path>
    <path d="M615.762 226.974C613.455 225.098 611.777 222.806 610.519 220.307C609.26 217.598 608.631 214.889 608.841 211.972C608.631 207.805 609.89 203.846 612.197 200.513C614.505 197.179 618.28 194.679 623.315 191.971C628.348 189.261 634.64 187.803 642.611 185.72L666.104 180.719V184.26L651.421 187.594C641.982 189.47 635.69 192.178 632.123 195.721C630.446 197.388 628.977 199.262 628.139 201.554C627.3 203.846 626.669 206.139 626.88 208.431C626.88 210.723 627.09 212.806 627.929 214.889C628.768 216.973 630.026 218.847 631.494 220.515C634.64 223.433 638.836 224.891 643.24 224.682C646.807 224.682 650.372 224.057 653.518 222.806C656.456 221.557 658.972 219.056 660.442 216.349V173.01C660.442 164.884 658.343 158.842 654.358 155.716C649.743 152.174 644.079 150.299 638.207 150.507C634.432 150.507 630.446 151.133 626.88 152.383C623.733 153.424 620.797 155.3 618.49 157.591C616.183 159.675 614.923 162.383 614.504 165.508H612.406C612.406 163.01 613.455 160.509 615.133 158.633C615.762 157.8 616.812 156.966 617.861 156.55C618.909 156.133 619.958 155.925 621.216 155.925C622.265 155.925 623.523 156.133 624.572 156.55C625.622 156.966 626.461 157.591 627.3 158.424C628.138 159.258 628.768 160.3 629.397 161.342C629.816 162.383 630.026 163.634 630.026 164.884C630.026 166.135 629.816 167.176 629.397 168.218C628.977 169.26 628.348 170.301 627.3 171.134C626.461 171.968 625.412 172.593 624.154 173.01C623.104 173.426 621.845 173.635 620.587 173.635C619.329 173.635 618.28 173.426 617.022 173.01C615.973 172.593 614.923 171.968 614.084 170.926C613.245 170.092 612.616 169.051 612.197 168.009C611.777 166.967 611.567 165.717 611.567 164.468C611.567 162.592 611.987 160.925 612.616 159.258C613.455 157.591 614.504 156.133 615.973 155.091C619.329 151.966 623.523 149.466 627.929 148.216C633.383 146.34 639.255 145.507 644.919 145.507C654.568 145.507 662.329 147.382 668.413 151.758C674.495 155.925 677.431 162.592 677.431 171.343V215.515C677.431 219.474 678.481 221.973 680.159 223.64C682.046 225.307 684.353 226.349 686.87 226.349C688.13 226.349 689.598 226.14 690.856 225.724V228.432C688.969 229.474 687.08 230.308 685.192 231.142C682.675 231.766 679.949 232.182 677.221 232.182C674.495 232.391 671.978 231.766 669.46 230.933C667.153 230.099 665.266 228.641 663.797 226.765C662.12 224.891 661.071 222.39 660.86 219.89C658.763 223.433 655.407 226.349 650.582 229.057C645.339 231.766 639.465 232.809 633.593 232.6C626.88 233.016 620.587 230.933 615.762 226.974Z" fill="white"></path>
    <path d="M727.144 164.885C731.129 159.884 735.743 155.092 740.568 150.717C743.714 147.8 747.7 146.341 751.896 146.133C753.153 146.133 754.413 146.341 755.462 146.758C756.72 147.174 757.559 148.008 758.609 148.841C759.866 150.508 760.706 152.592 760.706 154.675C760.706 155.925 760.495 157.176 760.077 158.217C759.866 159.259 759.446 160.093 758.817 160.926C757.559 160.718 756.3 160.509 755.042 160.302C753.364 160.093 751.685 159.884 750.007 159.884C745.603 159.884 741.199 160.509 737.003 161.76C733.228 162.801 729.871 164.677 727.354 167.386V218.849C727.354 220.725 727.564 222.39 727.983 224.057C728.193 224.682 728.822 225.308 729.242 225.724C729.871 226.142 730.5 226.558 731.339 226.558C733.857 227.183 736.374 227.809 739.1 228.225V231.142H699.037V228.225C703.651 227.6 706.798 226.558 708.057 225.516C709.315 224.475 709.734 222.599 709.734 219.683V160.926C709.734 158.635 709.315 156.967 708.686 156.342C708.057 155.3 706.587 154.675 704.072 154.05L698.616 152.383V149.675L726.725 146.341V164.677H727.144V164.885Z" fill="white"></path>
    <path d="M780.421 153.008H769.304V151.133L796.363 130.505H798.041V148.424L821.534 147.382V153.216L798.041 152.174V208.847C798.041 215.098 799.299 219.266 801.817 221.973C803.076 223.224 804.544 224.265 806.012 224.89C807.691 225.516 809.369 225.723 811.047 225.723C813.144 225.723 815.241 225.516 817.34 224.683C819.227 224.058 820.905 223.016 822.373 221.765V224.683C820.066 227.183 817.34 229.266 814.402 230.516C810.417 232.183 806.222 233.225 802.027 233.225C798.252 233.225 794.476 232.6 790.91 230.933C787.553 229.266 784.827 226.557 782.939 223.432C780.842 220.099 780.002 215.307 780.002 209.263V153.008H780.421Z" fill="white"></path>
    <path d="M858.242 160.927C860.758 156.343 864.535 152.593 869.359 150.092C874.603 147.175 880.475 145.717 886.349 145.925C894.949 145.925 902.081 148.217 907.324 152.384C912.569 156.551 915.295 163.219 915.295 171.97V219.474C915.295 220.934 915.505 222.6 915.925 224.059C916.134 224.684 916.554 225.309 917.183 225.725C917.602 226.142 918.233 226.558 919.072 226.767C921.379 227.392 923.686 228.018 926.204 228.434V231.351H887.817V228.434C892.223 227.809 895.159 226.767 896.208 225.725C897.256 224.684 897.885 222.808 897.885 219.892V175.304C897.885 168.011 896.208 162.594 892.431 158.844C889.076 155.301 884.042 153.634 877.749 153.634C873.553 153.426 869.358 154.468 865.793 156.551C862.436 158.426 859.71 160.927 857.822 164.052V220.101C857.822 223.017 858.451 225.1 859.5 225.934C860.549 226.976 863.485 227.809 867.89 228.643V231.559H829.084V228.643C833.7 228.018 836.847 226.976 837.686 225.934C838.944 224.893 839.783 222.599 839.783 219.683V116.964C839.783 114.672 839.362 113.005 838.734 112.38C837.476 111.13 835.797 110.505 834.119 110.088L828.876 108.421V105.713L856.983 102.379V160.511L858.242 160.927Z" fill="white"></path>
    <path d="M934.174 155.924C932.917 154.466 931.657 153.215 930.189 151.965C928.302 151.132 926.203 150.507 924.106 150.09V147.173H965.219V150.09C959.765 150.715 956.829 151.965 955.57 154.049C954.521 155.924 954.941 159.674 957.248 165.091L975.707 212.806H974.029L991.858 165.717C994.165 159.883 994.585 155.924 993.536 153.841C992.487 151.965 989.132 150.507 983.887 149.882V146.965H1012.62V149.882C1010.53 150.09 1008.43 150.715 1006.54 151.757C1004.65 153.007 1003.19 154.466 1002.14 156.341C1000.25 159.467 998.779 162.799 997.522 166.133L978.223 213.013L970.462 231.349L956.409 270.728H941.727V270.311C944.873 266.77 947.599 263.02 950.116 259.268C953.263 254.684 956.199 249.892 958.716 244.892C961.444 240.309 963.96 235.517 966.058 230.515L937.95 163.008C937.111 160.508 935.853 158.216 934.174 155.924Z" fill="white"></path>
    <path d="M1101.14 221.558C1101.77 223.017 1103.03 224.475 1104.5 225.1C1107.01 226.351 1109.53 226.975 1112.26 227.391V231.559H1056.88V226.975C1059.61 226.558 1062.13 225.933 1064.64 224.684C1066.32 223.641 1067.58 222.808 1068 221.141C1068.84 219.058 1069.05 216.975 1069.05 214.89V121.547C1069.05 119.464 1068.84 117.38 1068 115.296C1067.37 113.838 1066.11 112.379 1064.64 111.754C1062.34 110.504 1059.61 109.879 1056.88 109.879V105.92H1112.47V110.088C1109.95 110.504 1107.22 111.338 1104.71 111.963C1103.03 113.005 1101.77 113.838 1101.35 115.505C1100.72 117.588 1100.51 119.672 1100.3 121.755V215.515C1100.51 217.807 1100.72 219.891 1101.14 221.558Z" fill="white"></path>
    <path d="M1150.64 160.925C1153.16 156.133 1156.94 152.382 1161.76 149.882C1167.01 146.965 1173.09 145.507 1179.17 145.715C1187.77 145.715 1194.9 148.007 1200.15 152.174C1205.6 156.341 1208.12 163.009 1208.12 171.759V219.265C1208.12 220.723 1208.33 222.39 1208.75 223.848C1208.96 224.473 1209.38 225.098 1210 225.515C1210.42 225.931 1211.05 226.349 1211.89 226.558C1214.2 227.182 1216.51 227.807 1218.81 228.223V231.141H1180.43V228.016C1184.83 227.39 1187.77 226.349 1188.82 225.307C1189.87 224.264 1190.5 222.39 1190.5 219.474V175.302C1190.5 168.009 1188.82 162.592 1185.25 158.842C1181.9 155.299 1176.86 153.633 1170.57 153.633C1166.38 153.424 1162.18 154.466 1158.61 156.549C1155.26 158.424 1152.53 160.925 1150.64 164.05V220.098C1150.64 223.015 1151.27 225.098 1152.32 225.931C1153.37 226.974 1156.31 227.807 1160.71 228.641V231.557H1122.33V228.641C1126.94 228.016 1130.09 226.974 1130.93 225.931C1132.19 224.891 1133.02 222.599 1133.02 219.681V160.509C1133.02 158.217 1132.6 156.549 1131.97 155.924C1131.35 154.883 1130.09 154.258 1127.36 153.633L1122.12 151.966V149.257L1150.22 145.923V160.716H1150.64V160.925Z" fill="white"></path>
    <path d="M1234.34 156.55C1237.48 152.799 1241.47 149.882 1246.08 148.424C1251.33 146.549 1256.99 145.715 1262.44 145.715C1267.9 145.715 1273.35 146.341 1278.59 147.382C1281.95 148.007 1285.31 149.257 1288.24 150.924L1288.66 172.177H1285.94C1284.68 164.884 1281.95 159.051 1277.55 155.508C1273.14 151.966 1268.53 149.674 1262.86 149.674C1257.2 149.674 1252.8 150.924 1249.86 153.633C1248.39 154.883 1247.13 156.342 1246.29 158.217C1245.45 160.091 1245.03 161.967 1245.03 163.843C1245.03 165.717 1245.45 167.593 1246.29 169.051C1247.13 170.718 1248.39 172.177 1249.86 173.219C1253.84 175.927 1258.04 178.01 1262.65 179.47L1269.37 181.344C1276.08 183.011 1282.16 186.554 1287.19 191.137C1291.39 195.512 1293.7 201.347 1293.49 207.597C1293.49 212.39 1291.81 217.182 1288.66 220.932C1285.31 224.682 1281.11 227.599 1276.29 229.475C1271.25 231.35 1266.01 232.391 1260.56 232.391C1254.68 232.391 1248.81 231.766 1243.15 230.517C1238.95 229.683 1234.76 228.016 1231.19 225.516L1230.14 202.596H1232.87C1234.13 207.597 1236.01 212.39 1238.95 216.556C1241.47 220.307 1245.03 223.224 1249.02 225.098C1252.59 226.974 1256.57 228.016 1260.77 228.016C1266.43 228.016 1270.83 226.765 1274.19 223.849C1275.66 222.599 1276.92 221.141 1277.76 219.265C1278.59 217.598 1279.02 215.722 1279.22 213.639C1279.22 211.763 1279.02 209.68 1278.39 208.013C1277.76 206.139 1276.71 204.472 1275.24 203.221C1271.67 200.096 1267.27 197.804 1262.44 196.763L1255.73 194.471C1249.02 192.596 1242.94 189.47 1237.69 184.887C1235.6 183.011 1233.92 180.51 1232.87 177.803C1231.82 175.093 1231.19 172.385 1231.4 169.467C1230.98 167.176 1231.19 164.884 1231.82 162.592C1231.82 160.509 1232.87 158.424 1234.34 156.55Z" fill="white"></path>
    <path d="M1328.94 202.387C1328.94 209.68 1330.62 215.097 1333.97 219.056C1337.33 222.599 1342.36 224.682 1348.66 224.682C1352.85 224.682 1356.84 223.848 1360.4 221.765C1363.55 220.098 1366.28 217.389 1368.16 214.264V160.509C1368.16 158.217 1367.74 156.55 1367.11 155.924C1366.49 154.883 1365.02 154.258 1362.5 153.633L1357.05 151.966V149.257L1385.15 145.923V217.182C1385.15 219.473 1385.57 221.14 1386.2 221.765C1386.83 222.806 1388.3 223.432 1390.82 224.473L1395.85 226.14V228.849L1367.74 232.182V217.182C1365.23 221.972 1361.45 225.724 1356.63 228.225C1351.38 231.141 1345.51 232.599 1339.64 232.391C1331.25 232.391 1324.32 230.099 1318.87 225.931C1313.63 221.765 1310.9 214.89 1310.9 205.93V160.509C1310.9 158.217 1310.48 156.55 1309.85 155.924C1309.22 154.883 1307.75 154.258 1305.24 153.633L1299.99 151.966V149.257L1328.1 145.923V202.18H1328.94V202.387Z" fill="white"></path>
    <path d="M1433.82 164.885C1437.8 159.884 1442.42 155.092 1447.24 150.717C1450.39 147.8 1454.37 146.341 1458.57 146.133C1459.83 146.133 1461.08 146.341 1462.13 146.758C1463.39 147.174 1464.23 148.008 1465.28 148.841C1466.54 150.508 1467.38 152.592 1467.38 154.675C1467.38 155.925 1467.17 157.176 1466.75 158.217C1466.54 159.259 1466.12 160.093 1465.49 160.926C1464.23 160.718 1462.97 160.509 1461.71 160.302C1460.03 160.093 1458.36 159.884 1456.68 159.884C1452.27 159.884 1447.87 160.509 1443.67 161.76C1439.9 162.801 1436.54 164.677 1434.02 167.386V218.849C1434.02 220.516 1434.23 222.39 1434.66 224.057C1434.86 224.682 1435.49 225.308 1435.91 225.724C1436.54 226.142 1437.17 226.558 1438.01 226.558C1440.53 227.183 1443.04 227.809 1445.77 228.225V231.142H1405.92V228.225C1410.53 227.6 1413.68 226.558 1414.94 225.516C1416.2 224.475 1416.61 222.599 1416.61 219.683V160.926C1416.61 158.635 1416.2 156.967 1415.57 156.342C1414.94 155.3 1413.47 154.675 1410.95 154.05L1405.71 152.383V149.675L1433.82 146.341V164.677V164.885Z" fill="white"></path>
    <path d="M1483.11 226.974C1480.8 225.098 1479.12 222.806 1477.87 220.307C1476.61 217.598 1475.98 214.889 1476.19 211.972C1475.98 207.805 1477.24 203.846 1479.54 200.513C1481.85 197.179 1485.63 194.679 1490.66 191.971C1495.7 189.261 1501.99 187.803 1509.96 185.72L1533.45 180.719V184.26L1518.77 187.594C1509.33 189.47 1503.04 192.178 1499.47 195.721C1497.79 197.388 1496.32 199.262 1495.49 201.554C1494.65 203.846 1494.02 206.139 1494.23 208.431C1494.02 210.723 1494.44 212.806 1495.27 214.889C1496.11 216.973 1497.37 218.847 1498.84 220.515C1501.99 223.433 1506.18 224.891 1510.59 224.682C1514.15 224.682 1517.72 224.057 1520.87 222.806C1523.8 221.348 1526.32 219.056 1528 216.349V173.01C1528 164.884 1525.9 158.842 1521.92 155.716C1517.3 152.174 1511.64 150.299 1505.76 150.507C1501.99 150.507 1498 151.133 1494.44 152.383C1491.29 153.424 1488.35 155.3 1486.05 157.591C1483.74 159.675 1482.48 162.383 1482.06 165.508H1479.96C1479.96 163.01 1481.01 160.509 1482.69 158.633C1483.32 157.8 1484.37 156.966 1485.42 156.55C1486.47 156.133 1487.51 155.925 1488.77 155.925C1489.82 155.925 1491.08 156.133 1492.13 156.55C1493.18 156.966 1494.02 157.591 1494.86 158.424C1495.7 159.258 1496.32 160.3 1496.95 161.342C1497.37 162.383 1497.58 163.634 1497.58 164.884C1497.58 166.135 1497.37 167.176 1496.95 168.218C1496.53 169.26 1495.91 170.301 1494.86 171.134C1494.02 171.968 1492.97 172.593 1491.71 173.01C1490.66 173.426 1489.4 173.635 1488.14 173.635C1485.84 173.635 1483.53 172.593 1481.85 170.926C1481.01 170.092 1480.38 169.051 1479.75 168.009C1479.33 166.967 1479.12 165.717 1479.12 164.468C1479.12 162.592 1479.54 160.925 1480.17 159.258C1481.01 157.591 1482.06 156.133 1483.53 155.091C1486.89 151.966 1491.08 149.466 1495.49 148.216C1500.94 146.34 1506.81 145.507 1512.48 145.507C1522.12 145.507 1529.89 147.382 1535.97 151.758C1542.05 155.925 1544.99 162.592 1544.99 171.343V215.515C1544.99 219.474 1546.04 221.973 1547.72 223.64C1549.6 225.307 1551.91 226.349 1554.43 226.349C1555.69 226.349 1557.15 226.14 1558.41 225.724V228.432C1556.53 229.474 1554.64 230.308 1552.75 231.142C1550.23 231.766 1547.5 232.182 1544.78 232.182C1542.05 232.391 1539.53 231.766 1537.02 230.933C1534.71 230.099 1532.82 228.641 1531.35 226.765C1529.68 224.891 1528.63 222.39 1528.42 219.89C1526.32 223.433 1522.96 226.349 1518.14 229.057C1512.9 231.766 1507.02 232.809 1501.15 232.6C1494.23 233.016 1487.93 230.933 1483.11 226.974Z" fill="white"></path>
    <path d="M1594.49 160.925C1597.01 156.133 1600.79 152.382 1605.61 149.882C1610.86 146.965 1616.94 145.507 1623.03 145.715C1631.62 145.715 1638.75 148.007 1644 152.174C1649.24 156.341 1651.96 163.009 1651.96 171.759V219.265C1651.96 220.723 1652.18 222.39 1652.59 223.848C1652.8 224.473 1653.23 225.098 1653.86 225.515C1654.27 225.931 1654.9 226.349 1655.74 226.558C1658.05 227.182 1660.35 227.807 1662.66 228.223V231.141H1624.27V228.016C1628.68 227.39 1631.62 226.349 1632.67 225.307C1633.71 224.264 1634.34 222.39 1634.34 219.474V175.302C1634.34 168.009 1632.67 162.592 1628.89 158.842C1625.54 155.299 1620.5 153.633 1614.21 153.633C1610.02 153.424 1605.82 154.466 1602.25 156.549C1598.9 158.424 1596.18 160.925 1594.28 164.05V220.098C1594.28 223.015 1594.91 225.098 1595.96 225.931C1597.01 226.974 1599.94 227.807 1604.35 228.641V231.557H1565.96V228.641C1570.58 228.016 1573.73 226.974 1574.56 225.931C1575.82 224.891 1576.66 222.599 1576.66 219.681V160.509C1576.66 158.217 1576.24 156.549 1575.61 155.924C1574.98 154.883 1573.52 154.258 1571 153.633L1565.76 151.966V149.257L1593.85 145.923V160.716H1594.49V160.925Z" fill="white"></path>
    <path d="M1690.57 227.392C1684.26 223.64 1679.03 218.432 1675.46 211.972C1671.68 205.513 1670.21 197.804 1670.21 189.053C1670.21 181.344 1672.11 173.635 1675.87 166.76C1679.44 160.3 1684.89 154.883 1691.61 151.341C1698.33 147.382 1705.66 145.715 1714.26 145.715C1723.71 145.715 1731.04 147.591 1735.65 151.549C1740.27 155.508 1742.57 159.675 1742.57 164.675C1742.57 165.926 1742.37 167.176 1741.96 168.218C1741.53 169.26 1740.9 170.301 1739.86 171.134C1739.02 171.968 1737.96 172.593 1736.71 173.01C1735.65 173.426 1734.4 173.635 1733.14 173.635C1730.63 173.635 1728.32 172.593 1726.42 170.927C1725.59 170.094 1724.95 169.051 1724.34 168.009C1723.91 166.968 1723.71 165.717 1723.71 164.468C1723.71 161.967 1724.75 159.675 1726.42 158.008C1727.26 157.175 1728.11 156.55 1729.16 156.133C1730.2 155.716 1731.26 155.508 1732.51 155.508C1734.82 155.508 1737.12 156.55 1738.8 158.424C1740.49 160.091 1741.33 162.383 1741.33 164.675H1739.02C1738.8 162.592 1737.96 160.509 1736.92 158.633C1735.65 156.758 1734.18 155.3 1732.3 154.05C1728.11 151.341 1723.07 149.882 1717.83 150.091C1712.17 150.091 1706.72 151.549 1702.1 154.675C1697.69 157.8 1694.12 162.176 1691.82 167.176C1689.3 173.01 1688.04 179.261 1688.04 185.511C1688.04 193.638 1689.3 200.513 1692.45 206.555C1694.96 211.972 1699.16 216.556 1704.19 219.89C1709.03 223.015 1714.68 224.682 1720.56 224.473C1724.95 224.682 1729.36 223.849 1733.57 222.182C1737.12 220.723 1740.27 218.64 1743 215.931V218.848C1739.86 223.224 1735.65 226.558 1730.63 228.641C1724.75 231.35 1718.25 232.6 1711.54 232.6C1704.19 232.809 1696.86 230.933 1690.57 227.392Z" fill="white"></path>
    <path d="M1757.68 166.759C1760.83 160.509 1765.65 155.091 1771.73 151.341C1777.81 147.382 1784.74 145.715 1793.13 145.715C1799.64 145.507 1806.35 146.965 1812.22 149.882C1817.46 152.591 1821.65 156.758 1824.18 161.967C1826.9 167.593 1828.37 173.635 1828.16 179.885V182.595C1828.16 183.427 1828.16 184.26 1827.74 184.886H1764.19V181.761L1812.64 181.344L1810.97 182.595C1810.97 181.761 1810.97 180.719 1811.38 179.885V177.176C1811.59 170.301 1809.91 163.634 1806.77 157.591C1805.5 155.091 1803.42 153.007 1800.89 151.549C1798.37 150.09 1795.66 149.465 1792.72 149.674C1789.57 149.674 1786.21 150.299 1783.49 151.757C1780.55 153.216 1778.24 155.508 1776.35 158.217C1772.36 164.05 1770.26 172.385 1770.26 182.802C1770.06 190.304 1771.53 197.595 1774.67 204.472C1777.18 210.305 1781.18 215.515 1786.43 219.265C1791.66 222.806 1797.74 224.682 1804.25 224.473C1808.66 224.682 1813.06 223.848 1817.26 222.181C1820.81 220.723 1823.96 218.64 1826.69 215.931V218.847C1823.55 223.224 1819.34 226.558 1814.32 228.641C1808.44 231.348 1801.95 232.6 1795.23 232.6C1787.68 232.6 1780.12 230.724 1773.42 226.974C1767.12 223.432 1761.89 218.014 1758.31 211.763C1754.54 204.679 1752.64 196.763 1752.86 188.845C1752.86 181.344 1754.54 173.843 1757.68 166.759Z" fill="white"></path>
    <path d="M1888.58 140.508C1891.93 132.59 1897.38 125.714 1903.89 120.297C1910.59 114.671 1918.36 110.504 1926.53 107.796C1935.56 105.087 1944.99 103.629 1954.44 103.629C1962.82 103.42 1971.21 104.254 1979.6 105.92C1986.74 107.587 1991.97 109.254 1995.75 111.754L1996.81 145.716H1992.61C1991.14 139.257 1988.62 132.798 1985.27 126.964C1982.33 121.756 1978.13 117.38 1973.31 114.255C1968.29 111.129 1962.41 109.463 1956.53 109.671C1948.97 109.463 1941.85 111.963 1936.19 116.963C1930.11 122.381 1925.49 129.465 1923.18 137.174C1920.25 145.716 1918.78 155.926 1918.78 167.386C1918.78 175.095 1919.41 182.804 1921.08 190.305C1922.55 196.972 1924.86 203.431 1928 209.682C1930.74 214.89 1934.72 219.267 1939.34 222.808C1943.32 225.308 1947.73 226.976 1952.34 227.392C1956.96 228.016 1961.78 227.392 1966.18 225.933C1968.7 225.1 1971.21 223.85 1973.52 222.392V185.72C1973.52 183.637 1973.31 181.554 1972.47 179.47C1971.84 178.011 1970.59 176.762 1969.12 176.137C1966.6 175.304 1964.08 174.677 1961.36 174.47V170.302H2012.96V174.47C2010.65 174.677 2008.14 175.304 2006.04 176.137C2004.57 176.762 2003.3 178.011 2002.67 179.47C2001.84 181.345 2001.63 183.428 2001.63 185.304V220.307C1995.34 224.684 1988.42 227.6 1980.86 229.059C1972.06 231.142 1963.04 232.184 1954.02 232.393C1944.36 232.393 1934.72 230.934 1925.49 227.809C1917.31 224.891 1909.75 220.516 1903.46 214.681C1897.17 209.057 1892.35 202.18 1888.99 194.471C1885.64 186.138 1883.74 176.971 1883.96 168.011C1882.9 158.635 1884.37 149.258 1888.58 140.508Z" fill="white"></path>
    <path d="M2045.26 164.885C2049.24 159.884 2053.86 155.092 2058.68 150.717C2061.84 147.8 2065.82 146.341 2070.01 146.133C2071.27 146.133 2072.52 146.341 2073.58 146.758C2074.83 147.174 2075.68 148.008 2076.72 148.841C2077.99 150.508 2078.83 152.592 2078.83 154.675C2078.83 155.925 2078.61 157.176 2078.19 158.217C2077.99 159.259 2077.56 160.093 2076.93 160.926C2075.68 160.718 2074.42 160.509 2073.15 160.302C2071.48 160.093 2069.8 159.884 2068.13 159.884C2063.72 159.884 2059.31 160.509 2055.12 161.76C2051.35 162.801 2047.98 164.677 2045.47 167.386V218.849C2045.47 220.516 2045.67 222.39 2046.1 224.057C2046.3 224.682 2046.94 225.308 2047.36 225.724C2047.98 226.142 2048.61 226.558 2049.24 226.558C2051.76 227.183 2054.28 227.809 2057 228.225V231.142H2017.15V228.225C2021.76 227.6 2024.91 226.558 2026.17 225.516C2027.44 224.475 2027.85 222.599 2027.85 219.683V160.926C2027.85 158.635 2027.44 156.967 2026.8 156.342C2026.17 155.3 2024.7 154.675 2022.19 154.05L2016.74 152.383V149.675L2044.83 146.341V164.677H2045.26V164.885Z" fill="white"></path>
    <path d="M2146.78 218.223C2151.19 211.347 2153.08 201.763 2153.08 190.095C2153.29 183.011 2152.25 175.927 2150.14 169.051C2148.47 163.634 2145.53 158.842 2141.55 154.883C2137.98 151.758 2133.36 149.883 2128.54 149.883C2120.77 149.883 2114.9 153.425 2110.5 160.3C2106.09 167.176 2104.21 176.76 2104.21 188.428C2104 195.512 2105.04 202.596 2107.15 209.473C2108.82 214.89 2111.76 219.683 2115.74 223.642C2119.31 226.974 2123.93 228.85 2128.75 228.85C2136.71 228.641 2142.39 225.1 2146.78 218.223ZM2106.31 227.392C2099.8 223.849 2094.34 218.64 2090.57 212.39C2086.38 205.514 2084.28 197.597 2084.48 189.47C2084.28 181.344 2086.38 173.426 2090.57 166.551C2094.55 160.091 2100 154.675 2106.72 151.133C2113.64 147.383 2121.4 145.507 2129.16 145.507C2136.93 145.299 2144.47 147.174 2151.19 150.716C2157.7 154.258 2163.15 159.467 2166.93 165.717C2171.11 172.594 2173.22 180.51 2173.01 188.637C2173.01 196.763 2171.11 204.681 2166.93 211.556C2163.15 218.016 2157.48 223.433 2150.78 226.974C2143.85 230.724 2136.3 232.6 2128.32 232.6C2120.56 232.809 2113.01 231.142 2106.31 227.392Z" fill="white"></path>
    <path d="M2207.62 202.387C2207.62 209.68 2209.29 215.097 2212.64 219.056C2216.01 222.599 2221.04 224.682 2227.33 224.682C2231.32 224.682 2235.51 223.848 2239.08 221.765C2242.43 220.098 2244.95 217.389 2246.84 214.264V160.509C2246.84 158.217 2246.42 156.55 2245.78 155.924C2245.17 154.883 2243.9 154.258 2241.17 153.633L2235.94 151.966V149.257L2264.04 145.923V217.182C2264.04 219.473 2264.46 221.14 2265.09 221.765C2265.71 222.806 2266.97 223.432 2269.71 224.473L2274.73 226.14V228.849L2246.62 232.182V217.182C2244.11 221.972 2240.33 225.724 2235.51 228.225C2230.26 231.141 2224.39 232.599 2218.52 232.391C2210.13 232.391 2203.21 230.099 2197.76 225.931C2192.51 221.765 2189.78 214.89 2189.78 205.93V160.509C2189.78 158.217 2189.37 156.55 2188.73 155.924C2188.1 154.883 2186.63 154.258 2184.12 153.633L2178.87 151.966V149.257L2206.99 145.923V202.18H2207.62V202.387Z" fill="white"></path>
    <path d="M2346.48 163.841C2341.44 157.383 2335.35 153.633 2327.8 153.633C2323.61 153.633 2319.63 154.466 2315.85 156.341C2312.49 158.008 2309.55 160.716 2307.87 164.259V217.598C2309.34 220.723 2312.08 223.224 2315.22 224.891C2318.57 226.765 2322.55 227.807 2326.55 227.807C2330.33 227.807 2334.31 226.974 2337.66 225.307C2341.01 223.432 2343.95 220.932 2346.26 217.807C2351.3 210.93 2353.61 202.18 2353.61 190.928C2353.4 179.261 2351.09 170.301 2346.48 163.841ZM2366.18 211.556C2362.63 218.014 2357.59 223.224 2351.09 226.974C2344.79 230.515 2337.66 232.6 2330.33 232.6C2325.49 232.808 2320.88 231.766 2316.69 229.683C2312.91 228.016 2309.77 225.307 2307.67 221.765V258.436C2307.67 260.103 2307.87 261.977 2308.3 263.644C2308.5 264.269 2308.93 264.895 2309.55 265.311C2310.18 265.728 2310.81 266.144 2311.65 266.144C2314.18 266.769 2316.69 267.396 2319.41 267.811V270.728H2279.55V267.811C2282.08 267.603 2284.39 267.187 2286.48 266.144C2287.74 265.728 2288.78 264.686 2289.41 263.644C2289.84 262.186 2290.05 260.519 2290.05 259.06V160.509C2290.05 158.217 2289.62 156.549 2289 155.924C2288.37 154.883 2286.9 154.258 2284.39 153.633L2278.94 151.966V149.257L2307.03 145.923V161.342C2309.55 156.341 2313.55 152.382 2318.37 149.882C2323.61 146.965 2329.47 145.507 2335.35 145.715C2341.64 145.715 2347.73 147.382 2352.97 150.716C2358.63 154.258 2363.04 159.466 2365.98 165.508C2369.33 171.759 2371.02 179.677 2371.02 188.845C2371.86 196.763 2369.96 204.679 2366.18 211.556Z" fill="white"></path>
    <path d="M178.627 134.256C177.369 133.84 175.901 133.631 174.641 133.631C174.641 130.714 173.802 127.797 172.544 125.297C171.076 122.797 169.188 120.505 166.671 118.838C159.33 114.254 150.729 111.962 142.129 112.171C136.256 112.587 115.91 114.879 110.875 114.879C103.744 114.462 96.612 113.629 89.6899 112.171C84.446 111.129 75.8458 111.129 70.8117 110.92C65.7775 110.504 63.4702 111.337 62.4213 109.045C61.3727 106.753 61.3727 103.42 69.3434 94.2519C72.4898 90.5015 74.1679 85.501 73.958 80.5004C73.958 78.8336 73.3288 76.5417 77.3142 75.4999C81.2995 74.4581 93.6753 72.5829 96.612 70.916C99.5484 69.2493 102.275 67.9991 101.646 65.0821C101.017 62.3734 99.968 58.8315 102.066 57.5812C103.744 56.3311 104.373 54.8727 111.085 54.8727C118.007 54.8727 130.383 54.8727 137.305 52.164C144.017 49.4554 144.856 47.1635 144.646 45.2883C144.646 43.4131 141.92 42.3713 141.92 39.4543C141.92 36.7457 143.598 35.9124 145.905 35.9124C147.793 35.9124 148.212 36.954 150.939 35.9124C153.876 34.8706 155.344 30.0784 157.861 28.6198C160.798 26.9531 167.51 22.7859 168.559 20.7023C169.608 19.0356 171.285 16.7436 167.51 14.8684C164.153 12.9932 161.637 12.5765 159.539 13.8266C157.232 15.0767 157.861 16.5352 155.134 15.0767C152.198 13.4099 151.778 12.1598 150.52 11.118C149.261 10.0762 146.115 10.4929 142.549 11.5347C138.983 12.5765 138.563 13.2015 136.676 11.9514C135.627 11.118 134.788 10.2846 134.368 9.03442L136.885 6.32579C136.885 6.32579 140.241 3.40881 137.934 1.32526C135.627 -0.341588 134.368 1.95033 132.9 3.20046C132.061 4.24224 130.802 5.07567 129.544 5.90909C128.075 6.32579 126.398 6.53415 124.929 6.53415C122.202 6.53415 119.895 7.78429 117.588 6.11744C115.28 4.45059 113.602 3.20046 112.344 3.20046C110.666 3.20046 110.036 5.07567 107.1 5.90909C103.744 6.7425 100.178 6.53415 96.8217 5.28401C92.2069 3.61718 90.1094 3.61718 88.2216 5.70073C86.3338 7.78429 85.9143 9.03442 86.9631 10.7013C88.0118 12.3681 89.6899 13.4099 88.641 14.66C87.8021 15.7018 86.7532 16.5352 85.7046 17.3687C84.0265 18.6188 82.7679 20.0772 81.2995 20.9107C79.8313 21.9524 80.041 23.2027 77.3142 22.1609C75.0069 21.119 76.0557 19.2439 72.9093 19.8689C69.9727 20.494 70.1824 23.411 69.9727 25.4945C69.3434 27.1614 68.7142 30.0784 67.0361 28.8282C65.358 27.5781 62.6312 21.9524 60.114 20.9107C57.5969 19.8689 55.4994 19.0356 53.4017 23.6193C51.3042 27.9947 50.8847 32.7869 51.7238 37.3708C52.7725 41.5379 55.2897 43.2048 54.4506 51.1223L49.836 52.9975C47.5286 54.0393 44.8017 54.2476 42.2846 55.7061C39.348 57.3729 37.2505 59.2481 34.7334 60.7067C32.2164 62.1651 31.7968 61.3318 26.7627 63.4152C21.7284 65.0821 18.582 66.124 16.4845 69.0408C14.5966 71.7495 15.2259 72.9996 16.0649 74.6665C16.6942 76.3334 21.7284 82.584 22.7772 84.4592C23.826 86.3344 24.665 88.0013 25.7138 88.0013C27.6016 88.4179 29.6991 88.4179 31.5871 88.0013C33.0553 87.1678 34.7334 86.7511 36.6212 86.7511C38.2993 86.7511 40.6065 87.1677 39.348 88.418C38.0895 89.6682 34.9431 91.1266 33.4749 93.4185C31.5871 96.1271 31.1675 101.544 31.1675 101.544C31.1675 101.544 21.3089 108.837 20.8894 119.671C20.2601 130.506 22.7772 136.965 23.1967 139.673C23.826 142.382 24.8748 144.674 22.1479 146.966C18.3723 149.883 14.1771 152.383 9.98198 154.258C6.62586 155.925 1.59167 159.259 0.962397 161.758C0.333124 164.468 1.59167 170.718 2.22094 172.594C2.64046 174.468 4.10876 180.094 4.52827 184.053C5.15756 189.054 6.41609 194.054 8.09416 198.846C8.51368 200.513 12.0796 206.973 13.7576 210.098C15.4357 212.806 20.6797 220.516 20.6797 220.516L22.9869 221.141L19.4211 231.975H38.2993L40.6065 224.475L43.9627 223.849C45.6408 222.599 46.8994 220.932 47.3188 218.849C47.7383 216.14 52.3531 201.555 53.192 197.179C54.2409 193.013 54.8701 188.012 56.5482 185.304C58.2262 182.804 59.6946 180.303 61.1628 177.802C62.0019 175.927 63.2605 174.261 64.7287 172.801C66.4068 171.136 68.0849 170.094 67.6653 168.843C67.2458 167.593 69.5531 166.135 69.5531 166.135C69.5531 166.135 91.1583 159.884 95.7728 158.217C100.388 156.55 101.646 155.509 102.695 156.967C103.744 158.217 105.422 157.592 106.051 161.967C106.68 166.135 107.31 169.26 108.358 170.51C109.617 172.177 112.763 173.844 113.392 178.011C114.022 182.177 114.441 186.136 108.778 196.763C103.114 206.973 98.0802 215.515 96.612 216.348C95.3533 217.391 91.5777 217.598 89.8996 219.056C86.5435 221.35 80.6703 231.766 80.6703 231.766L100.178 231.35V230.308C100.178 230.308 105.212 226.767 106.051 226.767C107.1 226.767 107.31 224.891 109.617 220.932C111.924 217.391 115.49 208.222 119.475 203.014C123.461 197.805 126.817 194.471 127.866 191.762C128.915 189.054 128.915 183.637 128.495 180.512C128.075 177.594 127.866 172.594 129.124 171.968C130.383 171.343 134.158 168.011 142.339 175.302C150.31 182.595 156.183 189.679 157.651 194.263C158.7 199.471 157.651 204.89 155.134 209.68C152.827 213.223 149.89 216.557 146.954 219.474L143.598 220.099L136.046 231.35H160.588L161.637 226.349L162.895 225.1C162.895 225.1 168.559 212.598 170.237 205.097C172.124 197.597 172.963 197.179 172.124 193.638C171.285 190.512 169.817 187.803 168.139 185.095C166.881 183.22 167.091 182.804 166.252 179.885C165.831 177.802 164.992 175.927 163.945 174.052C162.685 171.343 161.007 167.177 162.056 163.634C163.105 159.675 163.734 156.967 164.363 154.05C165.413 151.133 166.252 147.591 167.299 146.758C167.93 146.341 168.559 145.924 169.188 145.716C169.188 145.716 177.578 147.591 180.724 146.758C183.662 145.716 186.598 143.841 186.598 140.09C186.388 136.548 181.983 134.465 178.627 134.256ZM114.022 27.9947C113.183 27.3697 112.344 26.5363 111.714 25.7029C112.134 24.6611 114.022 22.7859 117.588 22.1609C121.154 21.5358 126.188 20.9107 127.866 21.7441C129.754 22.7859 130.173 23.411 129.754 26.328C129.754 29.0365 130.383 31.3285 125.349 34.8706C120.315 38.8292 116.749 40.7044 113.812 40.0794C110.875 39.4543 110.875 37.7876 111.505 36.5374C112.134 34.8706 114.232 33.8287 114.441 31.9536C114.861 31.3285 114.861 30.7034 114.861 29.8701C114.861 29.0365 114.441 28.4115 114.022 27.9947ZM83.1873 37.3708C85.9143 35.2873 88.641 33.412 91.7875 32.1619C93.6753 31.5368 101.017 31.5368 101.017 31.5368L100.597 32.5786L99.3387 36.5374C98.2899 38.4126 96.4021 43.4131 95.3534 45.08C94.0947 46.7469 89.6899 47.997 86.7532 48.6221C84.446 49.2471 82.1387 50.2888 80.041 51.5389C79.4117 50.4973 78.7825 49.4554 78.1532 48.6221C77.3142 47.5803 76.4751 46.5384 75.4264 45.7051C77.7336 42.7881 80.4606 40.0794 83.1873 37.3708ZM41.4457 182.386C40.1871 185.304 39.7676 190.304 39.5579 192.595C39.348 195.096 38.7187 197.597 37.6701 199.888C36.6212 203.638 35.3627 207.181 33.6846 210.723C32.8456 211.974 32.0065 213.223 31.3772 214.681L27.8113 215.099L28.2309 211.14L27.1821 210.514C27.1821 210.514 28.2309 210.514 26.5528 207.597C24.665 204.681 21.9382 201.347 21.9382 201.347C21.9382 201.347 20.8894 196.346 20.2601 193.847C19.6308 191.137 15.8552 186.554 15.2259 184.678C15.0162 183.428 14.3869 182.177 13.9674 181.137C13.9674 181.137 15.2259 173.01 15.0162 169.885C15.0162 169.885 25.9235 169.469 29.909 169.469C33.8943 169.469 39.5579 167.177 41.2358 167.802C43.1238 168.427 45.2213 167.384 44.8017 171.343C43.9627 175.095 42.9139 178.845 41.4457 182.386Z" fill="white"></path>
    <path d="M5.36723 270.521H14.5972V272.813H5.36723H4.31837H2.84998V252.393H4.31837H5.36723H14.5972V254.686H5.36723V260.519H13.9679V262.812H5.36723V270.521Z" fill="white"></path>
    <path d="M25.0843 269.688C25.9234 270.521 26.9722 270.937 28.2309 270.937C29.4895 270.937 30.3286 270.728 30.9578 270.103C31.5871 269.479 31.797 268.645 31.797 267.603C31.797 266.769 31.5871 265.936 31.1677 265.52C30.7481 264.895 30.1187 264.478 29.2798 264.062C28.6503 263.644 27.8114 263.435 26.9722 263.019C26.5527 262.811 25.9234 262.602 25.294 262.395C24.6647 262.186 24.0354 261.768 23.6159 261.352C23.1963 260.935 22.567 260.519 22.3572 259.685C21.9378 259.061 21.9378 258.227 21.9378 257.393C21.9378 256.351 22.1475 255.518 22.7767 254.684C23.1963 253.851 24.0354 253.226 24.8746 252.808C25.7135 252.392 26.7625 252.184 28.0211 252.184C29.0699 252.184 30.1187 252.392 30.9578 252.808C31.797 253.226 32.4262 253.642 33.0557 254.475C33.6849 255.102 34.1045 255.935 34.5241 256.769L32.4262 258.018C32.2165 257.393 31.797 256.976 31.3774 256.351C30.9578 255.935 30.5383 255.518 29.909 255.102C29.2797 254.684 28.6503 254.684 27.8114 254.684C26.7625 254.684 25.9234 254.893 25.5038 255.518C25.0843 256.142 24.6647 256.769 24.6647 257.602C24.6647 258.227 24.8746 258.852 25.294 259.268C25.7135 259.685 26.343 260.101 26.9722 260.519C27.6015 260.935 28.4406 261.144 29.2798 261.561C29.909 261.768 30.3286 261.977 30.9578 262.395C31.5871 262.602 32.2165 263.019 32.6361 263.644C33.2654 264.062 33.6849 264.686 33.8946 265.311C34.3142 265.936 34.3142 266.769 34.3142 267.812C34.3142 269.061 34.1045 269.895 33.4751 270.937C33.0557 271.771 32.2165 272.604 31.3774 273.022C30.5383 273.438 29.2798 273.646 28.0211 273.646C26.343 273.646 24.8746 273.229 23.6159 272.188C22.3572 271.146 21.3083 269.688 20.6791 268.02L22.7767 266.769C23.6159 267.603 24.2451 268.854 25.0843 269.688Z" fill="white"></path>
    <path d="M38.9287 252.393H51.9346V254.686H46.6903V272.813H44.173V254.686H38.9287V252.393Z" fill="white"></path>
    <path d="M57.5972 272.813V252.393H59.0656H60.1144H63.8903C65.988 252.393 67.6662 252.81 69.1346 253.644C70.603 254.477 71.8617 255.727 72.7007 257.185C73.5398 258.645 73.9594 260.519 73.9594 262.604C73.9594 264.687 73.5398 266.354 72.7007 268.021C71.8617 269.688 70.603 270.73 69.1346 271.564C67.6662 272.397 65.7783 272.813 63.8903 272.813H60.1144H59.0656H57.5972ZM63.6806 270.312C65.149 270.312 66.6174 269.897 67.6662 269.272C68.9249 268.645 69.7639 267.812 70.3933 266.562C71.0226 265.311 71.4422 264.062 71.4422 262.395C71.4422 260.728 71.0226 259.478 70.3933 258.227C69.7639 256.978 68.9249 256.144 67.6662 255.519C66.4075 254.893 65.149 254.477 63.6806 254.477H59.9047V269.897H63.6806V270.312Z" fill="white"></path>
    <path d="M80.4609 270.519C80.8805 270.31 81.0904 270.102 81.5098 270.102C81.9293 270.102 82.3489 270.31 82.5588 270.519C82.7685 270.728 82.9783 271.144 82.9783 271.561C82.9783 271.977 82.7685 272.395 82.5588 272.602C82.3489 273.02 81.9293 273.02 81.5098 273.02C81.0904 273.02 80.6708 272.811 80.4609 272.602C80.0414 272.186 80.0414 271.977 80.0414 271.561C80.0414 271.353 80.2512 270.935 80.4609 270.519Z" fill="white"></path>
    <path d="M103.114 253.851L110.246 252.184V272.813H107.729V255.102L103.114 256.351V253.851Z" fill="white"></path>
    <path d="M120.944 272.813L126.818 265.311C126.608 265.52 126.188 265.729 125.769 265.729C125.349 265.729 124.93 265.729 124.51 265.729C123.461 265.729 122.413 265.52 121.364 264.895C120.525 264.269 119.686 263.435 119.266 262.602C118.637 261.561 118.427 260.519 118.427 259.268C118.427 257.809 118.637 256.56 119.266 255.518C119.895 254.475 120.734 253.642 121.783 253.017C122.832 252.392 124.091 252.184 125.349 252.184C126.608 252.184 127.867 252.392 128.916 253.017C129.964 253.642 130.803 254.475 131.433 255.518C132.062 256.56 132.272 257.809 132.272 259.268C132.272 260.101 132.062 260.935 131.852 261.561C131.643 262.186 131.223 262.811 131.013 263.435L124.091 272.813H120.944ZM129.335 256.769C128.916 256.142 128.286 255.518 127.657 255.102C127.028 254.684 126.188 254.475 125.349 254.475C124.51 254.475 123.671 254.684 123.042 255.102C122.413 255.518 121.783 256.142 121.364 256.769C120.944 257.393 120.734 258.227 120.734 259.268C120.734 260.31 120.944 260.935 121.364 261.768C121.783 262.395 122.413 263.019 123.042 263.435C123.671 263.853 124.51 264.062 125.349 264.062C126.188 264.062 127.028 263.853 127.657 263.435C128.286 263.019 128.916 262.395 129.335 261.768C129.755 261.144 129.964 260.31 129.964 259.268C129.964 258.227 129.755 257.393 129.335 256.769Z" fill="white"></path>
    <path d="M151.15 270.105C150.521 271.146 149.682 271.979 148.633 272.397C147.584 273.022 146.326 273.23 145.067 273.23C143.808 273.23 142.76 273.022 141.711 272.604C140.662 272.188 140.033 271.77 139.403 271.146C138.774 270.521 138.145 269.687 137.725 269.063L139.823 267.604C140.032 268.229 140.452 268.645 141.081 269.271C141.501 269.687 142.13 270.105 142.969 270.521C143.599 270.939 144.438 270.939 145.067 270.939C146.536 270.939 147.584 270.521 148.423 269.687C149.262 268.854 149.682 267.604 149.682 266.353C149.682 265.52 149.472 264.686 149.053 263.853C148.633 263.228 148.004 262.603 147.374 262.186C146.745 261.77 145.906 261.561 145.067 261.561C144.438 261.561 143.808 261.561 143.389 261.77C142.76 261.979 142.34 261.979 141.711 262.395C141.081 262.812 140.452 263.019 139.823 263.437L142.55 252.601H152.199V254.686H144.438L142.969 260.103C144.018 259.685 145.067 259.269 146.116 259.269C147.374 259.269 148.423 259.478 149.262 260.103C150.102 260.727 150.941 261.561 151.36 262.603C151.99 263.646 152.199 264.895 152.199 266.145C152.199 267.604 151.78 269.063 151.15 270.105Z" fill="white"></path>
    <path d="M166.672 262.604C167.301 261.979 167.93 261.145 168.35 260.519C168.769 259.894 168.979 259.061 168.979 258.227C168.979 257.602 168.769 256.978 168.561 256.56C168.35 255.935 167.721 255.519 167.301 255.102C166.672 254.686 166.043 254.477 165.204 254.477C163.945 254.477 162.897 254.893 162.058 255.727C161.219 256.56 161.008 257.811 161.008 259.478H158.491C158.491 258.018 158.701 256.769 159.33 255.727C159.959 254.686 160.588 253.852 161.637 253.226C162.687 252.601 163.945 252.393 165.204 252.393C166.252 252.393 167.301 252.601 168.14 253.019C168.979 253.435 169.608 253.852 170.239 254.477C170.868 255.102 171.078 255.727 171.497 256.351C171.707 256.978 171.917 257.602 171.917 258.227C171.917 259.27 171.707 260.312 171.078 261.353C170.658 262.395 169.818 263.228 169.189 264.062L162.687 270.73H172.126V273.022H157.652L166.672 262.604Z" fill="white"></path>
  </g>
  <defs>
    <clipPath id="clip0_140_952">
      <rect width="2372" height="274.701" fill="white" transform="translate(0 0.149902)"></rect>
    </clipPath>
  </defs>
</svg>
