<?xml version="1.0" encoding="UTF-8"?>
<svg xmlns="http://www.w3.org/2000/svg" width="1235" height="389" viewBox="0 0 1235 389" fill="none">
  <g clip-path="url(#clip0_140_1121)">
    <path d="M263.189 257.697C263.189 330.247 204.268 389 131.595 389C58.9213 389 0 330.247 0 257.697C0 185.148 58.9213 126.395 131.595 126.395C132.228 126.395 132.899 126.395 133.533 126.432C132.042 132.976 131.259 139.819 131.259 146.809C131.259 198.051 172.814 239.551 224.169 239.551C237.139 239.551 249.475 236.911 260.692 232.114C262.332 240.406 263.189 248.959 263.189 257.697Z" fill="white"></path>
    <path d="M470.029 329.874V250.409C470.029 231.035 463.023 222.036 446.662 222.036C428.661 222.036 421.133 231.593 421.133 250.929V329.874H376.523V186.672H418.189V201.881H418.71C428.102 187.156 441.295 181.764 459.296 181.764C486.166 181.764 514.639 196.192 514.639 238.509V329.837H470.029V329.874Z" fill="white"></path>
    <path d="M613.214 334.263C567.821 334.263 532.864 301.986 532.864 258.144C532.864 214.302 568.604 182.024 613.214 182.024C657.824 182.024 693.565 214.302 693.565 257.623C693.565 300.944 658.085 334.226 613.214 334.226V334.263ZM648.955 258.144C648.955 239.067 633.898 222.036 612.916 222.036C593.313 222.036 577.437 238.547 577.437 258.144C577.437 277.741 593.015 294.251 613.177 294.251C633.339 294.251 648.917 277.22 648.917 258.144H648.955Z" fill="white"></path>
    <path d="M782.264 226.907C782.003 218.652 775.816 216.086 768.549 216.086C761.282 216.086 755.654 220.214 755.654 225.643C755.654 233.377 762.921 237.245 783.605 242.414C819.085 251.45 830.638 265.097 830.638 285.995C830.638 315.93 803.768 334.783 769.891 334.783C736.014 334.783 712.385 316.45 709.143 287.297H753.492C754.834 296.333 761.58 300.461 770.412 300.461C778.201 300.461 785.99 296.073 785.99 289.342C785.99 281.347 780.885 277.219 758.561 270.526C720.92 259.445 711.006 245.24 711.006 228.469C711.006 200.096 738.697 181.764 768.772 181.764C801.01 181.764 823.855 198.795 826.017 226.907H782.226H782.264Z" fill="white"></path>
    <path d="M1190.39 329.875V314.406H1189.87C1183.42 327.049 1165.68 334.783 1146.08 334.783C1101.99 334.783 1071.35 301.502 1071.35 258.181C1071.35 214.859 1103.33 181.801 1146.08 181.801C1164.34 181.801 1181.3 188.755 1189.87 201.919H1190.39V186.71H1235V329.912H1190.39V329.875ZM1190.39 258.144C1190.39 238.026 1173.47 221.776 1152.49 221.776C1131.51 221.776 1115.93 238.026 1115.93 258.664C1115.93 279.302 1132.33 294.772 1153.01 294.772C1173.69 294.772 1190.39 278.782 1190.39 258.106V258.144Z" fill="white"></path>
    <path d="M894.255 138.963H849.57V282.24C849.57 311.579 868.093 329.763 904.877 329.763C919.598 329.763 934.654 327.606 943.785 325.264V288.003C935.288 290.383 925.71 292.057 914.119 292.057C902.529 292.057 894.255 288.821 894.255 276.625V219.656H944.679V186.486H894.255V138.926V138.963Z" fill="white"></path>
    <path d="M1009.45 203.332V186.635H966.519V329.652H1010.98V261.899C1010.98 233.341 1027.49 225.606 1045.71 225.606C1050.26 225.606 1055.03 225.829 1060.06 227.056V186.635C1057.01 185.78 1052.46 185.185 1048.1 185.185C1035.95 185.185 1018.77 188.941 1009.45 203.332Z" fill="white"></path>
    <path d="M97.5314 113.045C128.8 113.045 154.179 87.7212 154.179 56.5223C154.179 25.3235 128.8 0 97.5314 0C66.2632 0 40.8834 25.3235 40.8834 56.5223C40.8834 87.7212 66.2259 113.045 97.5314 113.045Z" fill="white"></path>
    <path d="M224.169 223.784C266.767 223.784 301.278 189.35 301.278 146.846C301.278 104.343 266.767 69.9092 224.169 69.9092C181.572 69.9092 147.061 104.343 147.061 146.846C147.061 189.35 181.572 223.784 224.169 223.784Z" fill="white"></path>
  </g>
  <defs>
    <clipPath id="clip0_140_1121">
      <rect width="1235" height="389" fill="white"></rect>
    </clipPath>
  </defs>
</svg>
